<?xml version="1.0" encoding="UTF-8" standalone="no"?><!DOCTYPE svg PUBLIC "-//W3C//DTD SVG 1.1//EN" "http://www.w3.org/Graphics/SVG/1.1/DTD/svg11.dtd"><svg width="100%" height="100%" viewBox="0 0 4267 6400" version="1.1" xmlns="http://www.w3.org/2000/svg" xmlns:xlink="http://www.w3.org/1999/xlink" xml:space="preserve" xmlns:serif="http://www.serif.com/" style="fill-rule:evenodd;clip-rule:evenodd;stroke-linejoin:round;stroke-miterlimit:2;"><path d="M2365.9,1922.85c-283.909,-54.554 -583.334,105.903 -644.445,230.903c-61.111,125 -52.398,293.552 -11.111,435.764c62.5,215.278 155.22,283.109 248.959,315.929c1.693,0.593 -13.542,-29.758 -12.5,-54.267c1.041,-24.509 12.5,-50.204 12.5,-50.204c-0,0 15.206,58.336 67.013,100.408c50.458,40.976 110.361,55.234 156.945,87.786c57.639,40.278 101.389,86.806 101.389,86.806l0.694,-193.75c0,0 6.25,-10.416 108.334,45.834c102.083,56.25 179.166,58.333 179.166,58.333c0,-0 -81.041,-224.597 -34.722,-301.389c26.389,-43.75 81.943,24.762 217.776,-0c233.859,-42.632 316.946,30.556 316.946,30.556c0,-0 40.972,-81.719 -179.861,-321.303c-220.833,-239.583 -181.944,-405.086 -527.083,-471.406Z" style="fill:#33aeb9;"/><path d="M2472.5,2566.25c-0,-0 -13.882,-41.319 -95.827,-89.931c-81.944,-48.611 -209.381,-63.888 -209.381,-63.888l-116.32,12.5l-72.569,68.999l-47.222,131.001c-0,-0 88.684,94.444 224.029,88.888c135.346,-5.555 155.689,-26.118 235.693,-72.222c81.944,-47.222 81.597,-75.347 81.597,-75.347Z" style="fill:#fff;"/><path d="M1104.79,2480.14c-0,-0 -33.546,-13.732 61.104,-24.653c36.111,-4.167 55.215,4.167 55.215,4.167l131.544,79.158c-0,-0 -68.717,123 -69.463,127.146c-3.363,18.693 -78.309,17.938 -148.192,-42.415c-30.556,-26.389 -30.208,-143.403 -30.208,-143.403Z" style="fill:#fff;"/><path d="M2137.05,2714.37c-1.456,0.984 -2.479,2.526 -3.936,3.511c-0.002,0.001 -29.609,3.109 -63.991,1.421c-63.476,-3.116 -95.134,-18.949 -115.742,-37.654c-3.157,-2.866 -12.905,-12.797 -19.578,-26.018c-20.534,-40.678 -3.911,-80.585 4.498,-95.59l0.499,-0.873c0.144,-0.248 0.182,-0.613 0.439,-0.74c2.366,-1.16 2.537,-0.719 4.913,-1.884c0.407,1.755 1.434,3.327 1.84,5.082c0.14,0.606 -4.27,12.543 -2.887,34.499c3.14,49.827 44.413,65.882 47.59,67.436c6.998,3.42 33.275,14.307 50.814,20.18c1.728,0.579 8.375,3.115 20.301,6.819c0.865,0.268 32.159,10.59 68.653,19.178c2.883,0.679 2.923,0.575 3.083,0.713c1.325,1.147 2.18,2.772 3.504,3.92Z" style="fill:#111b2a;"/><path d="M1303.59,2663.19c7.327,-18.617 18.065,-53.673 21.343,-86.88c2.125,-21.523 2.718,-47.262 -3.112,-73.254c-0.612,-2.729 -3.582,-15.975 -11.794,-32.904c-1.194,-2.463 -5.629,-12.527 -19.834,-29.186c-5.832,-6.838 -22.701,-24.541 -44.167,-39.625c-2.465,-1.733 -12.914,-10.041 -32.386,-20.527c-2.741,-1.475 -14.1,-8.434 -36.637,-18.211c-5.857,-2.541 -9.674,-4.98 -54.274,-22.277c-34.803,-13.498 -66.41,-23.081 -69.969,-24.223c-2.503,-0.802 -33.125,-11.156 -67.411,-20.339c47.066,-4.291 80.559,-4.244 87.573,-4.235c51.781,0.072 77.786,2.957 84.512,3.703c19.623,2.178 44.4,5.323 75.377,14.188c1.084,0.31 11.167,2.859 29.499,10.583c26.912,11.339 45.954,23.062 66.035,41.087c0.876,0.786 12.054,11.655 18.877,20.623c8.092,10.639 18.638,25.947 27.041,51.011c4.399,13.123 9.881,32.803 8.76,62.855c-0.314,8.436 -1.145,34.098 -15.896,71.763c-8.014,20.461 -31.88,64.879 -63.537,95.848Z" style="fill:#111b2a;"/><path d="M1236.73,2454.08c-18.055,4.184 -52.116,52.293 -50,104.753c2.778,68.875 26.389,87.06 58.333,104.356c31.945,17.297 90.278,-52.147 90.278,-52.147l0,-77.216c0,0 -80.555,-83.93 -98.611,-79.746Z" style="fill:#111b2a;"/><path d="M2151.89,2401.66c-65.507,-4.167 -90.801,71.337 -84.257,137.144c6.25,62.856 52.083,126.852 139.583,127.146c70.834,0.237 122.917,-49.957 135.417,-107.124c12.5,-57.166 10.417,-79.356 10.417,-79.356c-0,-0 -135.653,-73.644 -201.16,-77.81Z" style="fill:#111b2a;"/><path d="M2224.23,2442.98c-16.793,-1.866 -27.778,22.222 -26.389,48.611c0.879,16.702 15.278,31.945 27.778,30.556c12.5,-1.389 33.333,-11.741 29.167,-42.676c-2.283,-16.95 -18.056,-35.102 -30.556,-36.491Z" style="fill:#fff;"/><path d="M2659.27,2785.79c-27.843,2.764 -25.625,73.29 -2.145,144.295c14.86,44.939 49.746,79.615 68.229,70.015c18.482,-9.599 42.798,-47.421 11.292,-129.475c-17.262,-44.958 -56.651,-86.891 -77.376,-84.835Z" style="fill:#111b2a;"/><path d="M1566.61,2144.32c20.556,9.781 48.901,-45.289 62.645,-109.814c8.699,-40.837 -0.894,-82.359 -17.83,-82.893c-16.936,-0.533 -49.894,18.097 -62.733,94.532c-7.034,41.879 2.618,90.895 17.918,98.175Z" style="fill:#111b2a;"/><path d="M1752.01,1686.39c-19.068,-17.335 -68.75,8.333 -95.833,47.917c-27.084,39.583 -50,83.333 -31.25,93.75c18.75,10.416 62.5,-18.75 87.5,-45.834c25,-27.083 62.5,-75 39.583,-95.833Z" style="fill:#111b2a;"/><path d="M2961.37,3815.95c-37.266,10.909 -58.168,96.38 -42.033,163.584c16.135,67.203 40.82,132.328 70.335,116.262c29.514,-16.066 40.86,-96.618 36.137,-151.037c-4.722,-54.419 -19.65,-141.92 -64.439,-128.809Z" style="fill:#111b2a;"/><path d="M1511.77,1801.16c-24.283,-8.626 -60.199,34.237 -69.895,81.209c-9.696,46.971 -13.939,96.177 7.379,98.545c21.318,2.368 50.41,-41.432 63.012,-76.068c12.602,-34.637 28.688,-93.318 -0.496,-103.686Z" style="fill:#111b2a;"/><path d="M2187.43,4017.64c-13.808,-6.276 -72.917,35.417 -119.792,104.167c-46.875,68.75 -63.542,114.583 -44.792,122.916c18.75,8.334 70.976,-31.25 110.488,-83.333c39.512,-52.083 77.012,-133.333 54.096,-143.75Z" style="fill:#111b2a;"/><path d="M1708.26,4473.89c-43.52,-20.48 -85.417,54.167 -97.917,127.083c-12.5,72.917 -7.441,112.928 22.182,118.75c42.402,8.334 83.948,-50 94.365,-116.666c10.417,-66.667 16.787,-112.5 -18.63,-129.167Z" style="fill:#111b2a;"/><path d="M2501.97,4822.62c45.048,16.852 80.701,-60.97 87.196,-134.665c6.495,-73.695 -1.819,-113.158 -31.82,-116.538c-42.94,-4.838 -79.577,56.698 -84.507,123.993c-4.93,67.295 -7.53,113.496 29.131,127.21Z" style="fill:#111b2a;"/><path d="M2015.3,4538.47c-39.344,-9.055 -88.289,52.084 -96.622,116.667c-8.334,64.583 -6.25,135.417 29.166,131.25c35.417,-4.167 59.911,-41.667 86.206,-116.667c26.294,-75 17.455,-122.916 -18.75,-131.25Z" style="fill:#111b2a;"/><path d="M2344.17,4943.81c-49.059,-20.301 -126.064,43.719 -151.126,121.416c-25.062,77.697 -37.985,165.518 8.895,168.604c46.88,3.086 86.94,-37.465 137.609,-123.835c50.668,-86.37 49.769,-147.503 4.622,-166.185Z" style="fill:#111b2a;"/><path d="M2832.04,5041.68c43.957,-5.193 69.588,-89.88 52.213,-162.829c-17.375,-72.949 -47.933,-148.685 -82.56,-130.702c-34.627,17.984 -44.684,67.823 -41.538,158.864c3.147,91.04 31.433,139.446 71.885,134.667Z" style="fill:#111b2a;"/><path d="M2765.32,4470.68c44.601,2.853 80.72,-86.617 72.38,-171.448c-8.34,-84.831 -29.518,-175.367 -66.373,-162.109c-36.854,13.257 -53.083,66.901 -61.212,169.123c-8.129,102.222 14.162,161.809 55.205,164.434Z" style="fill:#111b2a;"/><path d="M1785.43,4917.98c19.065,0.459 48.818,9.251 70.839,73.822c2.942,8.627 2.784,8.661 9.063,29.589c9.924,33.07 18.867,76.278 21.074,114.043c1.951,33.367 -0.541,54.367 -1.416,61.43c-1.399,11.299 -4.884,23.118 -5.465,25.089c-0.608,2.06 -16.234,65.212 -76.381,62.59c-5.852,-0.255 -35.096,-1.111 -63.114,-32.333c-19.781,-22.043 -28.972,-53.317 -30.457,-58.371c-8.891,-30.253 -9.803,-59.168 -6.783,-114.411c0.02,-0.371 1.916,-29.488 2.327,-34.32c2.287,-26.89 8.04,-73.455 29.545,-101.198c19.282,-24.877 41.19,-25.77 50.768,-25.93Zm-0.08,40.97c0.003,0.637 -16.643,-4.384 -27.81,33.417c-6.933,23.467 -7.481,52.571 -7.568,57.185c-0.212,11.242 -0.363,27.421 5.724,60.935c2.301,12.667 10.409,55.983 34.007,80.811c3.178,3.343 7.789,7.005 10.436,8.662c0.299,0.187 0.59,0.358 0.871,0.514c1.995,-3.555 4.551,-9.149 7.073,-17.374c0.507,-1.654 9.039,-23.754 13.747,-74.711c4.316,-46.709 0.417,-72.253 -1.217,-83.513c-0.441,-3.036 -6.746,-32.345 -18.123,-50.696c-8.522,-13.746 -14.425,-15.126 -17.14,-15.23Zm19.162,242.925c0.147,0.034 0.286,0.063 0.417,0.087l-0.022,-0.13l0.033,-0.009c-0.209,-0.03 -0.449,-0.083 -0.428,0.052Z" style="fill:#111b2a;"/><path d="M3033.26,4407.22c-42.115,8.423 -45.833,106.25 -22.917,169.792c22.917,63.542 58.334,132.292 114.584,115.625c56.25,-16.667 47.916,-112.5 8.333,-179.167c-39.583,-66.666 -58.333,-114.583 -100,-106.25Z" style="fill:#111b2a;"/><path d="M2307.29,4432.05c-15.608,2.766 -37.72,5.734 -70.694,8.311c-58.09,4.539 -124.49,4.411 -131.737,4.359c87.237,-16.624 184.112,-41.527 221.831,-60.099c13.253,-6.525 13.238,-6.528 26.609,-12.833c11.157,-5.261 59.888,-28.112 87.399,-41.002c6.508,-3.967 11.062,-6.62 12.808,-7.636l0.701,1.309c3.464,-1.621 5.499,-2.572 5.574,-2.603c15.667,-6.578 27.302,2.036 29.192,3.435c11.196,8.289 11.96,20.233 12.089,22.255c0.905,14.145 -7.879,22.578 -9.366,24.005c-1.304,1.253 -25.432,18.689 -63.772,53.535c-75.319,68.455 -121.384,131.182 -121.884,131.82c-5.65,7.215 -25.391,32.421 -63.701,95.2c-4.161,6.817 -19.751,32.518 -37.144,64.72c6.59,-3.99 13.381,-7.891 18.931,-10.635c28.845,-14.261 63.741,-25.451 69.423,-27.273c27.242,-8.735 50.711,-15.083 50.774,-15.108c0.204,-0.079 0.314,-0.125 0.838,-0.353c-0.996,0.489 -2.037,1.092 -3.912,2.262c-5.462,3.409 -30.793,19.217 -67.018,44.558c-35.902,25.116 -47.528,37.918 -72.231,62.273c-26.764,26.387 -49.054,52.208 -49.099,52.247c-3.429,3.038 -3.287,3.263 -7.4,5.272c-13.412,6.551 -24.46,0.038 -26.272,-1.03c-12.863,-7.584 -13.517,-20.397 -13.624,-22.499c-0.196,-3.842 0.923,-8.589 1.096,-9.319c13.792,-58.482 38.276,-116.355 42.425,-126.162c2.522,-5.961 24.817,-60.316 62.945,-123.967c4.129,-6.893 20.729,-32 32.462,-46.756c20.289,-25.515 40.416,-47.286 62.757,-68.286Zm37.871,231.407c1.198,-0.59 2.33,-1.016 4.769,-2.07c-2.851,1.232 -4.124,1.789 -4.769,2.07Z" style="fill:#111b2a;"/><path d="M2959.4,2960.98c32.461,-4.992 29.286,-80.692 1.301,-155.364c-17.712,-47.26 -58.703,-82.028 -80.186,-70.363c-21.484,11.666 -49.538,54.112 -12.096,140.087c20.514,47.106 66.819,89.355 90.981,85.64Z" style="fill:#111b2a;"/><path d="M2799.73,3132.44c-27.885,0.546 -33.717,64.673 -18.549,130.73c9.6,41.807 40.198,75.715 59.592,68.31c19.394,-7.406 47.778,-40 25.92,-116.644c-11.977,-41.994 -46.207,-82.803 -66.963,-82.396Z" style="fill:#111b2a;"/><path d="M3149.18,4129.94c-38.352,12.057 -23.384,99.166 21.308,180.291c28.285,51.342 82.762,83.712 106.913,66.042c24.151,-17.67 51.683,-72.278 -6.059,-164.672c-31.638,-50.624 -93.614,-90.635 -122.162,-81.661Z" style="fill:#111b2a;"/><path d="M1276.07,4523.22c-11.6,4.018 -28.017,8.077 -53.907,10.468c-62.123,5.736 -111.143,-7.735 -119.334,-10.05c-5.651,-1.597 -7.577,-2.54 -8.201,-2.846c-1.717,-0.841 -11.807,-5.782 -15.121,-18.504c-0.482,-1.85 -3.314,-12.722 4.17,-23.529c3.39,-4.894 8.441,-7.99 13.14,-11.398c32.689,-23.715 132.524,-103.908 184.367,-216.595c2.065,-4.49 11.956,-23.782 29.722,-83.42c35.354,-118.682 36.551,-191.611 34.615,-220.641c-0.638,-9.568 -1.18,-9.529 -1.03,-10.348c0.595,-3.263 0.348,-6.956 2.209,-9.702c0.041,-0.06 8.083,-5.444 8.12,-5.437c10.581,2.221 13.351,1.004 15.403,11.627c3.285,17.001 16.168,110.491 -33.801,288.691c-4.737,16.894 -31.968,126.873 -158.332,249.567c-1.095,1.063 -2.177,2.107 -3.248,3.135c34.768,0.131 64.803,-5.664 78.027,-10.864c34.014,-13.374 74.272,-47.974 107.67,-82.018c7.838,-9.782 15.537,-18.746 22.921,-26.853c1.535,-1.686 11.009,-12.087 19.87,-20.429c3.573,-3.363 5.556,-4.691 6.082,-5.042c1.959,-1.312 13.418,-8.984 29.051,-4.939c2.282,0.59 15.632,4.044 23.01,18.407c1.077,2.097 7.377,14.362 1.559,29.423c-0.728,1.886 -1.619,3.716 -2.653,5.453c-0.73,1.226 -2.062,3.867 -17.988,20.797c-1.048,1.115 -2.271,2.41 -3.66,3.868c-42.23,49.096 -106.711,146.52 -119.264,269.598c-3.872,37.966 -2.547,63.593 1.948,124.245c3.023,40.791 7.067,79.677 11.728,115.07c0.579,-1.303 1.04,-2.345 1.366,-3.102c23.581,-54.701 47.286,-116.93 58.081,-147.899c1.139,-3.268 1.011,-3.314 2.618,-6.379c1.085,-2.069 7.437,-14.188 22.994,-18.005c2.269,-0.557 15.557,-3.817 28.716,5.316c1.919,1.332 13.159,9.132 15.024,25.04c0.234,1.991 0.298,4.008 0.193,6.009c-0.167,3.167 -1.908,10.583 -2.234,12.113c-5.041,23.691 -32.836,169.984 24.664,323.71c6.875,18.379 21.069,55.973 65.236,126.921c2.941,4.724 71.437,119.249 198.122,252.105c25.848,27.108 42.886,43.006 42.898,43.03c1.478,2.972 4.003,5.709 4.216,9.022c0.004,0.072 -3.066,9.27 -3.1,9.286c-2.92,1.408 -5.54,3.992 -8.776,4.194c-6.615,0.413 -6.568,-0.607 -11.655,-4.876c-15.567,-13.063 -66.574,-57.694 -122.713,-117.321c-13.715,-14.568 -110.899,-116.431 -182.181,-235.78c-43.866,-73.446 -66.253,-149.959 -76.566,-218.671c-24.57,65.628 -25.583,96.44 -25.648,97.819l0.006,0c-0.002,0.007 -0.005,0.014 -0.007,0.021c-1.291,4.532 -1.391,9.35 -2.685,13.881c-0.645,2.255 -1.879,4.313 -3.087,6.324c-9.692,16.13 -25.572,18.697 -28.268,19.133c-18.576,3.003 -30.783,-7.473 -32.856,-9.251c-5.402,-4.636 -8.349,-9.859 -8.901,-10.836c-4.486,-7.95 -12.794,-37.379 -19.48,-66.861c-25.522,-112.545 -31.687,-236.774 -33.567,-281.667c-3.488,-83.252 14.113,-157.827 40.517,-221.01Z" style="fill:#111b2a;"/><path d="M1276.93,2508.88c-10.584,-1.176 -17.507,14.005 -16.631,30.636c0.553,10.526 9.628,20.133 17.506,19.258c7.878,-0.876 21.008,-7.4 18.382,-26.897c-1.439,-10.682 -11.379,-22.122 -19.257,-22.997Z" style="fill:#fff;"/><path d="M1122.6,2491.59c-3.547,5.433 -3.466,5.627 -4.721,6.763c-2.32,2.1 -0.271,11.518 -0.291,32.551c-0.003,3.09 -1.103,13.23 6.705,58.15c2.947,16.947 6.117,31.055 6.721,33.74c0.055,0.247 0.337,0.931 0.167,0.743c-0.197,-0.217 -18.656,-27.383 -29.138,-46.873c-14.418,-26.808 -16.454,-36.001 -21.949,-50.521c-8.866,-23.425 -10.919,-33.764 -1.859,-57.689c3.602,-9.511 12.788,-17.473 14.208,-18.703c3.25,-2.817 17.435,-15.111 48.836,-22.474c20.295,-4.758 39.132,-4.084 42.549,-3.962c3.523,0.126 23.093,0.826 43.448,7.367c12.478,4.01 26.851,10.807 49.959,29.611c2.987,2.431 18.25,15.905 29.732,28.493c23.449,25.708 38.038,46.13 41.06,50.36c2.355,3.297 2.337,3.283 4.623,6.609c-6.548,-3.802 -30.395,-17.368 -48.482,-26.503c-0.284,-0.144 -36.853,-18.701 -62.059,-27.456c-8.002,-2.78 -21.919,-6.717 -29.336,-6.835c-20.607,-0.328 -22.093,-0.275 -40.701,0.224c-2.08,0.056 -22.062,0.8 -34.095,3.109c-8.576,1.645 -14.349,4.23 -14.847,3.776c-0.183,-0.167 -0.359,-0.327 -0.53,-0.48Z" style="fill:#111b2a;"/><path d="M1841.57,2453.13c-1.114,-0.699 -7.473,-4.692 -9.473,-13.439c-0.617,-2.697 -0.74,-5.564 -0.297,-8.296c0.189,-1.166 0.614,-3.792 5.879,-13.55c3.665,-6.792 25.775,-48.808 71.37,-106.163c31.877,-40.099 65.171,-71.514 71.289,-77.287c73.486,-69.339 130.684,-91.57 147.237,-98.176c59.084,-23.578 104.854,-22.962 136.693,-19.41c104.337,11.64 189.528,82.332 230.926,131.281c0.245,0.29 2.908,3.439 3.028,3.655c1.389,2.509 3.184,4.852 4.072,7.579c0.403,1.238 2.757,8.47 -0.766,16.257c-3.576,7.905 -10.458,10.206 -11.653,10.606c-2.566,0.858 -5.41,1.649 -8.048,1.049c-10.056,-2.288 -10.474,-1.932 -18.175,-8.784c-25.472,-22.666 -83.101,-63.998 -148.902,-79.626c-5.036,-1.196 -45.039,-11.934 -90.028,-5.671c-1.776,0.247 -30.895,3.337 -73.39,22.79c-12.843,5.879 -55.989,27.213 -100.569,59.321c-2.88,2.075 -55.165,38.026 -114.2,96.95c-40.538,40.461 -64.687,73.554 -65.237,74.14c-1.939,2.067 -3.514,4.551 -5.82,6.199c-7.144,5.105 -14.582,3.846 -15.866,3.629c-0.681,-0.116 -4.389,-0.743 -8.07,-3.054Z" style="fill:#111b2a;"/><path d="M2466.14,2546.72c-5.425,7.162 -12.959,8.225 -14.272,8.41c-2.733,0.386 -5.598,0.258 -8.271,-0.432c-3.725,-0.962 -3.513,-1.492 -25.943,-14.595c-1.673,-0.977 -55.044,-32.861 -115.111,-60.92c-56.485,-26.386 -90.643,-36.058 -103.903,-39.248c-13.967,-3.36 -33.053,-5.098 -50.322,-3.697c-0.377,0.031 -52.755,0.903 -106.627,38.774c-26.668,18.746 -39.857,35.61 -42.716,39.266c-0.846,1.081 -28.859,32.723 -50.811,113.958c-6.169,22.827 -8.931,39.316 -9.014,39.597c-0.801,2.724 -1.099,5.652 -2.412,8.17c-0.602,1.154 -4.068,7.804 -12.444,10.49c-8.645,2.773 -15.497,-0.801 -16.685,-1.421c-7.789,-4.062 -10.091,-11.204 -10.491,-12.443c-0.296,-0.921 -1.203,-3.732 -0.896,-12.058c2.18,-59.188 16.456,-147.185 57.42,-201.176c56.958,-75.068 146.541,-115.293 228.672,-105.076c21.813,2.713 58.345,10.224 127.453,50.428c33.989,19.772 68.438,45.113 74.179,49.337c45.65,33.581 73.725,58.688 77.88,62.355c3.262,2.877 3.497,2.699 5.694,6.475c0.655,1.125 4.433,7.616 2.275,16.116c-0.168,0.66 -1.095,4.31 -3.655,7.69Z" style="fill:#111b2a;"/><path d="M2047.49,2879.42c1.821,-0.31 3.364,-1.645 5.185,-1.955c0.201,-0.035 5.74,1.911 25.472,5.674c46.353,8.841 102.233,10.288 149.605,1.363c31.346,-5.905 83.635,-15.826 150.994,-67.938c28.001,-21.662 53.263,-47.815 66.107,-63.699c0.307,-0.379 0.457,-0.973 0.914,-1.142c2.478,-0.917 2.656,-0.179 5.146,-1.1c0.102,1.855 0.811,3.644 0.913,5.499c0.005,0.093 -12.753,23.743 -32.196,48.613c-20.23,25.877 -67.512,81.475 -137.973,105.446c-42.267,14.379 -88.288,13.139 -121.608,8.409c-60.878,-8.641 -109.851,-33.631 -110.162,-34.147c-0.956,-1.59 -1.441,-3.433 -2.397,-5.023Z" style="fill:#111b2a;"/><path d="M1774.23,2751.37c1.389,0.541 2.975,0.431 4.364,0.972c0.039,0.015 12.261,12.081 29.101,26.729c13.928,12.114 26.69,23.412 29.001,25.458c37.402,33.11 36.384,35.998 57.065,55.434c3.566,3.351 35.038,34.191 61.873,38.055c2.922,0.421 2.966,0.151 3.186,0.281c1.169,0.688 3.093,1.015 3.321,2.352c0.077,0.448 0.493,2.889 -4.263,3.749c-16.336,2.952 -36.938,-4.275 -39.983,-5.343c-56.826,-19.934 -95.467,-71.406 -104.393,-83.035c-3.505,-4.566 -24.396,-31.783 -39.594,-60.078c-1.133,-2.109 0.154,-2.189 0.322,-4.574Z" style="fill:#111b2a;"/><path d="M1757.13,2691.17c-2.471,1.651 -2.623,1.65 -5.54,1.052c-3.846,-0.788 -3.519,-1.512 -5.851,-4.681c-6.293,-8.547 -20.905,-30.794 -34.593,-59.211c-44.271,-91.911 -54.271,-176.702 -56.502,-194.337c-1.706,-13.486 -7.959,-61.443 -3.991,-130.417c0.868,-15.078 5.239,-63.523 15.207,-108.689c4.949,-22.421 9.783,-41.119 18.446,-68.328c0.794,-2.496 14.598,-45.142 35.124,-90.182c21.349,-46.844 43.444,-88.234 74.756,-136.49c35.347,-54.476 71.733,-96.463 78.577,-104.361c64.64,-74.591 127.888,-126.959 181.088,-161.879c15.99,-10.497 26.277,-16.146 28.627,-17.437c5.114,-2.808 5.474,-1.041 10.19,2.372c0.03,0.022 0.932,5.57 0.916,5.638c-0.882,3.699 -1.626,3.309 -4.672,5.583c-31.1,23.212 -107.472,91.94 -178.925,198.178c-32.715,48.641 -69.755,110.602 -107.18,196.628c-22.793,52.391 -52.214,133.641 -67.992,194.61c-0.474,1.83 -14.144,48.876 -22.501,113.618c-7.071,54.782 -15.379,172.415 24.272,291.951c2.503,7.545 10.782,32.964 22.35,55.557c3.669,7.166 -1.076,10.337 -1.806,10.825Z" style="fill:#111b2a;"/><path d="M1012.25,2500.47c-14.227,-24.999 -68.846,-124.06 -68.2,-187.181c0.494,-48.241 38.106,-129.461 93.242,-201.767c5.733,-17.362 25.68,-74.785 61.305,-142.802c104.384,-199.296 223.23,-286.516 299.703,-332.75c90.738,-54.859 184.536,-81.754 201.394,-86.588c88.968,-25.51 268.459,-64.48 536.52,-27.73c14.726,2.019 101.024,13.85 182.204,36.37c0.588,0.164 7.194,1.996 7.334,2.106c1.495,1.165 3.502,1.881 4.473,3.508c0.038,0.063 0.87,5.489 0.847,5.519c-1.109,1.458 -1.778,3.421 -3.355,4.355c-3.371,1.999 -3.612,1.352 -7.451,0.582c-14.741,-2.954 -151.42,-29.457 -323.859,-25.61c-226.79,5.06 -367.091,55.805 -432.622,82.871c-86.607,35.771 -147.143,77.847 -183.487,106.147c-23.918,18.623 -135.508,103.937 -231.965,284.481c-0.397,0.743 -29.731,53.946 -50.358,107.501c-4.507,11.704 -4.083,12.109 -9.986,19.067c-1.24,1.462 -27.958,32.947 -51.633,71.03c-29.986,48.237 -36.952,77.225 -39.271,88.3c-8.565,40.917 31.928,136.195 52.001,176.168c3.989,7.945 3.274,8.413 2.457,24.247c-0.884,17.105 -6.846,136.392 -1.633,207.016c1.52,20.591 2.829,31.059 11.761,67.848c11.525,47.463 21.879,75.842 21.879,75.857c-0.059,1.888 0.55,3.926 -0.192,5.663c-0.028,0.067 -3.935,3.937 -3.972,3.937c-6.041,-0.102 -7.385,0.917 -9.802,-4.618c-14.662,-33.576 -35.541,-96.65 -40.824,-122.185c-10.072,-48.68 -15.694,-141.021 -16.51,-241.342Z" style="fill:#111b2a;"/><path d="M2336.12,1679.68c-0.193,3.291 0.826,6.899 -0.597,9.873c-0.03,0.063 -7.328,6.638 -7.365,6.636c-3.285,-0.176 -6.886,0.86 -9.854,-0.559c-6.036,-2.887 -5.544,-3.768 -7.588,-10.142c-10.056,-31.345 -12.084,-78.395 -2.41,-122.037c9.413,-42.469 147.71,-302.446 294.965,-539.75c18.778,-30.261 78.259,-124.126 129.97,-196.581c128.883,-180.583 184.354,-212.941 222.865,-214.784c21.492,-1.029 41.538,6.705 44.946,8.02c84.921,32.764 134.354,156.179 164.977,275.103c16.395,63.668 27.21,133.105 29.028,144.777c4.311,27.674 26.874,164.862 32.31,421.358c5.613,264.821 -21.962,364.419 -117.919,450.467c-96.358,86.407 -146.49,132.051 -155.662,181.148c-6.709,35.912 -4.163,80.229 -0.563,107.057c1.386,10.327 -1.553,9.991 -10.304,15.637c-0.032,0.02 -9.653,-2.058 -9.711,-2.098c-5.519,-3.815 -4.699,-4.675 -5.996,-11.256c-3.776,-19.158 -15.014,-91.467 -0.995,-136.893c16.248,-52.646 68.69,-105.266 150.992,-187.586c86.856,-86.874 102.771,-179.196 71.327,-546.833c-0.031,-0.359 -19.669,-284.177 -80.018,-474.449c-21.228,-66.928 -41.266,-103.492 -56.013,-124.677c-26.269,-37.741 -46.43,-40.396 -53.037,-40.934c-6.312,1.96 -39.754,16.457 -128.545,125.85c-136.173,167.768 -329.325,465.95 -435.718,648.841c-45.21,77.715 -54.435,100.515 -55.743,105.256c-9.716,35.238 -11.783,77.347 -3.342,108.556Z" style="fill:#111b2a;"/><path d="M1508.95,3749.91c-0.777,2.746 -0.968,2.776 -3.485,4.143c-3.528,1.917 -3.74,1.312 -7.68,0.571c-8.463,-1.591 -88.336,-16.45 -110.94,-20.514c-7.285,-1.31 -38.39,-6.902 -91.19,-15.659c-8.217,-1.363 -74.186,-12.281 -96.19,-12.246c-47.128,0.073 -79.93,38.87 -146.369,45.086c-32.944,3.083 -55.889,-5.41 -60.456,-7.1c-48.629,-17.999 -82.886,-64.714 -118.681,-149.197c-11.913,-28.117 -24.708,-57.266 -35.72,-123.261c-9.66,-57.89 -11.871,-131.885 -12.214,-143.392c-1.721,-57.612 1.732,-127.516 2.042,-128.289c0.709,-1.768 1.01,-3.85 2.34,-5.214c0.053,-0.054 4.974,-2.249 5.008,-2.235c1.661,0.695 3.682,0.856 4.97,2.114c2.927,2.858 2.294,3.287 2.68,7.364c4.962,52.443 17.748,143.344 35.251,215.531c12.495,51.53 23.947,81.978 26.56,88.928c8.18,21.749 18.747,44.77 45.957,91.844c40.338,69.788 63.978,77.522 84.623,78.858c34.811,2.254 66.495,-14.119 96.305,-23.686c45.968,-14.754 73.166,-10.021 116.951,1.191c12.34,3.16 55.157,15.571 89.775,27.135c90.817,30.337 164.904,58.585 165.227,58.861c4.099,3.503 4.205,3.405 4.438,3.811c1.428,2.484 1.575,2.609 0.798,5.356Z" style="fill:#111b2a;"/><path d="M1418.29,3973.73c-41.981,-8.002 -85.82,-18.954 -133.08,-31.999c-19.829,-5.473 -114.202,-30.663 -184.307,-160.347c-18.499,-34.219 -26.938,-60.711 -27.423,-62.197c-1.642,-5.034 -1.793,-5.301 0.492,-10.078c0.032,-0.065 6.905,-6.314 6.942,-6.311c3.082,0.19 6.459,-0.731 9.244,0.602c5.804,2.778 5.12,3.726 7.627,9.645c5.32,12.56 55.774,130.351 160.871,173.762c18.713,7.73 29.522,10.294 71.076,18.601c132.953,26.578 233.193,33.597 341.806,3.684c133.687,-36.819 186.698,-82.9 350.597,-169.763c10.876,-5.764 51.598,-26.621 75.213,-36.966c13.458,-5.895 23.749,-9.972 30.046,-10.883c18.596,-2.689 30.805,7.73 32.888,9.508c14.293,12.197 14.521,28.246 14.56,30.985c0.032,2.215 0.21,14.684 -8.862,26.233c-2.031,2.585 -4.373,5.567 -30.646,27.378c-65.709,54.548 -133.499,97.414 -149.808,107.769c-38.057,24.161 -126.762,74.995 -170.723,92.564c-99.676,39.835 -201.619,35.896 -279.157,21.556c12.192,15.886 23.202,34.099 31.386,54.685c33.12,83.319 55.085,193.574 55.036,193.939c-0.426,3.159 -0.038,6.689 -1.697,9.41c-0.038,0.062 -7.467,5.57 -7.504,5.564c-3.042,-0.513 -6.494,0.046 -9.121,-1.571c-2.715,-1.672 -4.181,-4.861 -5.794,-7.611c-0.021,-0.036 -16.958,-61.009 -43.781,-129.419c-8.259,-21.062 -20.687,-50.413 -28.682,-64.58c-31.784,-56.316 -89.972,-86.344 -107.199,-94.16Z" style="fill:#111b2a;"/><path d="M932.22,3642.29l-444.444,-15.278l-363.889,-101.389l369.444,-77.778l369.445,26.078" style="fill:#fff;"/><path d="M293.636,3530.96c2.638,0.757 5.275,1.515 7.912,2.273c42.181,12.13 84.309,24.441 126.448,36.714c21.883,6.373 43.195,15.133 65.617,19.226c0.254,0.046 146.124,7.139 439.627,23.454c1.821,0.101 12.228,0.68 20.642,9.693c2.579,2.763 4.703,6.057 6.051,9.587c0.648,1.694 4.39,11.489 -0.778,22.652c-5.029,10.861 -14.682,14.614 -16.349,15.262c-3.654,1.42 -7.67,1.688 -11.564,2.136c-1.514,0.174 -391.346,-5.743 -444.77,-7.021c-4.64,-0.111 -8.224,-1.044 -8.921,-1.225c-61.11,-15.906 -330.377,-88.286 -364.791,-98.152c-10.369,-2.973 -16.626,-9.013 -17.806,-10.152c-13.211,-12.752 -12.758,-28.432 -12.68,-31.119c0.145,-5.019 0.22,-5.019 1.621,-9.841c1.509,-5.192 1.357,-5.269 4.112,-9.908c1.371,-2.309 9.279,-15.627 27.339,-19.483c65.85,-14.06 355.265,-71.373 370.237,-74.013c5.358,-0.945 9.554,-0.587 10.383,-0.516c85.046,7.26 266.327,24.149 289.481,26.306c23.829,2.22 47.636,4.676 71.463,6.921c2.647,0.25 5.304,0.375 7.956,0.562c1.811,0.128 12.213,0.862 20.297,10.174c8.066,9.291 7.346,19.713 7.221,21.525c-0.125,1.812 -0.841,12.195 -10.173,20.297c-2.867,2.489 -6.265,4.486 -9.864,5.696c-3.703,1.246 -7.718,1.331 -11.62,1.528c-2.598,0.131 -5.187,-0.429 -7.786,-0.549c-23.254,-1.079 -46.518,-1.946 -69.772,-3.048c-63.159,-2.995 -126.312,-6.101 -189.464,-9.244c-32.596,-1.622 -65.143,-5.005 -97.78,-5.052c-7.336,-0.01 -14.304,3.27 -21.461,4.881c-45.869,10.327 -91.71,20.778 -137.617,30.934c-14.399,3.185 -28.804,6.35 -43.211,9.502Z" style="fill:#111b2a;"/><path d="M123.887,3545.07l238.889,-71.144c-0,-0 5.555,54.478 5.555,96.144c0,41.667 -244.444,-25 -244.444,-25Z" style="fill:#111b2a;"/><path d="M490.471,3623.14c-4.593,-1.152 -4.782,-1.309 -7.215,-5.371c-3.036,-5.068 -1.715,-5.455 -0.906,-11.293c2.253,-16.264 8.751,-61.871 6.718,-80.986c-2.9,-27.28 -16.466,-73.412 -16.462,-73.506c0.146,-3.034 -0.588,-6.318 0.656,-9.089c0.031,-0.07 6.169,-6.057 6.207,-6.056c2.871,0.13 5.991,-0.757 8.613,0.421c5.542,2.49 5.085,3.265 7.616,8.778c28.476,62.018 26.807,84.962 26.766,87.816c-0.325,23.132 -8.431,51.558 -14.696,71.592c-0.749,2.395 -2.817,8.292 -2.819,8.301c-0.414,1.317 -3.793,12.072 -14.478,9.393Z" style="fill:#111b2a;"/><path d="M2247.3,3495.91l-0.049,0.009c-1.839,-4.874 -8.553,-26.562 -20.462,-43.309c-7.55,-10.617 -20.671,-32.807 -57.691,-33.777c-24.253,-0.635 -46.274,7.118 -50.108,8.469c-9.145,3.219 -9.57,1.763 -17.994,-3.046c-0.032,-0.018 -1.462,-8.583 -1.446,-8.664c1.238,-6.346 2.022,-6.122 6.816,-10.461c24.188,-21.895 47.915,-30.371 52.551,-32.027c39.189,-14 67.994,-5.693 81.414,-0.588c9.932,3.779 22.714,9.666 41.846,26.539c2.938,2.592 16.813,16.356 25.869,30.665c6.817,10.77 11.262,20.416 14.227,28.716c3.956,1.373 7.902,2.775 11.816,4.262c45.558,17.301 110.4,49.937 119.811,54.674c8.746,4.402 7.912,5.806 10.002,15.384c0.008,0.037 -5.358,6.57 -5.435,6.615c-0.755,0.449 -4.567,2.715 -10.704,2.43c-9.268,-0.432 -67.454,-3.141 -115.693,-8.03c-4.294,-0.435 -38.266,-3.879 -53.538,-6.655c-1.538,-0.28 -9.826,-1.787 -17.709,-8.258c-3.943,-3.237 -3.881,-3.313 -6.858,-7.47c-0.636,-0.889 -1.446,-1.684 -1.878,-2.688c-1.801,-4.181 -2.991,-8.607 -4.787,-12.79Z" style="fill:#111b2a;"/><path d="M1678.91,1572.85c0,0 -77.241,-169.444 -277.241,-480.555c-200,-311.111 -333.334,-458.334 -391.667,-438.889c-58.333,19.444 -122.222,194.444 -102.778,638.889c19.445,444.444 44.445,563.889 88.889,636.111c44.445,72.222 91.667,113.889 91.667,113.889l30.555,-91.667c0,0 -33.819,9.591 -77.777,-127.778c-22.223,-69.444 -71.585,-288.889 -70.515,-533.333c1.583,-361.543 20.515,-550 67.737,-558.333c47.222,-8.334 197.222,183.333 308.333,461.111c111.111,277.778 119.445,430.208 119.445,430.208l213.352,-49.653Z" style="fill:#111b2a;"/><path d="M1421.11,1653.4c0,-0 -19.444,-61.111 -66.667,-194.445c-47.222,-133.333 -208.333,-358.333 -208.333,-358.333c0,0 38.889,87.187 91.667,213.038c30.879,73.633 53.508,150.851 53.508,150.851c-0,-0 -31.286,-13.889 -59.064,-38.889c-27.778,-25 -61.111,-38.889 -61.111,-38.889c0,0 61.111,113.889 88.889,191.667c27.778,77.778 31.286,119.444 31.286,119.444c-0,0 -14.619,-27.778 -59.064,-61.111c-44.444,-33.333 -94.444,-92.143 -94.444,-92.143c-0,0 5.555,81.032 33.333,139.365c27.778,58.334 63.889,88.889 63.889,88.889l186.111,-119.444Z" style="fill:#111b2a;"/><path d="M2848.89,2231.18c-0,-0 -22.222,-22.223 -50,-77.778c-27.778,-55.556 -27.778,-47.222 -55.556,-88.889c-27.778,-41.667 -139.66,-114.168 -150,-291.667c-16.666,-286.111 61.111,-411.111 130.556,-527.777c69.444,-116.667 150,-180.556 150,-180.556c-0,-0 -100,116.667 -172.222,405.556c-42.208,168.831 -5.556,263.888 -5.556,263.888c0,0 94.444,-198.174 130.556,-189.365c36.111,8.81 25,92.143 2.777,169.921c-22.222,77.778 -63.889,161.111 -63.889,161.111c0,0 94.445,-88.889 116.667,-72.222c22.222,16.666 -2.778,69.444 -33.333,152.778c-30.556,83.333 -38.889,83.333 -30.556,136.111c8.334,52.777 30.556,138.889 30.556,138.889Z" style="fill:#111b2a;"/><path d="M3123.89,795.068c-0,-0 172.222,736.111 138.889,1022.22c-33.334,286.111 -183.334,486.111 -183.334,486.111c0,-0 -24.13,56.363 -17.014,154.861c0.126,1.732 -48.316,-118.16 3.125,-255.099c88.577,-235.791 201.629,-507.114 13.889,-1266.43c-59.022,-238.716 -119.444,-257.275 -119.444,-257.275l163.889,115.609Z" style="fill:#111b2a;"/><path d="M2975.44,3106.62c-3.288,-6.555 -3.911,-11.652 -4.042,-12.722c-2.025,-16.546 7.622,-27.032 9.261,-28.814c11.286,-12.268 25.524,-11.721 27.944,-11.628c16.657,0.64 25.471,11.836 26.969,13.739c0.851,1.081 2.047,3.034 3.819,6.061l0.033,-0.017c0.064,0.133 0.131,0.273 0.201,0.418c4.615,7.901 12.989,22.74 28.896,47.792c90.104,141.909 157.646,187.489 166.612,193.97c26.733,19.321 52.699,32.572 75.709,41.66c-53.453,-89.415 -112.592,-200.773 -154.348,-307.984c-6.229,-15.995 -45.866,-116.037 -76.487,-235.963c-4.478,-17.539 -6.905,-28.135 -7.151,-32.345c-0.157,-2.674 -1.073,-18.331 11.951,-31.274c10.181,-10.118 22.302,-11.393 24.456,-11.619c10.145,-1.067 37.008,3.526 64.092,10.583c52.512,13.682 109.288,35.912 195.207,79.625c11.128,5.661 23.705,12.187 37.551,19.596c-13.785,-31.379 -36.336,-69.086 -73.151,-106.176c-61.952,-62.416 -113.279,-94.709 -159.16,-131.393c-45.263,-36.191 -63.042,-55.702 -78.535,-77.553c-34.286,-48.355 -39.672,-93.162 -39.136,-100.181c0.122,-1.601 0.875,-11.463 11.094,-16.732c6.757,-3.484 13.034,-2.002 14.143,-1.74c2.885,0.681 46.113,11.051 115.983,37.757c7.911,3.024 31.095,12.72 67.303,14.563c18.636,0.949 35.41,-0.458 48.539,-2.388c-35.779,-22.083 -100.032,-65.281 -152.686,-119.982c-71.015,-73.777 -75.336,-109.863 -75.496,-112.571c4.71,26.273 53.634,92.124 146.025,156.496c61.89,43.121 120.083,70.244 120.611,70.527c8.856,4.745 9.237,17.921 -1.459,22.29c-5.324,2.174 -30.765,10.721 -61.982,13.841c-59.203,5.916 -93.482,-7.864 -119.226,-15.548c-13.356,-3.986 -37.55,-11.142 -62.63,-17.33c9.349,21.731 27.85,52.409 63.96,81.43c71.612,57.553 119.603,76.647 203.529,153.421c112.544,102.953 124.126,217.988 124.157,220.527c0.073,5.939 0.517,5.995 -0.932,11.75c-3.84,15.257 -15.712,21.544 -17.744,22.62c-13.905,7.364 -26.524,2.755 -28.685,1.965c-4.987,-1.821 -30.169,-16.719 -95.004,-48.139c-82.213,-39.841 -140.981,-62.381 -185.755,-74.638c24.969,85.415 56.89,172.086 78.587,223.629c2.494,5.924 50.819,125.191 148.209,287.497c2.488,4.147 18.063,30.103 31.822,51.405c2.506,3.88 2.704,3.761 4.567,7.998c1.049,2.386 7.167,16.3 -0.037,32.584c-1.055,2.384 -7.205,16.283 -24.088,21.942c-1.155,0.388 -6.914,2.318 -15.089,2.053c-29.857,-0.969 -141.043,-14.239 -246.246,-114.052c-17.663,-16.758 -34.855,-35.561 -51.227,-55.287c0.478,10.952 0.504,21.987 -0.016,33.019c-0.194,4.13 -2.423,42.249 -9.889,81.46c-7.499,39.383 -17.8,69.951 -29.554,102.153c-0.879,2.408 -1.583,3.331 -4.091,7.491c-8.6,14.265 -21.096,34.605 -32.371,53.471c-2.939,4.917 -3.137,4.782 -12.959,19.007c-8.552,12.388 -15.724,23.084 -17.986,26.436c0.093,-4.156 0.994,-44.486 1.653,-51.935c0.355,-4.018 7.307,-58.084 8.711,-69.727c0.498,-4.134 0.882,-4.045 4.379,-15.307c9.708,-31.268 21.778,-72.092 25.734,-145.494c5.056,-93.819 -41.819,-197.289 -54.403,-221.958c-0.047,-0.093 -0.095,-0.186 -0.142,-0.279Z" style="fill:#111b2a;"/><path d="M3065.68,3352.39c-6.943,81.204 -28.298,168.542 -77.741,243.628c-0.586,0.889 -31.174,47.064 -80.693,107.829c-233.86,286.968 -495.792,415.326 -501.065,417.956c13.133,-7.901 199.325,-120.364 382.712,-341.176c20.147,-24.259 82.669,-99.264 148.099,-207.156c86.286,-142.286 59.572,-338.121 38.742,-429.865c-4.222,-18.594 -7.547,-29.714 -7.585,-29.909c-0.435,-2.25 -1.018,-4.482 -1.238,-6.764c-1.758,-18.245 8.961,-29.659 10.79,-31.607c12.548,-13.362 28.199,-12.842 30.869,-12.753c18.321,0.609 28.26,12.711 29.956,14.776c6.53,7.952 33.71,60.108 43.972,82.475c55.949,121.941 75.825,211.461 90.847,287.25c11.802,59.537 28.21,161.994 56.172,277.646c6.581,27.217 35,140.109 52.696,191.045c15.554,44.772 59.316,159.705 174.887,314.128c5.777,7.718 8.693,13.49 29.617,43.708c3.651,5.273 14.215,22.921 35.179,53.817c6.859,10.108 25.202,39.138 50.951,73.551c-16.056,-10.938 -52.726,-37.599 -78.86,-59.571c-19.312,-16.236 -34.197,-29.512 -39.345,-34.108c-7.254,-6.477 -37.923,-38.113 -39.032,-39.394c-10.797,-12.458 -29.697,-36.541 -32.225,-39.762c-142.044,-180.994 -177.141,-304.115 -194.071,-357.757c-43.828,-138.867 -62.942,-229.478 -72.943,-279.122c-19.125,-94.936 -29.406,-163.946 -50.691,-238.865Z" style="fill:#111b2a;"/><path d="M2868.32,3567l-734.99,-56.978l-239.654,191.986l454.166,12.5l736.899,-33.333l-0,-69.863l-216.421,-44.312Z" style="fill:#fff;"/><path d="M862.429,3171.8l47.916,-122.917l210.417,-43.75l260.417,50l64.583,106.25l-64.583,60.417l-291.667,-64.584l-227.083,14.584Z" style="fill:#fff;"/><path d="M2037.78,3611.73l400,30.556l-455.2,-2.778l55.2,-27.778Z" style="fill:#111b2a;"/><path d="M1883.85,3734.54c-46.217,18.429 -101.77,35.126 -169.725,48.835c-220.297,44.44 -416.778,-50.71 -497.363,-100.383c-16.468,-10.15 -33.521,-18.53 -54.328,-64.476c-0.597,-1.318 -25.774,-52.395 -49.668,-173.514c-2.63,-13.33 -4.207,-22.473 -4.207,-22.475c0.083,-3.906 -0.569,-7.902 0.27,-11.718c0.384,-1.748 2.598,-11.813 12.753,-18.374c10.482,-6.772 20.864,-4.487 22.663,-4.092c11.801,2.597 17.402,11.252 18.374,12.754c4.527,6.996 3.64,7.406 5.289,15.577c18.465,91.448 46.834,180.781 68.595,202.649c1.332,1.339 2.385,2.397 20.037,12.509c39.315,22.523 134.678,70.974 253.662,87.034c106.943,14.434 180.863,-3.606 230.72,-16.439c283.564,-72.986 284.726,-193.855 387.857,-233.727c33.532,-12.963 62.408,-11.523 99.971,-9.685c137.22,6.715 512.213,43.489 730.644,80.32c65.129,10.982 88.26,18.125 95.743,20.435c25.807,7.97 31.627,14.671 44.382,30.018c8.412,10.121 37.747,44.248 19.972,82.321c-10.203,21.853 -31.387,33.429 -45.488,39.963c-11.944,5.535 -37.55,16.379 -299.97,29.31c-134.928,6.648 -368.328,14.412 -468.918,13.477c-165.42,-1.537 -377.718,-17.075 -421.265,-20.319Zm106.934,-54.74c88.024,3.599 205.721,7.33 299.93,6.828c10.467,-0.056 41.599,0.737 219.851,-7.451c222.322,-10.212 469.897,-26.351 525.425,-38.981c-0.44,-0.502 -0.892,-1.014 -1.359,-1.538c-75.324,-24.609 -500.335,-72.739 -698.882,-90.592c-82.078,-7.38 -137.627,-10.786 -151.906,-10.124c-43.746,2.027 -60.558,27.345 -109.137,74.255c-22.916,22.129 -49.569,45.204 -83.922,67.603Z" style="fill:#111b2a;"/><path d="M955.02,3217.16l24.77,8.462c-0,-0 34.722,19.444 33.333,55.556c-1.529,39.742 -25,61.111 -61.111,58.333c-44.314,-3.409 -50,-36.111 -58.333,-69.445c-8.334,-33.333 -63.889,-17.912 -63.889,-70.067c-0,-52.155 44.444,-96.599 44.444,-96.599l14.899,47.101c21.344,-9.955 81.929,-31.453 208.712,-32.518c165.278,-1.389 282.641,69.081 284.722,68.056c122.352,-60.272 -118.055,-150.834 -118.055,-150.834l126.599,11.017c-0,-0 94.44,146.009 73.679,180.354c-19.658,32.518 -27.735,50.308 -80.834,81.685c-30.555,18.055 -73.731,30.977 -95.833,31.491c-40.278,0.935 -76.389,-9.269 -77.778,-57.88c-1.141,-39.936 18.497,-53.075 44.667,-58.033c-6.722,-1.638 -12.515,-2.494 -16.889,-2.263c-24.663,1.298 -48.611,22.796 -52.778,60.296c-4.167,37.5 44.445,97.222 94.445,93.056c50,-4.167 144.444,-72.223 144.444,-72.223c0,0 -66.667,79.167 -130.555,118.056c-63.889,38.889 -104.167,50 -177.778,50c-73.611,-0 -98.611,-33.333 -145.834,-62.5c-47.222,-29.167 -33.333,-34.722 -33.333,-34.722c0,-0 94.961,-13.762 95.833,-79.167c0.886,-66.417 -44.52,-77.733 -77.547,-77.212Z" style="fill:#111b2a;"/><path d="M840.683,3200.01c-10.954,-8.647 -12.028,-44.135 16.441,-110.125c26.149,-60.614 99.49,-141.837 124.454,-169.52c25.264,-28.018 40.643,-44.474 99.573,-104.967c23.462,-24.083 38.89,-38.62 84.717,-84.772c25.703,-25.886 70.553,-67.095 96.259,-102.61c12.33,-17.036 29.378,-42.46 43.385,-90.161c9.929,-33.811 24.473,-104.353 27.984,-136.113c2.035,-18.414 15.419,-119.751 -65.849,-200.884c-42.281,-42.211 -92.241,-62.923 -119.269,-66.787c-34.976,-5.001 -69.733,-7.061 -82.48,-3.585c18.449,-7.933 78.341,-9.988 94.082,-8.739c70.996,5.633 194.712,65.78 228.571,203.909c14,57.113 8.193,104.772 6.107,127.71c-4.596,50.521 -11.503,112.802 -35.334,169.257c-14.161,33.548 -35.301,61.08 -39.035,65.943c-35.989,46.87 -82.191,85.114 -164.3,153.834c-39.867,33.367 -48.97,39.699 -98.937,81.269c-13.213,10.992 -94.287,76.557 -140.859,124.448c-26.384,27.133 -40.77,46.124 -57.868,77.86c-1.368,2.539 -30.158,53.257 -18.771,72.567c0.319,0.541 0.72,0.995 1.129,1.466Z" style="fill:#111b2a;"/><path d="M890.672,3192.65c0.165,0.55 1.396,4.684 1.174,8.6c-0.075,1.317 -0.507,8.915 -7.062,14.897c-0.509,0.464 -3.303,3.013 -7.364,4.462c-1.26,0.45 -8.488,3.029 -16.7,-0.865c-2.53,-1.199 -4.884,-2.901 -6.769,-4.971c-7.432,-8.164 -10.743,-30.625 -11.154,-33.412c-7.796,-52.879 16.908,-89.978 27.589,-105.891c31.604,-47.085 80.968,-78.08 153.706,-99.508c4.764,-1.403 50.794,-14.364 104.618,-19.136c142.267,-12.611 217.59,32.517 244.839,50.926c5.617,3.794 43.384,27.925 78.575,80.028c50.944,75.426 15.692,139.283 -9.539,165.075c-3.603,3.682 -3.557,3.851 -8.295,5.867c-1.213,0.516 -8.264,3.517 -16.478,0.495c-0.068,-0.026 -7.21,-4.405 -7.219,-4.427c-1.773,-4.598 -5.14,-8.881 -5.287,-13.807c-0.452,-15.175 3.886,-14.043 10.823,-27.56c25.911,-50.491 -9.374,-86.138 -24.854,-102.08c-34.982,-36.028 -81.955,-65.656 -162.796,-72.258c-33.793,-2.76 -65.825,-1.044 -71.54,-0.738c-20.256,1.085 -20.257,0.883 -40.471,2.597c-28.229,2.394 -109.91,9.389 -162.407,40.502c-6.364,3.772 -26.675,15.381 -46.986,42.59c-25.956,34.769 -15.208,72.06 -16.403,68.614Z" style="fill:#111b2a;"/></svg>