<?xml version="1.0" encoding="UTF-8" standalone="no"?><!DOCTYPE svg PUBLIC "-//W3C//DTD SVG 1.1//EN" "http://www.w3.org/Graphics/SVG/1.1/DTD/svg11.dtd"><svg width="100%" height="100%" viewBox="0 0 1024 1536" version="1.1" xmlns="http://www.w3.org/2000/svg" xmlns:xlink="http://www.w3.org/1999/xlink" xml:space="preserve" xmlns:serif="http://www.serif.com/" style="fill-rule:evenodd;clip-rule:evenodd;stroke-linejoin:round;stroke-miterlimit:2;"><g><path d="M381.66,244.93c10.26,0.87 20.14,-1.43 29.63,-6.9c15.18,-8.74 28.5,-17.1 39.96,-25.09c10.33,-7.2 15.07,-10.18 24.84,-16.4c13.09,-8.34 27.44,-15.37 40.97,-20.45c18.88,-7.1 38.27,-10.34 59.01,-9.27c23.6,1.21 45.12,11.25 51.98,35.07c3.51,12.2 3.51,23.79 0,34.76c-4.28,13.38 -15.87,24.78 -28.22,30.43c-1.38,0.63 -3.98,0.82 -7.79,0.56c-10.82,-0.73 -18,-1.17 -21.54,-1.32c-7.42,-0.29 -16.04,-0.1 -25.87,0.58c-4.21,0.3 -13.25,1.53 -27.11,3.68c-3.7,0.57 -11.27,2.35 -22.7,5.33c-7.31,1.9 -14.69,4.3 -22.16,7.19c-12.32,4.78 -21.89,8.77 -28.72,11.96c-6.69,3.14 -15.47,7.72 -26.33,13.73c-5.53,3.06 -14.29,7.66 -26.3,13.81c-13.15,6.73 -26.6,11.65 -40.37,14.76c-3.71,0.84 -9.03,1.46 -15.94,1.85c-17.02,0.97 -36.57,-3.95 -45.22,-19.47c-1.51,-2.71 -2.56,-6.23 -3.16,-10.57c-2.27,-16.39 6.13,-32.22 18.03,-42.96c6.8,-6.13 14.24,-11.27 22.31,-15.42c12.5,-6.41 25.78,-10.72 39.85,-12.93c9.75,-1.53 18.62,-2.59 26.63,-3.17c1.18,-0.09 2.8,-0.76 4.87,-2.02l-0.28,1.34l-5.93,3.5l-11.23,6.37c-0.2,0.11 -0.26,0.36 -0.15,0.56c0.04,0.08 0.11,0.13 0.19,0.17l0.75,0.32Zm52.21,-39.82c-1,1.57 -3.72,3.74 -5.43,1.82c-4.74,-5.32 -9.18,-11.25 -13.32,-17.78c-2.06,-3.25 -3.63,-6.2 -3.03,-10.18c0.05,-0.38 0.18,-0.74 0.37,-1.07c1.87,-3.2 4.43,-5.1 7.67,-5.7c3.91,-0.72 6.97,4.71 8.36,7.83c3.36,7.53 5.28,15.39 5.77,23.6c0.03,0.52 -0.11,1.04 -0.39,1.48Z" style="fill:#0f828c;stroke:#0f828c;stroke-width:4px;"/><path d="M414.05,329.26c-0.45,-0.34 -0.29,-0.72 0.47,-1.15c34.45,-21.23 71.03,-35.34 109.74,-42.33c10.64,-1.92 23.17,-3.13 37.58,-3.63c11.04,-0.39 20.86,0.61 31.55,1.95c4.37,0.55 8.18,2.95 7.74,7.83c-0.04,0.45 -0.23,0.87 -0.55,1.19c-2.06,2.04 -4.34,3.17 -6.84,3.4c-2.46,0.22 -6.63,0.24 -12.51,0.07c-15.74,-0.48 -30.11,-0.57 -46.59,1.36c-18.25,2.14 -35.84,5.18 -53.33,9.6c-4.31,1.09 -9.27,2.3 -14.88,3.63c-2.82,0.67 -8.68,2.48 -17.59,5.45c-0.51,0.17 -9.74,3.46 -27.67,9.89c-2.39,0.85 -4.76,1.77 -7.12,2.74Z" style="fill:#0f828c;stroke:#0f828c;stroke-width:4px;"/></g><path d="M791.14,596.28c2.06,-6.73 0.37,-12.42 -5.07,-17.05c-0.27,-0.23 -0.3,-0.63 -0.07,-0.9c0.08,-0.09 0.19,-0.16 0.31,-0.2c6.58,-1.81 13.22,-3.05 19.92,-3.7c3.04,-0.3 5.19,-0.08 6.44,0.66c0.4,0.23 0.74,0.54 1.01,0.92c0.41,0.57 0.9,2.03 1.47,4.36c1.49,6.08 -0.67,10.08 -6.49,12.01c-5.3,1.75 -11.05,3.15 -17.26,4.2c-0.12,0.02 -0.24,-0.06 -0.27,-0.18l0,-0.12l0.01,0Zm2.783,-1.363c0.052,0.001 0.105,-0.002 0.157,-0.007c4.86,-0.93 9.9,-2.25 15.13,-3.98c2.78,-0.91 4.48,-2.72 5.11,-5.42c0.152,-0.662 0.218,-1.319 0.217,-1.967c-0,0.645 -0.066,1.298 -0.217,1.957c-0.63,2.7 -2.33,4.51 -5.11,5.42c-5.23,1.73 -10.27,3.05 -15.13,3.98c-0.053,0.01 -0.105,0.016 -0.157,0.017Zm-5.503,-15.987c-0.28,0.09 -0.44,0.4 -0.35,0.68c0.03,0.08 0.07,0.16 0.14,0.22c3.93,3.81 5.51,8.48 4.76,14.01c-0.067,0.499 0.262,0.961 0.749,1.059c-0.363,-0.073 -0.663,-0.362 -0.739,-0.749c-0.02,-0.1 -0.02,-0.2 0,-0.31c0.75,-5.53 -0.83,-10.2 -4.76,-14.01c-0.21,-0.21 -0.22,-0.55 0,-0.76c0.055,-0.055 0.127,-0.102 0.2,-0.132l0,-0.008Z" style="fill:#cdb69d;stroke:#cdb69d;stroke-width:4px;"/><g><g><path d="M424.96,620.63l-1.63,-2.33c-15.86,-18.4 -18.85,-44.85 -2.15,-63.87c4.75,-5.42 9.62,-9.48 14.59,-12.17c6.12,-3.31 9.95,-5.45 11.48,-6.41c0.64,0.08 1.83,-0.58 3.56,-1.97c24.05,-6.03 43.29,-18.82 57.74,-38.35c11.81,-15.96 19.4,-33.6 22.77,-52.92c3.41,-19.5 3.91,-40.32 1.45,-59.28c-2.78,-21.46 -10.53,-41.1 -24.23,-57.84c-2.39,-2.91 -5.86,-5.56 -8.78,-8.29l0.02,-0.71c13.49,-2.75 22.71,-4.44 27.64,-5.09c12.61,-1.66 25.33,-2.41 38.18,-2.25c1.43,0.02 2.5,0.13 3.22,0.32c0.32,0.09 0.6,0.3 0.77,0.58c5.73,9.11 7.62,19.96 7.69,30.71c0.09,13.49 -0.32,26.71 -1.21,39.66c-0.75,10.93 -1.14,17.85 -1.17,20.76c-0.15,19.42 -0.69,39.7 8.62,57.28c4.93,9.31 11.68,17.34 20.23,24.07c6,4.71 12.27,8.94 18.8,12.67c10.35,5.91 20.76,11.39 29.09,18.86c4.61,4.13 8.42,8.16 11.44,12.11c12.14,15.88 14.62,36.77 9.13,55.94c-4.55,15.93 -13.44,27.98 -26.67,36.16c-9.87,6.1 -25.65,5.13 -36.32,1.05c-1.46,-0.56 -2.57,-1.19 -3.33,-1.88c-0.9,-0.83 -1.22,-2.12 -0.83,-3.28c2.8,-8.3 4.73,-16.8 5.79,-25.51c0.11,-0.92 0.76,-1.68 1.64,-1.96c17.83,-5.55 30.61,-14.15 38.43,-31.22c3.05,-6.66 3.93,-13.42 2.62,-20.28c-2.3,-12.07 -13.82,-21.05 -25.11,-24.31c-16.92,-4.89 -35.19,-4.48 -52.18,-1.39c-3.63,0.66 -8.22,2.17 -13.75,4.53c-17.93,7.66 -27.29,25.69 -16.43,43.45c10.19,16.66 30.62,29.66 50.36,29.75c0.36,0 0.66,0.3 0.66,0.66l0,0.01c-0.17,19.37 -13.71,32.41 -32.18,35.49c-14.04,2.33 -28.39,1.49 -43.06,-2.52c-24.46,-6.69 -45.73,-22.8 -61,-43.22c-0.73,-0.97 -0.97,-1.99 -0.7,-3.05c0.09,-0.36 0.29,-0.68 0.57,-0.92c1.87,-1.63 3.31,-2.98 4.31,-4.04c3.05,-3.22 -0.72,-5.87 -3.91,-6.98c-7.13,-2.49 -13.78,-1.96 -19.93,1.59c-6.03,3.48 -11.2,11.8 -10.26,18.98c0.5,3.79 5.02,3.85 7.62,2.3c3.28,-1.96 5.37,-3.16 6.26,-3.6c0.82,-0.42 1.82,-0.17 2.37,0.57l21.18,28.64c0.15,0.2 0.1,0.48 -0.1,0.63c-0.06,0.04 -0.13,0.07 -0.21,0.08c-10.45,1.15 -20.22,2.5 -30.57,5.34c-4.19,1.15 -8.37,2.3 -12.52,3.45Z" style="fill:#fbf0d5;fill-rule:nonzero;stroke:#fbf0d5;stroke-width:4px;"/><path d="M676.64,629.28c0.401,1.022 0.781,2.042 1.14,3.061c4.961,14.075 5.931,27.856 2.9,41.349c-1.86,8.27 -3.07,14.19 -3.63,17.74c-1.34,3.44 -2.27,7.49 -2.79,12.16c-0.07,0.59 0.35,1.12 0.93,1.19c0.75,0.1 1.59,-0.02 2.5,-0.37c5.07,-1.92 10.16,-4.82 15.28,-8.71c2.43,-1.85 5.15,-4.02 8.18,-6.51c0.42,-0.35 1.05,-0.28 1.39,0.14c0.12,0.15 0.2,0.33 0.22,0.52c1.05,10 3.44,19.91 7.17,29.73c6.47,17.04 13.08,31.04 23.52,43.91c3.56,4.38 8.64,8.99 13.42,13.89c0.22,0.23 0.22,0.59 0,0.8c-0.09,0.09 -0.21,0.14 -0.34,0.16c-15.31,1.61 -29.34,-1.43 -42.08,-9.12c-0.06,-0.03 -0.13,-0 -0.16,0.05c-0.01,0.03 -0.02,0.06 0,0.09c2.84,7.53 5.98,14.26 7.72,21.69c5.49,23.36 2.95,45.8 -7.63,67.33c-0.97,1.99 -1.81,3.47 -2.52,4.44c-0.13,0.18 -0.38,0.21 -0.56,0.08c-0.1,-0.07 -0.16,-0.19 -0.16,-0.31c-0.31,-15.27 -4.93,-28.89 -13.84,-40.88c-2.96,-3.99 -5.82,-6.5 -9.32,-9.49c-0.24,-0.21 -0.61,-0.19 -0.82,0.05c-0.14,0.16 -0.18,0.38 -0.11,0.58c3.29,9.19 5.19,18.69 5.69,28.5c0.38,7.51 0.32,14.94 -0.18,22.29c-1.48,21.67 -10.07,42.55 -25.07,58.58c-0.53,0.57 -1.05,1.02 -1.56,1.34c-0.19,0.11 -0.44,0.05 -0.55,-0.14c-0.05,-0.08 -0.07,-0.18 -0.05,-0.27c3.18,-16.68 3.76,-33.26 0.25,-49.74c-0.31,-1.45 -0.48,-3.46 -1.22,-5.09c-0.1,-0.21 -0.35,-0.3 -0.56,-0.21c-0.14,0.06 -0.23,0.19 -0.24,0.34c-0.73,6.96 -2.19,14.84 -4.39,23.65c-7.19,28.78 -22.24,55.2 -42.18,77.14c-2.86,3.15 -7.4,7.78 -13.61,13.89c-0.19,0.19 -0.27,0.36 -0.26,0.51c0.03,0.25 0.25,0.44 0.51,0.41l0.05,-0c5.94,-1.29 11.88,-3.48 17.81,-6.58c13.47,-7.03 24.88,-14.71 34.24,-23.02c10.03,-8.91 18.83,-18.18 26.41,-27.8c3.94,-5 8.6,-11.37 13.97,-19.12c0.13,-0.12 0.21,-0.18 0.25,-0.18c0.25,-0 0.46,0.2 0.47,0.45l0,0.02c-0.71,25.83 -6.85,50.28 -18.44,73.35c-6.87,13.67 -18.454,29.455 -26.794,40.085c-0.03,-0.05 5.994,-22.895 5.774,-31.545c-0.02,-0.18 -0.18,-0.32 -0.36,-0.3c-0.13,0.01 -0.24,0.1 -0.28,0.22c-0.72,2.59 -1.54,4.9 -2.46,6.94c-4.8,10.69 -11.64,20.93 -20.53,30.74c-20.15,22.23 -44.69,37.36 -73.6,45.38c-0.6,0.17 -1.36,0.25 -2.27,0.25c-0.19,-0 -0.34,-0.15 -0.34,-0.34c0,-0.06 0.01,-0.11 0.04,-0.16c6.86,-13.11 11.34,-28.15 11.54,-43.19c0,-0.14 -0.11,-0.26 -0.26,-0.26c-0.09,-0 -0.18,0.05 -0.23,0.12c-1.28,2.1 -2.01,4.01 -3.54,6.23c-9.2,13.26 -20.62,24.15 -34.25,32.68c-8.02,5.02 -15.77,9.26 -24.14,12.14c-3.38,1.17 -6,1.85 -7.87,2.04c-0.27,0.03 -0.51,-0.16 -0.54,-0.43c0,-0.06 0,-0.11 0.01,-0.17c0.99,-4.12 1.68,-12.94 2.08,-26.45c0.53,-17.53 -2.53,-34.31 -9.18,-50.34c-2.88,-6.96 -6.13,-13.71 -9.75,-20.24c-0.82,-1.49 -1.3,-3.59 -1.45,-6.31c-0.66,-12.16 -1.58,-22.4 -2.75,-30.73c-3.6,-25.66 -13.43,-52.4 -28.78,-73.24c-9.67,-13.12 -14.92,-20.27 -15.74,-21.44c-5.85,-8.35 -10.42,-17.47 -13.7,-27.36c-0.45,-1.35 -1.7,-6.12 -3.75,-14.3c-0.03,-0.13 -0.05,-0.25 -0.06,-0.38l-0.36,-5.57c-0.01,-0.23 -0.21,-0.4 -0.44,-0.38c-0.17,0.01 -0.32,0.13 -0.37,0.29c-3.09,9.91 -4.8,20.64 -5.12,32.19c-0.01,0.4 -0.34,0.71 -0.74,0.7c-0.06,-0 -0.13,-0.01 -0.19,-0.03c-0.12,-0.04 -0.32,-0.26 -0.59,-0.65c-13.32,-19.12 -18.03,-42.03 -19.9,-64.64c-0.71,-8.63 -1.27,-14.41 -1.69,-17.35c-2.57,-18.19 -6.8,-35.02 -12.7,-50.5c-1.03,-2.71 -1.91,-5.71 -2.64,-8.98c-0.03,-0.15 0.06,-0.3 0.21,-0.33c0.09,-0.02 0.19,-0 0.25,0.07c10.81,10.4 22.52,18.65 36.96,24.99c5.79,2.55 11.83,4.03 18.1,4.46c0.94,0.07 1.75,-0.64 1.81,-1.59l0,-0.29c-0.09,-0.95 -0.45,-2.03 -1.06,-3.24c-0.72,-2.09 -1.54,-4.16 -2.47,-6.2c-1.29,-2.83 -2.69,-8.25 -4.21,-16.26c-3.01,-15.87 1.32,-31.84 14.17,-42.17c2.33,-1.87 5.37,-3.44 8.14,-5.01c0.62,-0.71 1.01,-1.35 1.16,-1.91c1.96,0.35 3.79,0.54 5.48,0.57c20.99,0.33 41.94,-1.13 62.86,-4.4c0.79,-0.12 1.58,0.23 2.02,0.9c3.63,5.57 6.52,10.17 9.51,13.76c13.91,16.67 31.84,26.62 53.81,29.85c5.19,0.77 12.04,0.74 20.55,-0.07c8.83,-0.84 16.74,-3.96 23.75,-9.36c6.4,-4.94 10.48,-10.14 13.55,-17.89c2.23,-5.65 3.82,-11.79 4.76,-18.43c0.31,-2.25 1.61,-3.71 3.9,-4.4c12.63,-3.79 25.65,-6.91 39.06,-9.36c1.21,-0.22 2.5,-0.32 3.87,-0.29l-0.01,-0.01Zm-35.24,21.91c-0.25,0.08 -0.58,0.41 -0.98,0.98c-1.13,1.65 -2.03,4 -2.7,7.05c-1.13,5.15 -2.37,9.72 -3.74,13.72c-5.25,15.37 -19.72,28.2 -34.93,34.12c-9.21,3.58 -18.81,5.36 -28.82,5.35c-22.84,-0.03 -43.29,-6.73 -61.34,-20.1c-1.83,-1.35 -6.97,-5.32 -15.42,-11.91c-4.83,-3.76 -10.63,-6.37 -17.42,-7.82c-4,-0.86 -11.12,-1.8 -12.24,3.24c-0.08,0.39 -0.06,0.78 0.08,1.14c0.88,2.25 2.22,3.9 4.02,4.95c4.7,2.76 9.45,6.29 14.25,10.6c22,19.74 48.6,34.49 78.83,35.35c6.91,0.2 13.83,-0.09 20.74,-0.86c26.48,-2.97 55.32,-19.43 62.45,-46.54c2.29,-8.68 3.2,-19.58 -0.49,-27.99c-0.44,-0.99 -1.42,-1.54 -2.29,-1.28Zm-125.75,280.75c-17.35,-15.92 -31.9,-34.15 -43.66,-54.68c-1.21,-2.12 -2.04,-4.27 -2.49,-6.46c-0.05,-0.25 -0.3,-0.42 -0.55,-0.37l-0.02,-0c-0.26,0.05 -0.43,0.28 -0.41,0.54c0.46,4.45 0.83,7.78 1.1,10c1.63,13.2 6.06,25.03 13.31,35.49c7.14,10.3 16.44,18.24 27.17,26.94c9.59,7.78 17.69,16.76 24.3,26.94c0.6,0.92 2.92,4.35 6.97,10.29c0.19,0.28 0.37,0.44 0.55,0.47c0.3,0.06 0.6,-0.15 0.65,-0.46l0,-0.1c0.4,-17.88 -5.17,-32.82 -14.43,-48.91c-2.72,-4.73 -7.07,-12.06 -13.06,-22.01c-0.03,-0.05 -0.05,-0.09 -0.07,-0.14l-2.06,-4.55c-0.09,-0.23 -0.35,-0.34 -0.57,-0.25c-0.2,0.08 -0.31,0.29 -0.27,0.5c0.37,2.35 0.72,5.56 1.05,9.61c0.44,5.49 1.8,11.69 3.09,16.78c0.06,0.2 -0.06,0.4 -0.25,0.46c-0.13,0.04 -0.26,-0 -0.36,-0.09l0.01,-0Z" style="fill:#fbf0d5;fill-rule:nonzero;stroke:#fbf0d5;stroke-width:4px;"/></g><path d="M708.37,1167.17c1.25,5.11 2.49,10.43 3.72,15.94c3.55,15.89 9.75,29.37 24.84,37.19c3.17,1.65 9.3,3.51 12.72,5.4c7.11,3.93 12.16,9.92 15.15,17.99c3.22,8.68 6.91,30.03 -8.73,29.73c-0.51,0 -0.91,-0.43 -0.91,-0.93l0,-0.1c0.28,-2.51 0.43,-5.04 0.44,-7.61c0.05,-11.12 -5.26,-25.82 -16.82,-29.76c-1.12,-0.38 -2.33,-0.01 -2.98,0.9c-1.18,1.66 -0.73,3.07 0.56,4.87c6.94,9.73 7.64,20.37 6.39,31.68c-0.12,1.09 -0.88,2 -1.92,2.31c-0.66,0.2 -1.69,0.37 -3.09,0.51c-6.75,0.67 -13.15,1.05 -19.18,1.13c-0.44,0.01 -0.81,-0.34 -0.82,-0.78c0,-0.05 0,-0.1 0.01,-0.15c1.91,-11.98 0.49,-22.86 -7.43,-31.73c-2.89,-3.23 -6.33,-5.1 -10.3,-5.61c-0.54,-0.07 -1.03,0.3 -1.1,0.84c-0.02,0.18 0,0.36 0.07,0.52c1.96,4.61 3.1,7.27 3.42,7.98c3.76,8.43 4.49,17.94 3.24,26.99c-0.13,0.95 -0.89,1.7 -1.85,1.82c-7.17,0.88 -14.53,1 -22.06,0.35c-9.08,-0.77 -16.22,-4.83 -21.43,-12.18c-4.53,-6.41 -8.29,-14.15 -11.27,-23.24c-3.93,-11.97 -8.4,-27.42 -13.4,-46.35c-0.39,-1.49 -0.77,-3.21 -1.13,-5.16c1.69,-1.53 2.9,-3.03 3.61,-4.49c14,-15.65 22.63,-34.18 25.9,-55.59c0.05,-0.03 0.14,-0.05 0.29,-0.05c0.21,0 0.4,0.11 0.5,0.28c6.2,10.32 13.69,19.18 22.48,26.58c5.89,4.95 12.92,8.53 21.07,10.72l0.01,-0Z" style="fill:#fbf0d5;fill-rule:nonzero;stroke:#fbf0d5;stroke-width:4px;"/><path d="M463.37,1164.95c-0.95,15.79 -0.2,31.46 2.23,47.02c0.98,6.27 2.81,12.16 5.49,17.67c2.95,6.07 6.97,10.21 11.66,16.87c5.2,7.39 7.86,15.5 7.97,24.34c0.11,8.21 -3.67,13.95 -11.34,17.24c-3.13,1.34 -7.21,2.6 -10.7,2.67c-0.49,0.01 -0.9,-0.38 -0.91,-0.87l0,-0.14c0.31,-2.46 0.57,-4.79 0.78,-6.99c1.29,-14.07 -2.01,-26.77 -13.53,-34.76c-1.41,-0.98 -3.14,-1.71 -5.19,-2.2c-0.31,-0.07 -0.61,0.12 -0.68,0.43l0,0.03c-0.57,3.51 2.56,8.93 3.55,11.84c3.06,9.05 3.89,18.02 2.5,26.89c-0.46,2.94 -1.37,6.4 -4.52,6.58c-0.91,0.05 -1.39,0.08 -1.42,0.09c-9.13,1.02 -17.59,1.15 -25.36,0.39c-0.53,-0.05 -0.92,-0.53 -0.87,-1.06l0,-0.06c2.03,-12.06 0.71,-25.08 -6.59,-34.99c-1.72,-2.33 -3.78,-3.82 -6.19,-4.48c-0.81,-0.23 -1.66,0.25 -1.88,1.07c-0.06,0.23 -0.07,0.48 -0.03,0.72c1.13,5.57 1.89,9.67 2.28,12.3c0.98,6.73 1.1,13.8 0.37,21.2c-0.13,1.33 -0.48,2.64 -1.03,3.92c-0.33,0.76 -1.08,1.25 -1.9,1.24c-9.33,-0.13 -19.56,-1.66 -26.15,-7.66c-6.89,-6.28 -7.96,-16.55 -7.99,-25.79c-0.03,-10.47 -0.68,-16.19 -1.21,-28.96c-0.38,-8.93 -1.66,-21.84 -3.85,-38.73l4.24,4.06c6.25,6.53 12.9,10.99 19.96,13.38c8.42,2.84 17.49,2.65 27.22,-0.56c17.22,-5.7 29.86,-18.01 38.52,-33.6c1.01,-1.81 1.87,-3.89 2.58,-6.23l1.24,-3.94c0.05,-0.16 0.23,-0.25 0.39,-0.19c0.08,0.03 0.15,0.09 0.19,0.17c0.11,0.25 0.16,0.61 0.16,1.09l0.01,0Z" style="fill:#fbf0d5;fill-rule:nonzero;stroke:#fbf0d5;stroke-width:4px;"/><path d="M519.19,1187.44c5.27,5.13 10.55,8.72 15.84,10.79c6.24,2.43 10.45,4.13 12.64,5.08c8.37,3.67 12.85,13.66 13.3,22.45c0.26,5.16 1.07,19.17 -5.94,18.29c-0.64,-0.08 -1.09,-0.67 -1.01,-1.31l0,-0.01c1.46,-10.64 0.71,-22.01 -5.91,-30.84c-1.85,-2.46 -5.08,-5.37 -8.37,-5.05c-0.33,0.04 -0.6,0.26 -0.69,0.58c-0.46,1.61 -0.55,2.71 -0.26,3.3c5,10.25 6.6,21.2 4.79,32.85c-0.13,0.79 -0.81,1.38 -1.61,1.38l-14.4,0c-0.4,0 -0.73,-0.33 -0.73,-0.73l0,-0.02c0.31,-12.52 -1.56,-24.46 -10.14,-32.91c-1.69,-1.66 -7.27,-4.18 -7.54,0.56c-0.03,0.57 0.25,1.41 0.86,2.5c5.02,9.07 6.97,19.05 5.84,29.94c-0.04,0.44 -0.42,0.76 -0.86,0.73l-10.88,-0.8c-1.05,-0.08 -2.01,-0.62 -2.62,-1.48c-3.51,-4.94 -7.32,-9.7 -11.44,-14.27c-2.37,-2.62 -4.03,-5.87 -4.99,-9.76c-1.5,-6.11 -2.62,-12.93 -3.35,-20.46c-0.08,-0.85 -0.06,-1.7 0.06,-2.54c0.11,-0.05 0.19,-0.12 0.23,-0.19c0.63,-0.04 1.05,-0.13 1.25,-0.26c2.97,-1.99 6.19,-4.3 9.22,-5.7c8.33,-3.87 17.24,-4.57 26.71,-2.12Zm-4.86,56.33c0.39,0.03 0.73,-0.26 0.76,-0.65l0,-0.02c-0.02,0.39 -0.35,0.69 -0.74,0.67l-0.02,0Zm13.74,-1.28c-0.04,0.62 0.43,1.15 1.04,1.19l0.07,0c-0.61,0 -1.11,-0.5 -1.11,-1.12l0,-0.07Zm27.614,-0.295c0.05,0.278 0.267,0.505 0.556,0.545c0.137,0.023 0.274,-0.001 0.398,-0.066c-0.271,0.14 -0.617,0.069 -0.818,-0.184c-0.066,-0.085 -0.115,-0.188 -0.136,-0.295Z" style="fill:#cdb69d;stroke:#cdb69d;stroke-width:4px;"/><path d="M213.65,1200.11c2.03,3.38 4.1,5.98 6.19,7.8c0.58,0.5 3.92,2.91 10.03,7.23c9.28,6.56 13.97,21.12 13.18,32.24c-0.79,11.29 -11.56,14.31 -21.01,15.71c-0.58,0.08 -1.12,-0.32 -1.2,-0.9c-0.01,-0.07 -0.01,-0.14 0,-0.21c0.8,-13.93 0.28,-25.48 -8.73,-36.54c-1.99,-2.44 -5.51,-5.5 -8.77,-5.28c-0.77,0.05 -1.36,0.69 -1.35,1.45c0.02,1.61 0.48,3.21 1.39,4.79c4.03,7.05 6.03,14.45 6,22.2c-0.02,4.56 0.35,12.13 -2.35,15.4c-0.27,0.32 -0.62,0.56 -1.01,0.68c-0.39,0.12 -2.06,0.23 -5.01,0.32c-6.74,0.21 -13.04,0.08 -18.89,-0.39c-0.67,-0.05 -1.17,-0.64 -1.12,-1.31l0,-0.04c1.26,-11.19 0.77,-20.49 -4.78,-30.67c-1.75,-3.21 -4.24,-5.44 -7.49,-6.67c-1.04,-0.39 -2.2,0.13 -2.59,1.17c-0.06,0.16 -0.1,0.34 -0.12,0.51c-0.19,1.95 0.54,5.07 1.18,6.96c3.05,9.02 3.91,19.25 1.2,28.35c-0.16,0.51 -0.62,0.87 -1.16,0.88c-14.01,0.3 -30.3,-2.57 -32.3,-19.77c-1.11,-9.55 -0.7,-19.36 1.22,-29.45c6.66,-2.57 12.38,-6.92 17.98,-10.18c14.71,-8.56 32.89,-11.98 49.44,-7.72c2.51,0.65 5.87,1.79 10.08,3.44l-0.01,-0Z" style="fill:#fbf0d5;fill-rule:nonzero;stroke:#fbf0d5;stroke-width:4px;"/></g><g><g><path d="M638.04,534.25c-0.63,3.3 -6.31,3.17 -8.78,2.78c-12.57,-1.99 -23.57,-2.84 -33,-2.57c-4.89,0.15 -9.79,1.09 -14.69,2.84c-4.45,1.59 -7.57,1.74 -12.41,2.96c-3.98,1 -7.56,0.72 -8.95,-3.43c-1.37,-4.11 2.86,-8.31 6.22,-9.81c6.51,-2.89 13.28,-4.54 20.33,-4.94c8.86,-0.5 17.52,-0.42 25.98,0.24c5.33,0.41 26.88,3.59 25.3,11.93Z" style="fill:#463d38;fill-rule:nonzero;stroke:#463d38;stroke-width:2px;"/><path d="M492.51,402.13c-0.39,0.49 -1.11,0.58 -1.61,0.2c-9.67,-7.43 -19.22,-13.23 -31.57,-13.4c-5.52,-0.08 -10.88,0.28 -16.07,1.08c-1.59,0.24 -2.71,-0.2 -3.34,-1.31c-1.85,-3.25 -2,-6.95 -0.47,-11.1c4.66,-12.62 13.44,-19.89 26.35,-21.81c7.37,-1.1 16.03,1.33 21.82,6.34c8.17,7.07 11.56,16.22 10.15,27.46c-0.59,4.71 -2.34,8.89 -5.26,12.54Z" style="fill:#ca7f35;fill-rule:nonzero;stroke:#ca7f35;stroke-width:4px;"/><path d="M655,384.82c-0.25,0.09 -0.67,0.13 -1.25,0.12c-3.76,-0.05 -7.68,0.04 -11.75,0.25c-7.42,0.4 -16.72,4.16 -23.13,9.35c-2.24,1.81 -4.69,3.85 -7.36,6.13c-0.41,0.35 -1.02,0.34 -1.42,-0.03c-6.68,-6.19 -7.15,-17.29 -5.39,-25.63c0.73,-3.41 2.33,-6.76 4.81,-10.06c4.89,-6.51 11.65,-9.54 20.27,-9.08c5.9,0.31 11.16,2.21 15.79,5.7c5.96,4.49 10.26,13.31 11.1,20.61c0.13,1.16 -0.56,2.26 -1.67,2.64Z" style="fill:#ca7f35;fill-rule:nonzero;stroke:#ca7f35;stroke-width:4px;"/><path d="M903.43,474.84c3.35,18.06 2.89,35.8 -1.38,53.23c-2.17,8.88 -6.11,17.71 -9.86,24.88c-1.84,3.51 -4.88,7.71 -9.13,12.6c-8.69,10 -19.66,16.28 -32.91,18.83c-2.49,-0.23 -5.14,-0.39 -7.93,-0.49c-1.96,-0.08 -3.65,-0.48 -5.06,-1.21c-0.21,-0.11 -0.29,-0.36 -0.18,-0.57c0.06,-0.12 0.18,-0.21 0.32,-0.22c1.83,-0.24 3.89,-0.79 6.18,-1.65c5.27,-1.97 10.13,-4.12 14.56,-6.46c8.64,-4.56 15.66,-12.96 20.74,-21.27c2.15,-3.5 3.66,-9.04 4.52,-12.58c0.04,-0.14 -0.03,-0.29 -0.16,-0.36c-0.11,-0.05 -0.21,-0.07 -0.32,-0.05c-0.03,-0 -0.05,0.02 -0.06,0.04l-4.91,8.03l0.16,-0.79c0.04,-0.17 -0.06,-0.33 -0.23,-0.37c-0.11,-0.03 -0.24,0.01 -0.31,0.1c-4.95,5.81 -10.78,10.89 -17.49,15.23c-8.31,5.37 -17.47,8.86 -27.49,10.49c-0.4,0.07 -0.77,-0.2 -0.84,-0.6c-0.03,-0.18 -0,-0.36 0.1,-0.51c0.35,-0.57 0.61,-1.17 0.78,-1.81c0.1,-0.38 0.25,-0.74 0.46,-1.06c7.96,-12.63 13.54,-20.81 16.75,-24.56c4.16,-4.86 7.62,-9.19 10.37,-12.98c0.14,-0.2 0.02,-0.44 -0.35,-0.73l0.35,-0.63c0.14,-0.26 0.04,-0.58 -0.22,-0.72c-0.17,-0.09 -0.38,-0.08 -0.54,0.03c-3.94,2.69 -7.98,5.29 -12.11,7.79c-0.62,0.38 -2.87,2.13 -6.74,5.26c-2.09,1.69 -4.13,3.66 -6.13,5.93c-3.81,4.33 -7.03,8.27 -9.66,11.8c-0.94,1.27 -2.23,2.49 -3.86,3.67c-0.25,0.18 -0.59,0.14 -0.79,-0.1c-0.37,-0.45 -0.61,-1.08 -0.73,-1.89c-0.79,-2.18 -1.13,-4.48 -1.03,-6.9c0.69,-16.72 10.35,-31.64 23.46,-41.51c5.51,-4.15 9.35,-6.73 11.51,-7.75c7.96,-3.77 15.89,-7.57 23.78,-11.4c7.7,-3.73 15.25,-9.41 22.66,-17.04c0.81,-0.55 1.63,-1.24 2.48,-2.07c0.29,-0.29 0.53,-0.39 0.73,-0.31c0.21,0.09 0.38,0.31 0.51,0.68Z" style="fill:#a35627;fill-rule:nonzero;stroke:#a35627;stroke-width:4px;"/><path d="M735.51,514.38c3.32,4.33 6.46,9.48 9.41,15.44c4.11,8.31 7.15,16.42 9.1,24.32l-0.76,0.59c-1.89,-2.13 -3.79,-4.24 -5.69,-6.31c-4.95,-5.42 -10.72,-9.21 -17.3,-11.38c-0.44,-0.15 -0.93,0.09 -1.08,0.53c-0.06,0.18 -0.06,0.39 0,0.57c1.32,3.67 2.12,7.51 3.92,11.51c2.91,6.48 5.54,11.62 6.76,17.5c0.13,0.64 -0.28,1.26 -0.92,1.39l-0.03,0l-49.68,8.41c-0.16,0.03 -0.31,-0.07 -0.34,-0.22l0,-0.1c2.21,-17.23 -0.46,-36.53 -12.59,-49.97c-0.17,-0.21 -0.2,-0.38 -0.1,-0.52c0.03,-0.04 0.07,-0.06 0.11,-0.07c3.845,-0.773 7.546,-1.677 11.017,-2.909c7.396,-2.624 13.745,-6.734 18.203,-14.221c1.93,-3.24 3.05,-8.06 4.49,-11.44c1.05,-2.45 2.96,-1.02 4.7,-0.09c7.96,4.29 14.88,9.95 20.77,16.96l0.01,0.01Z" style="fill:#ca7f35;fill-rule:nonzero;stroke:#ca7f35;stroke-width:4px;"/><path d="M455.21,530.68c-1.73,1.39 -17.27,8.91 -22.09,12.18c-7.12,4.82 -12.62,10.23 -16.51,16.23c-4.3,6.65 -6.74,13.18 -7.31,19.58c-1.21,13.53 2.29,25.74 10.51,36.65c0.05,0.07 0.49,0.71 1.3,1.92c0.85,1.27 6.85,7.424 6.85,7.424c-3.59,1.33 -10.23,-0.644 -13.91,2.126c-7.09,5.34 -4.31,14.28 3.01,17.41c4.83,2.06 24.46,0.2 24.46,0.2c0,-0 -10.5,5.17 -11.32,5.77c-1.41,1.03 -2.89,2.06 -4.42,3.1c-10.35,7.01 -16.36,17.89 -17.4,30.34c-1,11.94 5.52,37.54 5.05,37.79c-3.87,-1.45 -6.08,-4.77 -9.63,-6.95c-13.81,-8.47 -25,-19.5 -33.59,-33.11c-10.6,-16.78 -14.76,-35.04 -12.49,-54.77c0.05,-0.4 -0.23,-0.77 -0.63,-0.82c-0.19,-0.02 -0.38,0.03 -0.54,0.15c-1.27,0.96 -2.58,2.29 -3.91,3.98c-2.67,3.38 -5,7.2 -7.01,11.45c-4.49,9.47 -7.48,19.08 -8.97,28.81c-0.05,0.32 -0.35,0.54 -0.67,0.49c-0.17,-0.03 -0.33,-0.13 -0.42,-0.28c-4.71,-8 -7.76,-16.62 -9.15,-25.86c-2.6,-17.37 -1.41,-35.11 4.29,-51.97c2.36,-6.98 4.79,-12.9 7.3,-17.75c0.21,-0.41 0.24,-0.79 0.09,-1.12c-0.15,-0.32 -0.54,-0.46 -0.86,-0.31c-0.05,0.02 -0.09,0.05 -0.13,0.08c-4.21,3.42 -9.19,5.99 -12.68,8.94c-8.36,7.09 -13.45,14.12 -20.22,23.41c-0.33,0 -0.47,-0.23 -0.44,-0.71c0.41,-13.64 3.11,-26.28 8.1,-37.93c1.25,-2.92 3.39,-7.19 6.42,-12.81c2.53,-4.69 5.09,-8.7 7.7,-12.04c8.08,-10.35 15.63,-18.38 22.65,-24.07c3.83,-3.11 9.05,-5.72 15.67,-7.83c5.3,-1.69 10.4,-1.61 15.29,0.23c1.87,0.7 4.88,2.63 9.02,5.8c7.09,5.42 13.7,9.54 19.83,12.37c12.73,5.87 31.25,4.37 46.76,1.9Z" style="fill:#ca7f35;fill-rule:nonzero;stroke:#ca7f35;stroke-width:4px;"/><path d="M678.643,697.426c-0.93,-0.18 2.403,-12.037 2.413,-12.397c0.05,-2.27 3.518,-16.462 2.304,-31.279c-0.569,-6.945 -3.5,-18.2 -6.72,-27.74l53.32,-3.02c0.25,-0.03 0.47,0.15 0.5,0.4c-0,0.09 -0,0.17 -0.05,0.25c-0.82,1.63 -2.13,3.84 -3.92,6.65c-13.58,21.21 -30.097,49.116 -47.847,67.136Z" style="fill:#ca7f35;fill-rule:nonzero;stroke:#ca7f35;stroke-width:4px;"/><path d="M450.13,948.68c9.11,11.5 16.17,24.16 21.18,37.97c0.28,0.78 0.48,1.58 0.59,2.39c1.81,12.7 2.46,25.53 1.95,38.48c-0.69,17.85 -2.92,35.87 -4.23,53.62c-0.44,5.96 -1.07,13.19 -1.88,21.69c-1.99,20.68 -4.78,60.8 -4.94,60.86c-0.08,0.03 -3.07,4.83 -3.35,6.12c-0.03,0.17 -0.09,0.33 -0.16,0.49c-4.13,9.35 -9.99,17.41 -17.59,24.16c-12.16,10.8 -29.55,17.44 -45.73,13.62c-2.95,-0.7 -6.2,-2.1 -9.76,-4.2c-4.76,-2.81 -7.72,-4.79 -8.89,-5.93c-1.79,-1.75 -3.2,-2.79 -4.21,-3.12l-4.24,-4.06c-2.81,-15.48 -5.23,-31.18 -7.26,-47.09c-0.78,-6.13 -0.76,-11.46 0.58,-17.79c1.55,-7.35 3.34,-14.63 5.37,-21.83c0.09,-0.48 0.24,-0.89 0.43,-1.24c0.1,-0.17 0.32,-0.24 0.49,-0.14c0.06,0.03 0.11,0.08 0.14,0.14c0.19,0.33 0.29,0.81 0.28,1.46c2.57,14.65 10.27,28.88 22.55,37.78c3.38,2.45 7.3,2.49 10.92,0.17c3.55,-2.29 6.53,-4.99 8.96,-8.12c8.31,-10.71 14.2,-22.47 17.67,-35.29c0.42,-1.57 1.3,-7.11 2.63,-16.62c0.65,-4.67 1.14,-10.24 1.47,-16.69c0.82,-16.08 1.55,-26.5 2.19,-31.26c0.37,-2.67 1.62,-7.26 3.76,-13.75c2.25,-6.83 4.49,-13.65 6.72,-20.46c0.77,-2.34 1.69,-6.56 2.77,-12.65c0.86,-4.87 1.38,-9.15 1.55,-12.82c0.41,-8.77 -0.09,-17.69 -1.5,-26.74c1.1,0.29 1.61,0.57 1.54,0.85Z" style="fill:#ca7f35;fill-rule:nonzero;stroke:#ca7f35;stroke-width:4px;"/><path d="M701.075,991.8c-0.81,4.25 -3.785,12.81 -3.905,17.2c-0.27,9.39 -0.48,18.94 -0.64,28.66c-0.23,14.19 0.47,29.04 0.74,41.35c0.17,7.69 0.74,16.34 1.69,25.95c2.16,21.82 7.84,39.99 12.41,62.21c-8.15,-2.19 -18.18,-5.77 -24.07,-10.72c-8.79,-7.4 -16.28,-16.26 -22.48,-26.58c-0.1,-0.17 -0.29,-0.28 -0.5,-0.28c-0.15,0 -0.24,0.02 -0.29,0.05c-0.41,-0.03 -0.64,0.04 -0.68,0.23c-3.71,20.32 -12.12,38.77 -25.22,55.36c-0.71,1.46 -3.92,4.96 -5.61,6.49c-0.85,-2.99 0.32,-8.21 -0.49,-11.64c-3.2,-13.47 -6.65,-26.87 -10.36,-40.2c-2.35,-8.48 -4.45,-18.02 -6.3,-28.61c-0.75,-4.33 -2.59,-14.2 -5.51,-29.63c-0.52,-2.73 -0.91,-5.7 -1.17,-8.9c-0.15,-1.89 0.63,-3.22 2.34,-4c1.53,-0.69 5.35,-2.71 11.44,-6.04c16.39,-8.96 30,-18.43 40.83,-28.41c8.6,-7.93 15.15,-14.46 19.65,-19.59c3.8,-4.33 18.255,-23.26 18.125,-22.9Z" style="fill:#ca7f35;fill-rule:nonzero;stroke:#ca7f35;stroke-width:4px;"/><path d="M289.26,1010.77c7.19,7.6 13.34,15.52 11.3,25.6c-4.65,22.97 -16.26,42.52 -34.82,58.65c-8.83,7.67 -18.74,14.83 -29.75,21.48c-8.09,4.88 -15.81,11.01 -20.42,19.32c-1.48,2.67 -2.59,7.1 -3.34,13.27c-1.64,13.57 -1.82,27.05 -0.53,40.43c0.32,3.27 5.55,11.19 5.55,11.19c0,0 -11.17,-3.39 -13.68,-4.04c-16.55,-4.26 -34.73,-0.84 -49.44,7.72c-5.6,3.26 -13.138,8.61 -19.798,11.18c1.28,-13.43 4.248,-24.45 5.258,-31.06c1.98,-12.93 4.03,-28.37 6.16,-46.31c0.96,-8.05 1.7,-13.54 2.22,-16.49c1.22,-6.83 2.8,-13.35 4.74,-19.56c2.74,-8.77 8.45,-18.35 13.39,-26.9l2.11,-3.27c0.18,0.61 0.06,1.27 -0.37,1.97c-2.07,9.93 -0.78,18.44 3.88,25.54c0.75,1.14 2.15,2.12 4.2,2.93c1.14,0.45 2.85,0.74 5.13,0.87c5.66,0.31 12.54,-0.81 20.65,-3.34c16.55,-5.17 30.54,-12.34 41.97,-21.49c8.88,-7.12 14.58,-11.8 20.87,-19.42c2.15,-2.6 4.5,-5.56 7.05,-8.89c8.98,-11.67 14.48,-24.83 16.51,-39.47c0.04,-0.25 0.27,-0.43 0.52,-0.39c0.09,0.01 0.18,0.06 0.25,0.12l0.39,0.36Z" style="fill:#ca7f35;fill-rule:nonzero;stroke:#ca7f35;stroke-width:4px;"/><path d="M522.726,1184.82c0.379,0.459 0.72,1.152 1.026,2.09c-11.562,-2.612 -22.439,-1.866 -32.609,2.26c-3.699,1.493 -7.63,3.955 -11.256,6.077c-0.244,0.138 -0.757,0.234 -1.526,0.277c0.244,-0.586 0.342,-1.748 0.293,-3.486c-0.5,-17.388 -0.525,-28.934 -0.049,-34.637c0.452,-5.608 0.635,-9.19 0.525,-10.746c-0.085,-1.333 0.025,-3.049 0.318,-5.15c0.622,-4.466 0.952,-5.97 1.123,-10.66c0.073,-2.058 0.366,-3.892 0.867,-5.491c0.109,-0.362 0.183,-0.735 0.207,-1.108c0.159,-2.591 0.562,-4.979 1.233,-7.175c0.11,-0.373 0.171,-0.747 0.196,-1.12c0.134,-2.633 0.561,-5.426 1.281,-8.4c0.049,-0.214 0.208,-0.406 0.428,-0.523l37.491,-18.891c0.66,-0.33 1.502,-0.128 1.881,0.448c0.195,0.309 0.232,0.672 0.097,1.013c-2.014,4.669 -1.688,11.413 -5.021,16.243c-3.076,4.456 -5.518,9.104 -7.337,13.933c-1.599,4.233 -2.393,9.275 -2.405,15.117c-0.037,13.625 -0.485,24.749 4.655,37.382c1.098,2.718 2.771,5.82 5.03,9.328c0.341,0.522 0.598,1.428 0.805,2.143c0.098,0.341 0.342,0.65 0.672,0.863c0.806,0.512 1.501,0.587 2.075,0.213Z" style="fill:#a35627;fill-rule:nonzero;stroke:#a35627;stroke-width:4px;"/></g></g><path d="M359.003,1128.2l-0.413,1.352c-0.038,0.032 0.142,-0.533 0.413,-1.352Zm1.698,-5.563c0.011,0.028 0.027,0.053 0.049,0.075c0.078,0.092 -1.097,3.521 -1.747,5.488l1.698,-5.563Zm-0,-0c-0.015,-0.036 -0.021,-0.076 -0.021,-0.115c-0.08,-4.89 -0.18,-8.78 -0.3,-11.68c-0.31,-7.65 0.69,-14.3 0.46,-21.83c-0.06,-2.1 0.07,-5.48 0.39,-10.13c0.47,-6.74 1.01,-14.38 1.6,-22.93c0.7,-9.9 0.1,-19.75 0.14,-28.85c0,-0.16 -0.14,-0.28 -0.3,-0.28c-0.09,-0 -0.18,0.05 -0.23,0.13c-2.97,4.74 -7.28,11.34 -11.21,16.31c-1.9,2.4 -3.72,4.9 -5.45,7.51c-0.43,0.65 -1.06,1.29 -1.88,1.92c-0.2,0.16 -0.5,0.13 -0.66,-0.08c-0.06,-0.08 -0.09,-0.17 -0.1,-0.26c-0.09,-1.23 -0.1,-2.31 -0.03,-3.24c1.57,-22.13 0.54,-43.22 -3.07,-63.28c-0.7,-3.87 -1.45,-8.61 -2.24,-14.22c-0.74,-5.22 -2.19,-11.23 -4.34,-18.03c-0.24,-0.75 -0.55,-1.37 -0.94,-1.86c-0.11,-0.14 -0.32,-0.17 -0.46,-0.06c-0.08,0.06 -0.13,0.16 -0.13,0.27c0.03,1.53 0,2.8 -0.1,3.82c-1.71,17.64 -2.91,29.67 -3.59,36.1c-0.73,6.87 -2.18,12.79 -4.35,19.1c-0.09,0.27 -0.39,0.42 -0.66,0.32c-0.08,-0.03 -0.14,-0.07 -0.2,-0.12c-10.05,-9.92 -19.37,-19.81 -27.94,-29.67c-1.16,-1.34 -2.21,-2.78 -3.11,-4.3c-4.92,-8.31 -9.03,-15.08 -12.32,-20.33c-1.01,-1.63 -2.03,-3.86 -3.06,-6.7c-3.59,-10 -6.63,-20.24 -9.12,-30.72c-0.05,-0.2 -0.25,-0.32 -0.44,-0.28c-0.17,0.04 -0.29,0.2 -0.29,0.38c0.41,10.75 -0.04,19.87 1,30.06c0.42,4.05 0.82,7.49 1.2,10.31c1.98,14.65 3.25,27.93 3.81,39.86c0.2,4.33 -0.1,10.29 -0.89,17.88c-1.31,12.39 -3.46,23.97 -6.47,34.73c0,0.01 -0.01,0.03 0,0.03l-0.25,2.99c-0.02,0.22 -0.08,0.45 -0.18,0.65c-1,2.06 -2.32,3.96 -3.97,5.7c-3.09,3.28 -6.85,7.44 -10.64,9.92c-1.84,1.21 -3.12,2.69 -4.84,4.08c-9.5,7.63 -19.9,13.76 -31.19,18.39c-1.07,0.43 -4.59,1.69 -10.56,3.78c-8.5,2.96 -16.93,4.51 -24.73,4.08c-9.68,-0.53 -10.52,-15.09 -11.1,-21.91c-0.05,-0.65 0.07,-1.68 0.37,-3.09c0.28,-1.31 0.13,-2.33 -0.46,-3.04c0.43,-0.7 0.55,-1.36 0.37,-1.97c2.46,-6.09 4.9,-12.24 7.31,-18.45c2.22,-5.69 4.66,-14.49 7.31,-26.42c3.87,-17.33 6.46,-35.34 7.79,-54.02c0.01,-0.19 -0.13,-0.35 -0.32,-0.36c-0.1,-0 -0.2,0.03 -0.27,0.11c-1.98,2.29 -3.47,4.28 -4.48,5.96c-3.15,5.21 -6.46,10.43 -9.93,15.66c-0.19,0.29 -0.42,0.55 -0.68,0.78c-1.35,1.23 -2.46,2.61 -3.31,4.16c-0.15,0.26 -0.48,0.35 -0.74,0.2c-0.2,-0.11 -0.31,-0.35 -0.26,-0.57c1.39,-7.15 2.19,-10.22 2.64,-16.18c0.66,-8.84 1.12,-14.5 1.37,-16.97c1.55,-15.12 4.3,-29.76 8.27,-43.91c3.01,-10.7 6.8,-20.14 10.27,-30.71c1.84,-5.57 4.63,-11.44 6.85,-17.1c0.65,-1.68 1.77,-3.87 3.34,-6.56c12.32,-21.11 28.86,-38.51 49.34,-51.72c8.48,-5.48 17.99,-11.1 25.42,-17.74c6.38,-5.7 13,-10.07 18.99,-15.93c0.31,-0.31 0.81,-0.3 1.12,-0c0.11,0.11 0.18,0.25 0.21,0.4c0.47,2.31 0.6,5.06 1.36,7.71c1.83,6.4 2.78,14.86 5.01,21.07c2.83,7.89 5.61,14.22 8.34,18.98c3.81,6.63 9.24,12.1 16.29,16.4c0.31,0.19 0.72,0.1 0.93,-0.2c0.83,-1.21 1.5,-2.62 1.99,-4.25c1.61,-5.32 2.86,-9.12 3.75,-11.41c0.18,-0.45 0.68,-0.67 1.13,-0.49c0.13,0.05 0.24,0.13 0.33,0.23c0.85,0.99 1.54,2.15 2.06,3.5c2.03,5.32 2.95,8.6 5.34,12.81c7.37,13.02 17.48,24.06 30.33,33.11c4.95,3.49 9.21,5.89 12.76,7.19c8.61,3.15 16.45,5.61 23.52,7.38c0.22,0.06 0.44,-0.07 0.5,-0.29c0.04,-0.14 0,-0.28 -0.1,-0.39c-11.14,-11.89 -22.09,-23.37 -32.84,-34.42c-5.75,-5.91 -10.24,-12.63 -14.41,-20.53c-0.89,-1.69 -3.5,-6.58 -7.82,-14.66c-1.9,-3.56 -5.05,-9.99 -6.55,-15.22c-3.04,-10.61 -4.52,-21.27 -4.45,-31.99c0,-0.27 -0.2,-0.49 -0.47,-0.49c-0.22,-0 -0.41,0.13 -0.47,0.34c-1.32,4.08 -3.49,6.8 -5.91,11c-5.33,9.27 -9.83,15.96 -13.15,24.22c-0.09,0.21 -0.33,0.31 -0.54,0.22c-0.1,-0.04 -0.18,-0.13 -0.22,-0.23c-2.65,-6.66 -4.31,-13.4 -4.98,-20.21c-0.05,-0.46 -0.11,-4.17 -0.2,-11.12c-0.05,-3.63 0.22,-7.33 0.81,-11.09c1.57,-10.05 2.63,-17.18 6.41,-25.76c0.15,-0.34 0,-0.73 -0.34,-0.89c-0.11,-0.05 -0.23,-0.07 -0.35,-0.05c-5.68,0.65 -11.31,1.07 -16.89,1.26c-1.41,0.05 -3.03,-0.08 -4.86,-0.39c-0.32,-0.06 -0.53,-0.35 -0.49,-0.66c0.09,-0.7 0.66,-1.55 1.73,-2.56c3.01,-2.84 7.02,-5.46 10.03,-8.99c6.76,-7.92 12.51,-14.5 16.19,-23.29c2.87,-6.83 4.68,-11.35 5.43,-13.56c0.22,-0.64 0.92,-0.99 1.56,-0.77c0.08,0.03 0.15,0.06 0.22,0.1c6.47,3.75 10.8,9.5 15.38,15.96c2.11,2.98 4.99,6.22 8.62,9.72c0.22,0.22 0.55,0.3 0.85,0.21l-1.01,-2.61l3.19,2.01c5.07,15.98 8.26,32.27 9.55,48.88c0.58,7.44 0.88,11.29 0.91,11.55c2.15,20 7.26,40.18 18.84,57.04c0.45,0.65 1.06,1.16 1.84,1.55c1.01,0.49 1.81,0.07 2.42,-1.26c0.07,-0.15 0.12,-0.31 0.14,-0.48c0.17,-1.08 0.45,-4.69 0.82,-10.82c0.29,-4.7 1.4,-9.49 2.57,-13.55c0.04,-0.13 0.18,-0.21 0.31,-0.17c0.08,0.02 0.14,0.08 0.16,0.16c2.05,6.63 3.45,13.94 6.04,19.7c3.71,8.25 7.18,14.74 10.41,19.45c2.51,3.66 8.42,11.75 17.74,24.26c2.85,3.83 6.05,9.03 9.6,15.62c7.51,13.93 13.03,29.58 16.56,46.97c1.01,4.95 1.94,10.91 2.79,17.88c0.73,5.9 1.06,11.91 1.01,18.03c0,0.15 -0.13,0.26 -0.28,0.26c-0.09,-0 -0.17,-0.05 -0.22,-0.13c-4.55,-8.19 -7.56,-13.48 -9.02,-15.87c-1.63,-2.66 -4.24,-6.03 -7.82,-10.1c-0.11,-0.13 -0.31,-0.15 -0.45,-0.06c-0.09,0.06 -0.18,0.15 -0.26,0.26c0.07,-0.28 -0.44,-0.56 -1.54,-0.85c-0.25,3.66 -0.27,7.25 -0.05,10.77c0.38,6 0.54,9.59 0.49,10.77c-0.28,6.76 -0.98,13.47 -2.11,20.14c-0.82,4.89 -2.46,11.09 -4.91,18.6c-3.23,9.94 -5.23,16.06 -5.99,18.35c-3.03,9.18 -2.61,17.4 -3.57,26.24c-0.56,5.12 -0.15,9.42 -0.55,14.24c-0.61,7.47 -0.94,11.4 -0.98,11.8c-0.43,4.07 -1.23,9.38 -2.4,15.95c-1.09,6.13 -2.56,11.28 -4.41,15.47c-3.45,7.78 -6.48,13.57 -9.11,17.37c-2.95,4.27 -6.65,8.3 -11.12,12.1c-4.47,3.79 -8.9,3.88 -13.29,0.29c-3.63,-2.97 -6.06,-5.22 -7.27,-6.76c-6.79,-8.61 -11.28,-18.47 -13.47,-29.6c-0.04,-0.22 -0.25,-0.38 -0.47,-0.34c-0.18,0.03 -0.31,0.17 -0.34,0.34l-0.14,0.72c0,-0.65 -0.09,-1.13 -0.28,-1.46c-0.1,-0.17 -0.32,-0.24 -0.49,-0.14c-0.06,0.03 -0.11,0.08 -0.14,0.14c-0.19,0.35 -0.34,0.76 -0.43,1.24c-0.06,-0.31 -0.09,-0.46 -0.1,-0.47c-0.18,-0.25 -0.53,-0.31 -0.78,-0.12c-0.11,0.08 -0.2,0.21 -0.23,0.34c-0.59,2.89 -1.41,5.56 -2.44,8l-0.06,0.18l-3.249,10.645Zm303.389,-597.935c-8.12,-8.51 -13.78,-13.95 -21.91,-19.13c-4.93,-3.13 -12.41,-7.56 -22.45,-13.28c-5.15,-2.94 -11.3,-7.41 -18.45,-13.42c-4.64,-3.89 -8.39,-7.96 -11.24,-12.2c-3.79,-5.64 -6.48,-10.54 -8.08,-14.69c-3.41,-8.9 -5.31,-19.23 -5.68,-30.98c-0.31,-9.5 -0.31,-17.58 0,-24.23c0.15,-3.04 0.4,-5.97 0.77,-8.8c0.06,-0.43 0.08,-0.86 0.05,-1.29c-0.29,-5 0.76,-10.03 0.9,-14.55c0.27,-8.99 0.53,-17.78 0.77,-26.37c0.2,-7.42 -0.65,-15.26 -2.55,-23.51c-1.06,-4.6 -7.5,-15.43 -7.5,-15.43c-0,-0 20.02,2.66 28.91,2.1c5.77,-0.37 11.37,-1.52 16.8,-3.45c5.19,-1.85 8.98,-2.61 14.23,-4.53c3.13,-1.15 5.51,-2.7 7.12,-4.65c9.83,-11.88 17.86,-21.35 24.1,-28.41c5.24,-5.92 13.31,-13.05 21.82,-13.9c11.44,-1.13 20.88,4.66 28.64,12.74c3.64,3.79 7.59,7.95 11.86,12.48c2.58,2.73 6.31,6.07 11.19,10.02c9.39,7.59 17.7,13.93 24.93,19.02c6.2,4.36 11.43,9.14 17.68,13.27c1.53,1.01 2.82,2.84 4.46,3.8c0.2,0.13 0.47,0.07 0.59,-0.13c0.09,-0.14 0.09,-0.33 0,-0.47l-11.61,-18.58c-0.11,-0.17 -0.05,-0.4 0.12,-0.51c0.09,-0.06 0.2,-0.07 0.3,-0.04c7.03,1.93 14.4,4.5 22.09,7.71c1.05,0.44 3.4,1.26 7.04,2.46c6.99,2.3 13.72,6.23 17.5,12.44c2.19,3.61 3.81,8.13 4.85,13.56c0.72,3.74 0.46,8.44 -0.77,14.1c-2.28,10.45 -4.5,18.31 -6.65,23.58c-4.19,10.3 -6.87,17.64 -11.27,28.13c-2.33,5.57 -4.9,12.45 -7.71,20.65c-1.21,3.54 -2.17,7.37 -2.21,11.57c-0.06,5.73 0,11.74 0.15,18.03c0.02,0.55 -0.39,1.01 -0.93,1.07c-4.86,0.53 -9.61,0.25 -14.25,-0.82c-9.92,-2.3 -18.86,-6.77 -26.81,-13.42c-7.74,-6.46 -16.24,-14.98 -21.83,-23.69c-6.45,-10.05 -11.72,-20.22 -15.81,-30.49c-2.59,-6.5 -6.81,-14.65 -8.56,-20.39c-2.74,-8.96 -5.52,-17.44 -8.33,-25.43c-3.52,-10.01 -5.3,-18.36 -8.31,-27.92c-2.49,-7.89 -6.89,-15.62 -10.06,-21.77c-1.89,-3.66 -4.55,-5.45 -7.98,-5.38c-8.86,0.2 -18.5,12.52 -22.39,19.57c-0.17,0.32 -0.3,0.65 -0.38,1l-1.56,6.67c-0.08,0.36 0.08,0.73 0.4,0.91c7.09,3.99 13.09,9.13 18,15.43c3.65,4.68 8.21,10.41 10.59,16.13c1.7,4.05 3.69,6.92 4.7,10.82c2.11,8.13 7.04,17.49 9.55,25.67c0.74,2.41 3.17,9.25 7.28,20.53c0.62,1.69 1.64,5.11 3.05,10.25c0.79,2.87 1.4,6.38 1.85,10.52c1.11,10.3 3.58,20.23 6.48,31.88c2.45,9.88 5.27,17.94 11.62,25.89c6.9,8.63 13.09,16.25 16.45,25.02c0.25,0.63 0.34,1.22 0.27,1.77c-0.02,0.17 -0.18,0.29 -0.35,0.26c-0.06,-0 -0.11,-0.03 -0.16,-0.07c-3.1,-2.8 -6.56,-5.75 -10.37,-8.85c-3.84,-3.12 -7.47,-5.37 -11.22,-7.28c-2.28,-1.17 -3.89,-0.58 -4.82,1.75c-0.67,1.67 -1.66,4.28 -2.97,7.83c-4.88,13.33 -17.89,16.66 -30.17,20.07c-0.21,0.05 -0.36,0.2 -0.43,0.45c-0.11,0.39 -0.3,0.64 -0.55,0.74c-0.18,0.07 -0.38,0.08 -0.55,0.02c-3.33,-1.1 -6.74,-1.72 -10.24,-1.85Zm-43.9,-44.07c2.15,2.37 3.4,3.01 3.75,1.9l11.49,8.96c3.25,2.01 6.94,3.07 11.05,3.2c2.66,2.17 5.67,2.79 9.02,1.86c2.49,-0.69 5.01,-1.45 7.56,-2.28c0.48,-0.16 0.99,-0.22 1.5,-0.19c4.02,0.31 8.1,-1.19 12.24,-4.5c14.09,-11.3 16.45,-25.04 15.23,-41.98c-1.26,-17.32 -12.86,-31.32 -28.57,-38.35c-7.89,-3.53 -16.34,-4.22 -25.34,-2.08c-2.74,0.66 -5.38,1.82 -7.91,3.47c-10.86,7.1 -19.71,18.26 -21.75,31.05c-2.19,13.8 -0.94,27.69 8.79,38.6c0.61,0.69 1.59,0.81 2.94,0.34Zm-0.05,-124.9c-3.11,1.11 -5.41,2.36 -6.9,3.75c-11.19,10.45 -13.74,22.83 -7.64,37.16c0.79,1.87 1.9,3.38 3.31,4.51c1.06,0.85 2.58,0.82 3.61,-0.07c6.21,-5.31 12.15,-9.91 19.36,-12.48c7.21,-2.58 14.72,-2.79 22.89,-2.61c1.36,0.03 2.55,-0.91 2.83,-2.24c0.38,-1.77 0.28,-3.63 -0.29,-5.58c-4.36,-14.95 -14.18,-22.92 -29.46,-23.91c-2.03,-0.13 -4.6,0.36 -7.71,1.47Zm-121.44,-38c1.91,1.77 3.91,3.46 6.01,5.05c1.17,0.89 3.5,3.75 6.99,8.58c6.78,9.39 11.86,19.61 15.23,30.65c7.32,23.97 7.71,51.22 3.92,76.23c-1.18,7.78 -2.89,14.45 -5.17,21.67c-6.36,20.14 -17.3,37.11 -32.83,50.91c-9.05,8.04 -19.99,14.41 -32.84,19.12c-6.18,2.27 -12.49,3.53 -18.94,3.8c-7.75,0.31 -14.19,-0.17 -19.3,-1.46c-9.01,-2.27 -18.16,-6.55 -27.46,-12.86c-0.12,-0.08 -3.53,-2.57 -10.22,-7.47c-4.35,-3.19 -9.22,-4.44 -14.59,-3.74c-5.35,0.69 -10.42,2.36 -15.23,5.01c-1.9,1.04 -4.41,2.8 -7.52,5.28c-2.5,1.99 -4.92,3.88 -7.26,5.67c-4.87,2.03 -9.28,4.8 -13.24,8.29c-1.83,1.62 -3.23,2.74 -4.19,3.36c-1.38,0.89 -2.78,2.01 -4.21,3.35c-0.11,0.1 -0.28,0.09 -0.38,-0.03c-0.08,-0.09 -0.09,-0.21 -0.03,-0.31c1.49,-2.33 2.5,-4.55 3.03,-6.66c0.14,-0.55 0.38,-1.07 0.71,-1.53c0.49,-0.69 3.51,-5.48 9.06,-14.39c3.23,-5.2 4.95,-10.85 8.04,-15.98c3.26,-5.43 5.35,-9.26 6.27,-11.47c2.46,-5.89 5.31,-12.47 8.55,-19.73c0.34,-0.75 1.81,-4.59 4.42,-11.52c2.22,-5.91 2.91,-11.02 4.49,-17.29c0.25,-1.03 0.7,-3.38 1.34,-7.05c1.58,-9.04 2.57,-17.88 5.08,-26.9c2.48,-8.89 4.65,-18.45 8.43,-27.42c3.51,-8.32 8.57,-15.49 15.19,-21.51c4.3,-3.92 11.88,-8.37 22.75,-13.34c26.97,-12.34 53.44,-23.18 81.43,-28.92c0.81,-0.17 2.3,1.9 2.47,2.61Zm-46.27,183.9c6.14,1.39 11.81,1.16 17.02,-0.68c8.2,-2.91 14.85,-8.4 19.95,-16.49l2.9,-0.38c0.3,-0.04 0.57,-0.22 0.73,-0.48c3.02,-4.82 6.05,-10.34 6.61,-15.79c1.74,-17.06 -1.45,-32.55 -14.31,-44.39c-7.28,-6.71 -14.69,-11.18 -24.58,-11.16c-4.52,0.01 -7.95,0.33 -10.3,0.94c-5.68,1.47 -11.26,4.24 -16.75,8.29c-12.55,9.26 -19.39,23.97 -18.47,39.52c0.41,7.02 1.03,11.95 1.85,14.78c3.05,10.49 9.52,18.51 19.43,24.06c0.89,0.49 2.01,0.93 3.36,1.32c4.55,1.32 8.74,1.47 12.56,0.46Zm-9.89,-110.18l11.29,-1.75c0.07,-0.01 0.13,-0.02 0.2,-0.01c5.77,0.28 9.28,0.53 10.53,0.75c8.93,1.6 17.5,6.49 24.35,11.83c4.64,3.61 7.35,-3.29 8.49,-6.47c3.84,-10.69 2.47,-20.47 -4.11,-29.34c-5.8,-7.82 -14.98,-11.93 -24.3,-12.39c-1.21,-0.06 -3.01,0.19 -5.39,0.75c-11.56,2.71 -19.5,9.1 -23.83,19.18c-2.56,5.96 -4.19,10.79 -0.08,16.29c0.67,0.88 1.76,1.33 2.85,1.16Zm-88.94,-28.61c-1.91,14.35 -3.74,27.21 -5.48,38.57c-0.74,4.81 -1.99,9.12 -2.22,13.6c-0.13,2.49 -0.35,4.47 -0.65,5.94c-2.15,10.5 -3.86,18.23 -5.14,23.19c-0.35,1.37 -2.05,6.25 -5.09,14.66c-2.31,6.37 -4.27,11.15 -5.88,14.34c-5.21,10.33 -11.35,19.28 -18.42,26.85c-4.63,4.97 -9.91,9.85 -15.84,14.65c-10.79,8.75 -22.94,13.75 -36.44,15c-3.58,0.33 -6.9,0.1 -9.95,-0.71c-0.24,-0.06 -0.38,-0.3 -0.32,-0.54l0,-0.02c2.09,-6.79 3.5,-14.17 4.21,-22.12c0.11,-1.19 -0.11,-3.47 -0.66,-6.84c-0.77,-4.67 -4.31,-12.11 -5.75,-14.62c-6.15,-10.7 -13.22,-20.86 -21.2,-30.48c-0.27,-0.32 -0.49,-0.67 -0.68,-1.05c-2.99,-6.15 -4.9,-10.86 -5.71,-14.14c-2.62,-10.51 -4.17,-21.08 -4.64,-31.72c-0.02,-0.4 -0.36,-0.72 -0.76,-0.7c-0.1,-0 -0.19,0.03 -0.28,0.07c-1.19,0.55 -2.2,1.52 -3.01,2.92c-0.25,0.43 -1.67,3.67 -4.24,9.72c-1.75,4.12 -2.69,8.56 -2.84,13.33c-0.01,0.5 -0.42,0.89 -0.92,0.88c-0.24,-0 -0.47,-0.11 -0.64,-0.29c-4.64,-4.98 -7.8,-10.33 -10.04,-17.45c-1.85,-5.86 -2.78,-8.81 -2.79,-8.86c-2.48,-10.19 -2.56,-19.3 -0.25,-27.31c1.34,-4.63 4.49,-8.39 9.45,-11.26c5.85,-3.39 13.39,-7.55 22.62,-12.49c6.48,-3.47 13.79,-7.65 21.92,-12.54c10.75,-6.47 17.88,-10.9 21.39,-13.3c0.43,-0.29 1,-0.17 1.29,0.25c0.08,0.12 0.13,0.25 0.15,0.39c0.89,6.17 3.67,10.15 7.65,17.38c0.4,0.72 0.89,1.37 1.47,1.95c3.9,3.91 6.35,6.22 7.36,6.92c6.99,4.84 13.95,8.29 20.88,10.34c6.36,1.88 12.94,1.69 20.5,1.19c4.34,-0.29 8.49,-1.01 12.46,-2.14c6.91,-1.98 11.94,-2.92 18.01,-4.01c0.22,-0.04 0.43,0.1 0.47,0.32l0,0.13l0.01,-0Zm-269.95,409.95c1.57,0.23 3.29,0.98 5.15,2.25c6.38,4.31 11.18,8.55 18.73,10.13c0.59,0.13 1.18,-0.25 1.3,-0.85c0.04,-0.18 0.03,-0.38 -0.02,-0.56c-1.06,-3.45 -2.13,-7.23 -3.21,-11.32c-1.97,-7.45 -2.57,-16.04 -2.21,-23.19c0.06,-1.17 0.24,-4.16 0.54,-8.97c0.22,-3.38 0.64,-6.34 1.25,-8.89c2.29,-9.51 4.79,-17.02 7.49,-22.51c9.39,-19.13 23.23,-33.86 41.52,-44.2c2.17,-1.23 4.14,-1.95 5.91,-2.18c0.26,-0.03 0.49,0.15 0.53,0.4c0.01,0.09 -0,0.19 -0.05,0.28c-5.61,11.27 -9.08,23.43 -10.39,36.47c-0.53,5.33 -0.91,10.86 -1.12,16.6c-0.52,13.82 0.52,27.51 3.76,41.81c2.06,9.11 3.53,15.1 4.41,17.96c1.49,4.85 4.07,11.12 7.72,18.8c8.66,18.18 21.67,32.21 39.03,42.08c0.42,0.23 0.57,0.76 0.34,1.18c-0.08,0.15 -0.21,0.27 -0.36,0.35c-1.59,0.83 -2.94,1.9 -4.06,3.23c-3.24,3.85 -6.59,8.93 -10.04,15.24c-1.57,2.87 -3.13,5.38 -4.68,7.53c-0.54,0.75 -1.26,1.36 -2.11,1.75c-11.03,5.14 -23.87,5.45 -35.87,4.28c-7.69,-0.75 -13.56,-2.84 -22.6,-6.55c-5.39,-2.21 -9.95,-5.36 -13.68,-9.43c-0.22,-0.23 -0.2,-0.59 0.03,-0.81c0.1,-0.1 0.24,-0.15 0.38,-0.15c5.81,-0.1 11.61,-0.7 17.4,-1.8c2.49,-0.47 4.83,-1.39 7.02,-2.74c0.6,-0.37 0.79,-1.16 0.43,-1.76c-0.12,-0.19 -0.29,-0.35 -0.49,-0.46c-8.56,-4.63 -17.92,-10.16 -25.17,-17.3c-11.78,-11.61 -20.42,-26.28 -24,-42.57c-1.23,-5.59 -2.41,-10.02 -3.54,-13.3c-0.11,-0.32 0.06,-0.67 0.38,-0.77c0.09,-0.03 0.18,-0.04 0.28,-0.03Zm561.36,244.69c0.13,0.17 0.28,0.16 0.45,-0.02c0.04,0.05 0.08,0.11 0.11,0.16c0.72,0.51 1.58,0.05 2.57,-1.36c0.43,-0.61 0.67,-0.94 0.72,-1.01c22.94,-30.5 38.01,-67.08 39.25,-105.25c0.05,-1.47 -0.18,-2.52 -0.69,-3.14c-0.21,-0.26 -0.29,-0.6 -0.21,-0.93c1.57,-6.64 3.25,-10.3 8.08,-15.39c4.35,-4.59 9.42,-9.46 13.02,-14.28c3.81,-5.09 7.85,-11.2 12.12,-18.32c0.95,-1.58 1.6,-3.41 1.95,-5.49c0.05,-0.25 0.29,-0.41 0.54,-0.36c0.21,0.04 0.36,0.22 0.37,0.43c0.08,8.95 -0.22,16.77 -0.91,23.46c-0.68,6.6 -1.33,12.4 -1.96,17.39c-1.1,8.77 -2.94,15.57 -4.71,24.17c-0.47,2.25 -1.31,5.43 -2.54,9.55c-2.79,9.31 -6.13,19.01 -10.03,29.09c-1.7,4.41 -3.72,8.63 -6.06,12.68c-7.67,13.28 -13.53,22.68 -17.56,28.21c-5.28,7.24 -11.49,14.35 -18.62,21.34c-4.84,4.74 -8.57,7.85 -11.19,9.32c-2.57,1.45 -4.95,3.12 -7.14,5c-0.25,0.21 -0.62,0.18 -0.83,-0.07c-0.12,-0.14 -0.17,-0.32 -0.13,-0.5l1.32,-6.1c0.08,-0.36 -0.097,-0.719 -0.01,-1.07c0.79,-3.185 1.24,-4.32 2.09,-7.51Z" style="fill:#323a38;stroke:#323a38;stroke-width:2px;"/><path d="M622.05,438.4c-3.48,13.31 -1.3,28.64 7.11,39.67c-0.32,2.38 5.47,4.33 6.47,6.58c0.09,0.22 14.294,7.827 14.294,7.827c-0,0 -12.023,1.284 -25.984,-9.947c-9.818,-7.898 -9.41,-19.74 -7.56,-30.17c0.78,-4.42 2.92,-9.54 4.64,-14.08l0.36,-0.36c0.12,-0.13 0.33,-0.12 0.46,0c0.03,0.03 0.06,0.07 0.07,0.11l0.14,0.36l-0,0.01Z" style="fill:#fbf0d5;fill-rule:nonzero;stroke:#fbf0d5;stroke-width:4px;"/><path d="M485.72,443.19c3.35,7.03 5.25,11.83 5.69,14.42c1.89,10.99 1.2,21.89 -6.37,30.69c-3.59,4.17 -9.44,9.1 -14.93,9.78l7.14,-5.49c0.11,-0.15 0.2,-0.31 0.25,-0.48l2.62,-9.06c3.25,-4.94 5.36,-10.54 6.35,-16.81c1.25,-7.94 0.65,-15.7 -1.8,-23.28c0.02,-0.25 0.12,-0.35 0.31,-0.31c0.27,0.06 0.51,0.24 0.74,0.54Z" style="fill:#fbf0d5;fill-rule:nonzero;stroke:#fbf0d5;stroke-width:4px;"/><g><path d="M677.34,440.71c4.07,9.65 4.75,19.22 2.06,28.71c-2.95,10.41 -9.43,17.85 -19.44,22.33c-4.17,1.97 -3.17,1.95 -7.98,1.94c-4.11,-0.13 -9.323,-1.154 -12.657,-4.2c-5.762,-5.264 -7.233,-11.54 -6.913,-13.92c2.6,1.52 1.64,6.51 3.92,7.65c3.73,1.87 7.8,2.94 12.19,3.2c6.07,0.36 13.54,-3.8 17.96,-7.76c3.43,-3.07 5.98,-6.48 7.67,-10.25c4.14,-9.23 4.33,-18.31 2.25,-28.22c-0.01,-0.98 0.3,-0.81 0.94,0.52Z" style="fill:#ca7f35;fill-rule:nonzero;stroke:#ca7f35;stroke-width:4px;"/><path d="M430.63,448.26c-2.29,12.31 0.17,27.06 9.6,35.71c3.65,3.35 7.67,5.84 12.06,7.47c7.24,2.69 15.29,0.9 21.66,-3.17c0.03,-0.02 0.07,-0.05 0.1,-0.08l6.07,-10.14c0,-0 2.052,6.172 -2.62,14.06c-1.531,2.585 -6.19,5.37 -6.19,5.37c-6.99,3.63 -14.6,3.84 -22.83,0.63c-7.45,-2.92 -11.83,-6.53 -15.92,-13.42c-6.67,-11.27 -7.2,-24.48 -2.77,-36.65c0.07,-0.08 0.13,-0.15 0.18,-0.2c0.11,-0.11 0.29,-0.1 0.4,0.01c0.01,0.01 0.02,0.03 0.03,0.05c0.07,0.11 0.15,0.23 0.23,0.36Z" style="fill:#ca7f35;fill-rule:nonzero;stroke:#ca7f35;stroke-width:4px;"/><path d="M673.63,615.11c-0.29,0.02 -0.54,-0.19 -0.56,-0.48c0,-0.12 0.02,-0.23 0.09,-0.33c4.78,-7 9.96,-13.84 11.99,-22.12c0.13,-0.52 0.61,-0.88 1.15,-0.85c5.4,0.27 11.04,0.04 16.91,-0.71c21.97,-2.78 41.81,-5.58 59.52,-8.39c9.46,-1.5 16.19,5.55 13.41,14.88c-0.91,3.08 -5.62,3.76 -8.36,4.19c-9.23,1.44 -19.98,2.93 -32.25,4.47c-7.39,0.93 -16.06,3.17 -24.5,4.21c-9.11,1.13 -19.56,2.6 -31.35,4.42c-2.23,0.35 -4.24,0.58 -6.05,0.71Z" style="fill:#ca7f35;fill-rule:nonzero;stroke:#ca7f35;stroke-width:4px;"/><path d="M491.24,629.8c-0.11,0.22 -0.17,0.48 -0.18,0.79c-2.11,0.91 -4.09,1.51 -5.94,1.78c-18.07,2.65 -36.88,2.79 -55.06,1.89c-0.9,0.04 -1.32,-0.22 -1.27,-0.79c1.8,-0.43 3.59,-0.93 5.36,-1.49c10.36,-3.25 21.61,-5.3 33.74,-6.15c7.22,-0.52 17.22,0.3 23.35,3.97Z" style="fill:#c15826;fill-rule:nonzero;stroke:#c15826;stroke-width:4px;"/><path d="M491.06,630.59c0.24,-0.08 0.34,0.03 0.3,0.34c-0.08,0.55 -0.42,0.91 -1.02,1.06c-5.34,1.37 -10.12,2.24 -14.33,2.63c-15.84,1.45 -31.15,1.58 -45.92,0.39c-0.25,-0.02 -0.26,-0.27 -0.03,-0.75c18.18,0.9 36.99,0.76 55.06,-1.89c1.85,-0.27 3.83,-0.87 5.94,-1.78Z" style="fill:#050403;fill-opacity:0;fill-rule:nonzero;"/><path d="M527.48,645.11c10.82,-4.34 22.25,-6.14 34.29,-5.39c3.23,0.19 6.29,0.93 9.16,2.22c3.68,1.64 7.32,6.83 10.64,7.65c0.67,0.16 1.35,-0.25 1.51,-0.91c0.07,-0.28 0.04,-0.58 -0.09,-0.84c-0.87,-1.79 -1.76,-3.75 -2.69,-5.86c-1.08,-2.45 -0.3,-4.36 2.38,-4.46c8.98,-0.34 27.56,2.53 29.3,14.22c1.37,9.14 -2.01,15.95 -10.12,20.43c-3.76,2.08 -8.01,3.48 -12.75,4.19c-20.83,3.15 -38.86,-2.32 -54.08,-16.42c-3.59,-3.33 -6.53,-7.11 -8.81,-11.33c-0.65,-1.22 -0.2,-2.73 1.01,-3.38c0.08,-0.04 0.17,-0.08 0.25,-0.12Zm53.56,-6.22c-0.5,0.36 -0.62,0.82 -0.36,1.37c1.57,3.39 2.59,5.73 3.07,7c0.55,1.43 0.19,2.5 -1.06,3.2c-1,0.57 -2.19,0.48 -2.95,-0.21c-4.43,-4.04 -7.98,-7.59 -13.44,-8.77c-1.54,-0.34 -4.59,-0.54 -9.14,-0.59c-9.96,-0.11 -19.85,1.63 -29.68,5.22c-0.47,0.16 -0.72,0.67 -0.56,1.15c0.61,1.79 1.61,3.58 3.01,5.35c15.51,19.55 39.83,27.49 64.12,21.45c6.86,-1.7 15.09,-6.73 16.44,-13.86c0.59,-3.17 0.65,-6.17 0.17,-8.99c-1.78,-10.55 -20.63,-13.07 -28.67,-12.51c-0.51,0.04 -0.82,0.1 -0.95,0.19Z" style="fill:#050403;fill-opacity:0;fill-rule:nonzero;"/><path d="M581.04,638.89c0.13,-0.09 0.44,-0.15 0.95,-0.19c8.04,-0.56 26.89,1.96 28.67,12.51c0.48,2.82 0.42,5.82 -0.17,8.99c-1.35,7.13 -9.58,12.16 -16.44,13.86c-24.29,6.04 -48.61,-1.9 -64.12,-21.45c-1.4,-1.77 -2.4,-3.56 -3.01,-5.35c-0.16,-0.48 0.09,-0.99 0.56,-1.15c9.83,-3.59 19.72,-5.33 29.68,-5.22c4.55,0.05 7.6,0.25 9.14,0.59c5.46,1.18 9.01,4.73 13.44,8.77c0.76,0.69 1.95,0.78 2.95,0.21c1.25,-0.7 1.61,-1.77 1.06,-3.2c-0.48,-1.27 -1.5,-3.61 -3.07,-7c-0.26,-0.55 -0.14,-1.01 0.36,-1.37Z" style="fill:#ca7f35;fill-rule:nonzero;stroke:#ca7f35;stroke-width:4px;"/></g><g><path d="M634.78,263.86l-1.89,4.6c-0.08,0.17 -0.01,0.37 0.16,0.45c0.15,0.07 0.33,0.03 0.42,-0.1c1.65,-1.94 2.82,-3.57 3.53,-4.89c0.09,-0.17 0.2,-0.33 0.33,-0.48c2.06,-2.44 4.42,-4.86 7.08,-7.27c7.69,-6.97 14.4,-13.34 23.15,-17.37c8.43,-3.89 17.88,-4.63 26.97,-2.28c3.57,0.92 7.73,2.47 12.5,4.66c1.17,0.53 4.13,2.58 8.9,6.15c1.89,1.41 4.6,3.79 8.15,7.12c7.25,6.81 11.61,10.81 13.08,11.99c11.33,9.12 23.31,16.1 35.96,20.95c5.82,2.22 11.97,4.19 16.92,5.6c7.27,2.07 14.23,4.6 20.86,7.59c11.11,5.01 19.46,13.29 23.93,24.98c1.94,5.07 3.19,10.51 3.76,16.31c0.5,5.03 0.27,10.61 -0.68,16.75c-1.71,11.06 -4.72,21.9 -9.03,32.52c-3.96,9.75 -7.58,18.54 -10.86,26.37c-2.91,6.94 -5.12,12.96 -6.65,18.07c-0.8,2.69 -1.55,6.73 -2.25,12.12c-0.3,2.31 -0.12,5 0.53,8.07c0.29,1.38 0.43,3.86 0.42,7.44c-0.05,14.81 -12.55,17.54 -24.53,16.67c-6.21,-0.45 -12.63,-2.19 -19.24,-5.22c-7.57,-3.47 -13.71,-6.99 -18.44,-10.54c-3.42,-2.58 -5.91,-4.28 -7.47,-5.09c-0.13,-0.07 -0.28,-0.02 -0.35,0.11c-0.04,0.07 -0.04,0.15 0,0.22c4.08,9.2 7.4,16.09 9.95,20.66c4.79,8.55 10.06,16.21 15.8,22.96c5.62,6.62 12.43,10.94 18.6,15.14c2.89,1.95 3.39,4.46 1.51,7.51c-0.97,1.57 -2.37,2.67 -4.2,3.29c-5.67,1.91 -11.18,3.01 -16.71,0.92c-0.4,-0.16 -0.85,0.04 -1.01,0.45c-0.05,0.13 -0.07,0.27 -0.04,0.41c0.03,0.21 0.25,0.49 0.64,0.86c0.27,0.26 0.38,0.58 0.35,0.97c-0.07,0.78 0.1,1.42 0.53,1.91c0.09,0.11 0.16,0.23 0.2,0.36c2.22,6.43 3.87,13.4 4.95,20.91c0.48,3.37 0.15,7.43 0.35,9.77c0.02,0.24 0.23,0.41 0.47,0.39c0.03,0 0.06,0 0.1,-0.02c4.37,-1.42 10.21,-2.1 13.91,-2.74c7.11,-1.25 12.2,-1.98 15.25,-2.21c0.29,-0.02 0.51,-0.28 0.48,-0.57l0,-0.04c-0.39,-2.33 -0.57,-3.85 -0.55,-4.54c0.41,-15.17 5.02,-28.39 13.83,-39.65c3.18,-2.43 5.28,-4.38 6.31,-5.85c2.83,-4.05 6.4,-6.48 10.98,-10.34c1.86,-1.57 3.73,-2.94 5.61,-4.11c5.71,-3.57 11.99,-6.97 18.83,-10.19c8.2,-3.87 12.69,-6.04 13.47,-6.51c4.75,-2.86 8.96,-5.57 12.61,-8.13c4.06,-2.85 8.06,-7.31 12,-13.38c0.76,-1.17 1.45,-2.8 2.07,-4.89c0.6,-1.99 1.74,-3.83 3.43,-5.5c6.98,-6.92 10.8,1.41 12.32,6.97c0.79,2.88 2.56,5.54 2.96,8.32c0.05,0.36 0.17,0.71 0.36,1.03c1.51,2.51 1.38,5.39 2.33,8.11c0.53,1.55 0.84,2.63 0.93,3.25c0.88,6.24 1.56,11.73 2.03,16.46c0.3,3.02 0.43,6.55 0.38,10.58c-0.09,6.85 -0.14,10.37 -0.15,10.57c-0.37,8.14 -2.26,17.86 -5.04,26.62c-1.65,5.23 -2.98,9 -3.97,11.31c-1.83,4.26 -4.82,9.5 -8.95,15.72c-6.65,10.02 -15.04,18.37 -25.16,25.05c-6.34,4.19 -12.57,7.04 -18.7,8.56c-9.48,2.35 -19.14,2.28 -28.95,0.88c-1.93,-0.28 -4.18,0.07 -5.7,0.83c-4.11,2.04 -8.47,3.77 -13.07,5.19c-7.01,2.17 -15.39,4.46 -25.15,6.88c-8.3,2.05 -17.02,3.36 -24.57,3.92c-2.36,0.17 -3.98,0.75 -4.86,1.73c0.17,1.62 0.1,3.15 -0.23,4.58c-1.27,5.47 -2,8.6 -2.2,9.37c-2.84,11.01 -7.57,21.84 -14.49,31.24c-0.3,0.41 -1.21,1.19 -2.72,2.33c-0.29,0.22 -0.65,0.34 -1.01,0.33c-2.21,0 -3.65,-0.75 -4.31,-2.25c-1.62,-3.69 -2.26,-7.59 -1.91,-11.7c0.03,-0.24 -0.14,-0.46 -0.39,-0.49c-0.16,-0.02 -0.32,0.05 -0.41,0.19c-1.22,1.68 -0.95,3.35 -1.68,5.21c-0.96,2.47 -1.51,4.7 -1.65,6.68c-0.03,0.35 -0.09,0.69 -0.2,1.02c-0.87,2.67 -1.38,5.03 -1.53,7.06c-0.29,3.96 -1.3,7.92 -0.77,12.75c0.26,2.38 0.83,5.38 1.7,8.99c5.59,23.19 15.38,44.6 29.38,64.21c3.73,5.22 8.6,9.95 12.93,14.25c1.52,1.5 2.01,3.27 1.47,5.31c-1.01,3.82 -3.29,6.97 -6.84,9.44c-2.2,1.53 -4.23,2.83 -6.09,3.88c-2.42,1.38 -7.11,3.08 -14.06,5.09c-1.46,0.42 -3.06,0.27 -4.29,0.44c-0.32,0.05 -0.57,0.32 -0.58,0.64c0,0.29 0.19,1.04 0.58,2.27c0.33,1.05 0.55,3.81 0.66,8.27c0,0.3 0.05,0.6 0.12,0.89c0.73,2.85 0.64,4.79 0.83,10.07c0.07,1.87 0.39,4.37 0.96,7.5c0.78,4.21 1.28,8.44 1.51,12.69c-0.27,0.68 -0.31,1.08 -0.55,1.05l-0.11,0c-0.3,0.02 -0.54,0.27 -0.54,0.57c0.09,8.76 0.18,14.42 0.26,16.99c0.11,3.71 -0.06,7.25 -0.52,10.62c-0.41,2.99 -0.77,6.52 -1.1,10.59c-0.63,7.79 -1.52,14.9 -2.69,21.35c-2.49,13.78 -6.08,27.75 -10.79,41.91c-0.29,0.87 -3.18,12.51 -3.67,15.79c-0.78,5.25 -1.65,10.33 -2.6,15.24c-1.92,6.75 -3.75,13.4 -5.49,19.97c-0.72,2.7 -1.92,18.83 -1.97,19.24c-0.77,6.29 -0.57,13.76 -0.69,21.5c-0.05,3.13 2.51,37.36 2.54,37.67c0.36,4.84 0.06,10.57 0.93,15.28c0.79,4.25 0.12,7.89 0.71,12.37c1.14,8.59 4.09,38.55 4.09,38.55c0.02,0.49 0.1,0.98 0.25,1.46c0.89,2.83 1.36,5.78 1.39,8.83c0,0.5 0.07,1.01 0.2,1.5c0.91,3.47 1.9,8.66 2.98,15.58c0.22,1.39 0.96,5.16 1.27,6.36c1.25,4.88 2.4,9.13 3.44,12.74c1.71,5.96 4.25,11.3 7.62,16.02c1.77,2.49 4.47,3.66 6.83,5.5c2.47,1.93 6.54,3.19 8.42,3.89c2.8,1.03 6.55,3.03 11.25,6c4.16,2.62 6.31,5.97 9.39,8.65c0.47,0.41 0.87,0.9 1.19,1.44c3.45,5.87 5.54,10.2 6.27,12.98c0.86,3.26 1.38,5.19 1.55,5.79c2.16,7.47 2.23,16.93 0.83,22.97c-2.1,9.1 -7.04,14.42 -14.49,19.28c-0.37,0.24 -0.76,0.43 -1.17,0.58c-2.47,0.89 -4.65,1.71 -6.54,2.45c-4.57,1.8 -10.03,2.48 -14.43,2.93c-0.44,0.04 -0.87,0.12 -1.3,0.24c-2.89,0.79 -5.08,1.19 -6.59,1.22c-2.68,0.04 -4.96,0.61 -7.02,0.59c-4.23,-0.06 -7.87,0.2 -10.93,0.77c-0.86,0.16 -1.75,0.23 -2.63,0.22c-5.67,-0.08 -10.11,0.05 -13.34,0.39c-5.49,0.59 -10.18,0.22 -16.3,0.89c-2.87,0.31 -9.17,0.55 -18.92,0.71c-3.61,0.07 -6,0.16 -7.16,0.28c-2.67,0.28 -5.07,0.36 -7.21,0.24c-2.61,-0.14 -6.23,-0.06 -10.85,0.23c-11.6,0.73 -22.48,1.15 -32.63,1.25c-1.31,-0 -4.82,0.26 -10.55,0.76c-1.47,0.13 -2.91,0.14 -4.34,0.03c-3.58,-0.26 -6.97,0.22 -10.87,0.22c-3.15,-0 -9.29,-0.01 -18.44,-0.03c-3.03,-0 -8.11,0.18 -15.26,0.53c-4.99,0.25 -10.09,0.41 -15.28,0.47c-2.37,0.03 -42.96,1.87 -42.96,1.87c-0.87,0 -1.72,0.17 -2.52,0.48c-8.04,3.12 -16.38,4.95 -25.03,5.48c-4.43,0.27 -8.32,0.99 -12.33,1.02c-12.41,0.1 -21.63,0.1 -27.67,0.01c-2.22,-0.03 -4.72,-0.19 -7.5,-0.47c-4.55,-0.46 -7.05,-0.7 -7.48,-0.73c-8.73,-0.61 -17.02,-1.93 -24.87,-3.95c-4.29,-1.1 -9.64,-3.23 -16.06,-6.39c-0.38,-0.18 -0.78,-0.3 -1.2,-0.33c-7.61,-0.6 -14.24,-0.97 -19.9,-1.12c-5.82,-0.15 -11.95,-1.11 -17.9,-1.02c-5.12,0.07 -9.46,-0.86 -15.33,-0.93c-3.55,-0.05 -7.05,-0.28 -10.49,-0.69c-4.66,-0.57 -8.74,-0.28 -14,-0.87c-3.07,-0.34 -6.47,-0.5 -10.21,-0.48c-6.48,0.04 -11.55,-1.09 -18.14,-0.96c-2.35,0.05 -5.79,-0.18 -10.32,-0.69c-4.61,-0.51 -8.74,-0.2 -13.78,-0.75c-3.94,-0.43 -7.53,-0.64 -10.77,-0.63c-4.56,0.01 -8.56,-1.04 -13.2,-0.92c-1.65,0.05 -4.2,-0.19 -7.65,-0.72c-1.96,-0.3 -4.52,-0.45 -7.68,-0.44c-0.66,0 -1.33,-0.07 -1.97,-0.2c-2.27,-0.47 -4.36,-0.7 -6.29,-0.7c-4.47,0 -8.51,-1.08 -12.83,-1.04c-0.49,0 -0.98,-0.06 -1.46,-0.17c-3.87,-0.96 -7.62,-0.58 -11.29,-1.36c-1.09,-0.23 -3.01,-0.39 -5.77,-0.48c-0.6,-0.02 -1.19,-0.11 -1.77,-0.26c-2.89,-0.78 -5.87,-0.6 -8.82,-1.05c-6.59,-1.01 -10.82,-1.71 -12.69,-2.1c-3.62,-0.77 -8.58,-1.29 -12.74,-2.36c-1.51,-0.39 -3.65,-0.93 -6.42,-1.63c-4.99,-1.25 -9.04,-3.4 -12.15,-6.45c-2.36,-2.31 -2.56,-4.9 -0.59,-7.75c0.66,-0.95 2.31,-1.88 4.96,-2.77c3.61,-1.21 7.97,-1.74 13.08,-1.57c0.14,0 0.28,-0.04 0.38,-0.13c0.25,-0.21 0.28,-0.42 0.08,-0.63c0.8,-0.1 1.08,-0.42 0.85,-0.96c-1.89,-4.45 -3.05,-8.78 -3.47,-13.01c-0.21,-2.13 -0.23,-9.32 -0.06,-21.56c0.07,-4.95 1.15,-9.54 1.1,-14.38c-0.02,-1.46 2.05,-17.39 6.2,-47.8c0.62,-4.48 0.53,-7.11 1.36,-10.74c0.31,-1.36 0.46,-2.83 0.43,-4.41c0,-0.49 0.04,-0.98 0.14,-1.46c0.47,-2.16 0.72,-3.54 0.77,-4.14c0.22,-2.61 1.31,-11.36 3.27,-26.26c0.56,-4.26 1.9,-8.66 2.62,-12.24c1.41,-6.93 3.74,-12.85 6.31,-18.24c1.32,-2.76 3.42,-6.26 6.31,-10.51c2.1,-3.08 3.84,-5.91 5.23,-8.49c2.27,-4.23 3.88,-7.15 4.82,-8.76c0.34,-0.58 0.61,-1.2 0.82,-1.84c1.67,-5.18 2.93,-9.06 3.78,-11.63c0.71,-2.17 0.63,-4.44 -0.24,-6.82c0.11,-0.41 0.15,-0.81 0.12,-1.21c-0.02,-0.23 -0.21,-0.4 -0.44,-0.38c-0.07,0 -0.14,0.03 -0.2,0.07l-4.5,3.12c-0.16,0.11 -0.33,0.21 -0.51,0.28c-6,2.39 -10.02,3.69 -12.05,3.88c-2.24,0.21 -4.4,-0.18 -6.47,-1.18c-0.83,-0.4 -1.18,-1.4 -0.78,-2.22l0.06,-0.12c3.29,-5.65 6.68,-10.64 9.14,-16.63c3.06,-7.45 5.12,-15.09 6.18,-22.91c0.02,-0.16 0.51,-5.3 1.48,-15.42c0.74,-7.79 0.67,-14.29 1.84,-20.59c0.54,-2.91 1.38,-8.35 2.51,-16.34c1.39,-9.78 3.89,-20.77 5.63,-28.32c2.17,-9.37 4.99,-18.76 8.46,-28.16c0.1,-0.27 -0.04,-0.56 -0.31,-0.65c-0.09,-0.03 -0.19,-0.04 -0.28,-0.02c-14.89,3.37 -30.04,1.84 -44.66,-2.44c-4.93,-1.44 -9.78,-3.53 -14.55,-6.26c-9.96,-5.71 -18.22,-13.2 -24.78,-22.48c-2.44,-3.45 -4.03,-6.92 -4.77,-10.42c-0.08,-0.35 -0.01,-0.72 0.18,-1.04c1.33,-2.18 2.69,-3.5 4.08,-3.97c2.8,-0.95 5.57,-1.76 8.3,-2.45c0.2,-0.05 0.32,-0.25 0.27,-0.45c-0.02,-0.06 -0.05,-0.11 -0.09,-0.16c-3.8,-4.02 -7.54,-7.4 -10.91,-11.82c-10.81,-14.19 -17.07,-30.24 -18.77,-48.15c-0.32,-3.36 -0.34,-10.07 -0.06,-20.13c0.01,-0.4 0.06,-0.8 0.15,-1.19c0.54,-2.35 0.82,-4.39 0.85,-6.14c0,-0.44 0.1,-0.86 0.27,-1.26l3.34,-7.69c0.26,-0.57 0.65,-1.07 1.15,-1.44c5.76,-4.25 8.82,3.05 11.42,7.91c0.07,0.14 0.24,0.19 0.38,0.12c0.05,-0.03 0.1,-0.07 0.12,-0.12c0.55,-0.98 0.82,-1.65 0.83,-2c0.41,-23.42 7.35,-44.35 20.8,-62.8c3.77,-5.18 8.38,-10.35 13.83,-15.52c11.33,-10.75 24.27,-20.05 38,-23.83c4.79,-1.31 10.22,-1.84 16.29,-1.57c4.59,0.21 7.66,2.12 9.19,5.73c0.11,0.28 0.19,0.57 0.23,0.87c0.48,3.97 0.09,7.15 -1.16,9.56c-3.78,7.24 -8.18,16.81 -10.65,26.15c-2.73,10.31 -4.37,21.05 -4.92,32.22c-0.36,7.32 0.47,13.99 1.29,22.8c0.31,3.28 0.7,6.31 1.17,9.09c3.51,20.47 13.51,42.18 28.18,57.22c4.89,5.01 9.33,7.69 16.53,12.8c0.49,0.36 1.17,0.32 1.62,-0.09c6.27,-5.61 12.26,-10.37 17.96,-14.26c1.02,-0.69 8.36,-5.36 22.02,-14.01c12.84,-8.13 22.22,-14.41 28.15,-18.83c5.11,-3.81 9.75,-7.6 13.92,-11.37c0.29,-0.26 0.32,-0.7 0.06,-0.99c-0.12,-0.13 -0.28,-0.21 -0.45,-0.23c-4.78,-0.56 -9.25,-1.81 -13.44,-2.81c-3.81,-0.92 -11.41,-4.84 -12.88,-9.04c-1.71,-4.88 1.43,-7.43 5.74,-9.97c5.61,-3.31 11.14,-7.58 16.59,-12.79c8.09,-7.75 13.72,-16.83 17.82,-26.91c1.01,-2.49 2.19,-5.52 3.53,-9.08c0.28,-0.76 0.03,-1.61 -0.62,-2.08c-5.45,-4 -10.07,-8.55 -13.85,-13.64c-0.05,-0.07 -0.08,-0.14 -0.11,-0.21l-2.27,-5.39c-0.05,-0.13 -0.19,-0.19 -0.32,-0.14c-0.07,0.03 -0.12,0.08 -0.15,0.15c-0.28,0.82 -0.43,1.38 -0.46,1.69c-0.35,4.56 -1.38,14.98 -8.44,10.8c-1.43,-0.85 -3.3,-3 -5.6,-6.47c-5.18,-7.82 -8.52,-16.36 -10.02,-25.63c-1.83,-11.34 -1.75,-21.75 0.24,-31.23c1.18,-5.66 1.76,-8.65 1.74,-8.96c-0.03,-0.32 0.06,-0.63 0.24,-0.89c0.57,-0.78 0.81,-1.28 0.72,-1.51c-0.12,-0.33 -0.48,-0.5 -0.8,-0.38c-0.13,0.05 -0.24,0.14 -0.32,0.26c-1.59,2.57 -4.03,5.78 -7.32,9.65c-1.25,1.47 -2.51,2.96 -3.8,4.45c-2.75,3.22 -6.66,8.94 -10.45,5.77c-3.52,-2.94 -4.1,-9.79 -3.94,-13.92c0.39,-10.28 2.83,-20.43 7.3,-30.46c5.36,-12.01 11.5,-23.75 18.43,-35.22c0.09,-0.16 0.04,-0.36 -0.12,-0.45c-0.08,-0.04 -0.17,-0.06 -0.26,-0.03c-3.15,1.03 -6.65,1.84 -10.52,2.42c-5.79,0.87 -9.36,1.33 -10.69,1.4c-5.58,0.29 -10.42,-0.4 -14.51,-2.07c-5.61,-2.28 -8.9,-6.49 -9.87,-12.64c-0.23,-1.43 0.11,-4.53 1.02,-9.28c2.29,-12.07 1.02,-24.2 -5.6,-34.63c-3.43,-5.39 -7.29,-10.51 -11.59,-15.35c-4.03,-4.52 -11.79,-14.11 -16.78,-19.4c-3.04,-3.23 -8.04,-10.21 -15.01,-20.96c-6.21,-9.58 -10.3,-21.52 -12.29,-35.82c-0.03,-0.19 -0.04,-2.8 -0.05,-7.84c0,-6.27 1.49,-12.63 3.61,-17.85c2.61,-6.42 8.16,-12.21 13.54,-16.2c8.5,-6.3 15.46,-10.43 25.95,-16.18c15.38,-8.41 30.37,-17.7 44.98,-27.86c1.44,-1 4.6,-2.69 9.48,-5.08c0.28,-0.14 0.46,-0.41 0.48,-0.72l0.48,-7.18c1.49,-1.01 2.15,-2.72 1.98,-5.11c-0.02,-0.32 0.02,-0.65 0.13,-0.96c1.37,-3.83 2.41,-8.03 4.16,-11.94c2.49,-5.58 5.81,-10.88 9.96,-15.89c5.11,-6.18 10.22,-11.4 15.32,-15.66c9.06,-7.57 20.75,-14.31 32.69,-18.66c7.84,-2.85 12.88,-4.52 15.12,-5c1.75,-0.37 3.2,-0.82 4.33,-1.34c0.14,-0.07 0.29,-0.12 0.44,-0.15c8.59,-1.86 16.3,-3.23 23.13,-4.1c1.16,-0.15 3.2,-0.52 6.13,-1.13c1.27,-0.27 3.34,-0.53 6.22,-0.78c3.8,-0.33 6.9,-0.72 9.3,-1.16c0.69,-0.13 3.78,-0.68 9.29,-1.66c0.07,-0.01 1.29,-0.09 3.66,-0.23c1.65,-0.1 2.85,-0.75 3.6,-1.96c0.41,0 0.51,-0.2 0.31,-0.6c0.17,-0.27 0.26,-0.54 0.28,-0.79c0.02,-0.23 -0.1,-0.47 -0.35,-0.7c-4.8,-4.55 -8.76,-8.96 -11.88,-13.23c-1.24,-1.69 -2.68,-4.12 -4.33,-7.29c-3.57,-6.85 -3.35,-13.64 0.68,-20.35c7.75,-12.91 19.03,-16.76 33.84,-11.55c3.23,1.14 5.69,5.39 7.31,7.43c0.8,0.99 1.46,2.08 1.98,3.25l2.71,6.13c0.33,0.75 0.58,1.54 0.73,2.35c0.83,4.3 1.49,7.55 1.98,9.75c0.28,1.28 0.27,3.05 -0.04,5.31c-0.05,0.32 0.03,0.65 0.21,0.93c0.56,0.85 1.25,1.31 2.08,1.38c0.37,0.04 0.75,-0.06 1.06,-0.27c3.87,-2.62 11.6,-7.58 23.2,-14.89c4.59,-2.89 8.16,-4.95 10.69,-6.17c4.88,-2.35 9.05,-4.95 14.82,-7.18c4.35,-1.68 9.6,-3.69 15.75,-6.04c2.94,-1.11 6.1,-2.08 9.48,-2.9c5.24,-1.27 12.31,-3.27 18.41,-4.13c3.34,-0.47 5.3,-0.76 5.89,-0.87c5.25,-1.02 10.91,-0.93 15.76,-1.46c3.58,-0.4 6.75,-0.41 9.52,-0.02c3.77,0.51 11.58,0.57 16.94,1.64c6.49,1.31 11,3.11 16.45,5.03c4.67,1.65 9.64,4.33 14.92,8.05c9.67,6.81 16.39,15.95 20.17,27.4c0.07,0.21 0.24,0.42 0.53,0.64c0.19,0.14 0.34,0.35 0.41,0.58c2.56,8.83 3.58,17.62 3.06,26.35c-0.3,5.11 -0.54,8.58 -0.72,10.41c-0.33,3.43 -1.02,6.84 -2.09,10.23c-1.49,4.7 -2.59,8.23 -3.31,10.59c-0.41,1.33 -1.2,2.78 -2.38,4.37c-1.47,1.97 -2.21,4.1 -2.22,6.37l-0.01,0Zm156.1,333.44c0.03,0.27 0.27,0.46 0.54,0.43c7.32,-0.75 14.15,-2.52 20.49,-5.3c5.11,-2.24 5.76,-8.52 4.55,-13.05c-0.87,-3.26 -1.4,-5.45 -4.88,-5.92c-2.82,-0.39 -5.77,-0.39 -8.85,-0.01c-5.34,0.67 -10.89,1.79 -16.66,3.38c-1.05,0.29 -1.66,1.38 -1.37,2.43c0.11,0.4 0.34,0.75 0.66,1c4.47,3.57 6.15,8.35 5.04,14.33c-0.23,1.22 0.37,1.85 0.48,2.71Zm-362.49,35.87c-0.01,0.14 1.45,1.82 1.7,1.84c14.77,1.19 30.08,1.06 45.92,-0.39c4.21,-0.39 8.99,-1.26 14.33,-2.63c0.6,-0.15 0.94,-0.51 1.02,-1.06c0.04,-0.31 -0.07,-2.41 -1.06,-2.81c-5.96,-2.43 -12.31,-3.6 -19.06,-3.5c-5.61,0.09 -9.9,0.35 -12.87,0.79c-7.39,1.09 -14.53,2.76 -21.42,5.01c-2.92,0.95 -5.21,1.23 -7.86,1.96c-0.44,0.12 -0.67,0.38 -0.7,0.79Zm93.66,459.36c-0.33,-0.88 -1.31,-1.32 -2.2,-0.99c-0.08,0.03 -0.17,0.07 -0.24,0.11l-33.17,18.88c-0.91,0.52 -1.54,1.41 -1.74,2.43c-1.69,8.95 -3.11,18.08 -3.44,27.13c-0.03,0.97 -0.31,3.18 -0.84,6.63c-0.07,0.44 -0.1,0.88 -0.1,1.32c0.04,5.43 -0.04,9.37 -0.25,11.82c-0.68,8.01 -0.47,16.76 -0.46,24.15c-0,3.5 0.63,6.25 0.5,9.98c-0.07,1.98 0.09,4.47 0.48,7.47c0.99,7.52 2.15,13.73 3.49,18.64c0.35,1.25 0.99,2.79 1.53,3.94c0.39,0.82 0.87,1.6 1.43,2.32c2.51,3.25 5.48,6.8 8.92,10.67c0.71,0.8 2.46,3.26 5.27,7.37c0.21,0.3 0.52,0.51 0.87,0.6c4.03,0.98 8.34,1.32 12.95,1.02c1.44,-0.09 2.23,-0.93 2.38,-2.51c1.05,-11.04 -1.15,-21.21 -6.58,-30.5c-0.41,-0.71 -0.17,-1.61 0.54,-2.02c0.22,-0.13 0.48,-0.2 0.74,-0.2l0.29,0c1.7,0 3.3,0.78 4.34,2.12c4.77,6.14 7.56,13.07 8.36,20.8c0.29,2.75 0.38,6.06 0.27,9.93c-0.03,1.49 0.75,2.3 2.34,2.42c3.75,0.29 7.93,0.39 12.53,0.31c2.98,-0.05 4.41,-0.88 4.78,-3.86c0.37,-2.95 0.61,-5.66 0.74,-8.13c0.09,-1.8 -0.35,-5.75 -1.32,-11.85c-0.69,-4.33 -2.45,-7.98 -4.24,-11.91c-0.32,-0.71 -0,-1.56 0.71,-1.88c0.23,-0.1 0.48,-0.14 0.72,-0.12c3.36,0.33 6.29,4.73 7.79,7.73c2.24,4.51 3.44,8.99 3.61,13.42c0.19,5.25 0.05,9.54 -0.4,12.89c-0.15,1.09 0.53,2.13 1.59,2.42c2.99,0.82 5.02,0.4 6.27,-2.76c4.22,-10.69 2.73,-22.54 -2.99,-32.02c-2.07,-3.44 -5.13,-6.08 -9.17,-7.91c-2.45,-1.12 -6.96,-3 -13.52,-5.65c-4.2,-1.7 -8.86,-4.97 -13.99,-9.81c-0.3,-0.29 -0.56,-0.61 -0.77,-0.97c-3.68,-6.26 -6.3,-11.97 -7.86,-17.14c-1.85,-6.11 -3.32,-13.21 -4.39,-21.28c-0.44,-3.29 -0.35,-9.2 0.27,-17.75c0.3,-4.25 2.1,-9.21 3.48,-12.69c0.19,-0.48 2.95,-5.63 8.29,-15.45c1.42,-2.6 3.04,-6.88 2.19,-9.12Zm-203.96,-55.4c-0.16,0.23 -0.28,0.59 -0.36,1.09c-0.8,4.88 -1.99,9.52 -3.56,13.93c-5.01,14.03 -11.37,26.35 -19.07,36.96c-5.36,7.39 -10.77,13.47 -16.24,18.24c-4.97,4.33 -9.83,8.25 -14.58,11.76c-8.35,6.18 -18.01,11.64 -27.07,17.09c-5.41,3.26 -6.35,8.16 -8.01,14.31c-0.09,0.32 -0.14,0.66 -0.13,1c-0,3.15 -0.97,6.14 -1.07,9.5c-0.21,7.2 -0.23,13.88 -0.04,20.05c0.17,5.95 2.83,14.35 7.43,17.58c4,2.8 8.16,5.14 11.38,9.02c8.69,10.46 12.64,23.39 12.71,36.96c-0,0.65 0.53,1.17 1.19,1.16l0.07,0c6.8,-0.48 11.8,-0.75 15.01,-0.82c3.19,-0.06 6.25,-0.92 9.34,-0.88c3.75,0.04 8.12,-0.14 13.12,-0.55c8.82,-0.72 17.12,-0.4 25.41,-0.94c11.13,-0.73 20.59,-0.64 32.15,-0.59c0.54,0 0.97,-0.43 0.97,-0.97l-0,-0.08c-0.03,-0.31 -0.06,-0.69 -0.11,-1.14c-2.35,-23.55 -4.77,-43.53 -7.26,-59.94c-1.27,-8.35 -2.78,-18.71 -4.55,-31.08c-0.85,-5.99 -1.53,-11.71 -2.04,-17.18c-0.07,-0.77 -0.17,-1.48 -0.32,-2.13c-0.75,-3.48 -0.48,-7.31 -0.81,-10.69c-0.27,-2.82 -0.47,-5.68 -0.58,-8.58c-0.45,-11.63 -0.55,-21.56 -0.28,-29.77c0.01,-0.36 -0.27,-0.66 -0.63,-0.67c-0.17,0 -0.33,0.05 -0.45,0.16l-1.64,1.41c-0.1,0.09 -0.21,0.15 -0.33,0.2c-3.93,1.65 -7.85,2.7 -11.77,3.15c-0.46,0.05 -0.93,0.04 -1.38,-0.05c-3.1,-0.61 -6.45,-1.09 -5.38,-5.44c0.47,-1.89 1.56,-5.47 3.26,-10.73c1.7,-5.26 2.55,-10.62 3.32,-15.74c0.6,-3.97 -0.32,-7.4 -2.76,-10.31c-1.03,-1.23 -2.38,-3 -4.06,-5.31c-0.18,-0.24 -0.52,-0.29 -0.76,-0.11c-0.05,0.04 -0.09,0.08 -0.12,0.13Zm96.43,-709.02c-0.76,0.43 -0.92,0.81 -0.47,1.15l0.06,0.38c0.04,0.25 0.27,0.42 0.52,0.38c0.04,0 0.08,-0.02 0.11,-0.03c3.05,-1.31 6.09,-2.5 9.14,-3.57c21.5,-7.57 32.58,-11.72 50.42,-16.04c4.48,-1.08 13.87,-3.52 20.15,-4.81c2.7,-0.55 10.08,-1.9 22.13,-4.04c3.41,-0.6 5.92,-0.95 7.53,-1.06c2.23,-0.15 4.74,-0.46 7.52,-0.95c2.6,-0.45 6.36,-0.85 11.29,-1.22c12.01,-0.89 24.94,-1.11 38.78,-0.64c6.46,0.22 12.72,1.19 18.17,-2.62c2.63,-1.85 3.12,-4.32 1.46,-7.42c-1.59,-2.97 -5.46,-4.27 -8.61,-4.75c-6.07,-0.94 -13.47,-1.58 -22.2,-1.91c-6.51,-0.24 -12.91,0.41 -18.59,0.31c-5.05,-0.09 -9.64,0.96 -14.89,1.49c-4.22,0.43 -7.93,0.93 -11.14,1.51c-13.39,2.4 -26.04,5.46 -37.95,9.17c-0.97,0.31 -6.72,2.3 -17.24,5.98c-5.95,2.08 -11.27,4.21 -15.98,6.38c-8.19,3.78 -13.38,6.24 -15.55,7.38c-5.93,3.11 -13.96,7.57 -24.1,13.4c-0.86,0.49 -1.05,1 -0.56,1.53Zm218.94,924.2c0.29,-0.31 0.31,-0.82 0.05,-1.51c0.67,-0.19 0.86,-0.69 0.55,-1.5c-0.8,-2.15 -1.46,-4.28 -1.97,-6.39c-0.93,-3.81 -1.52,-5.96 -1.78,-6.46c-0.17,-0.33 -0.87,-2.95 -2.11,-7.87c-0.26,-1.05 -1.03,-3.66 -2.3,-7.84c-2.13,-6.96 -4.08,-13.69 -5.87,-20.18c-0.95,-3.43 -1.56,-5.58 -1.84,-6.44c-1.96,-5.94 -2.51,-10.49 -4.35,-16.22c-0.45,-1.39 -1.88,-6.63 -4.29,-15.72c-1.05,-3.96 -1.93,-7.62 -2.65,-10.98c-0.35,-1.67 -1.28,-5.32 -2.79,-10.95c-0.15,-0.56 -0.43,-1.68 -0.83,-3.35c-4.05,-16.95 -7.25,-32.52 -9.59,-46.72c-0.05,-0.29 -0.07,-0.57 -0.06,-0.86c0.1,-3.57 -0.56,-7.05 -1.99,-10.44c-0.27,-0.62 -0.99,-0.91 -1.61,-0.65l-9.13,3.88c-0,0 -0.09,0.04 -0.14,0.07c-1.66,1.07 -3.26,1.79 -4.81,2.14c-0.35,0.09 -0.69,0.21 -1.02,0.36c-3.63,1.76 -7.55,3.44 -11.76,5.05c-0.19,0.07 -0.61,0.14 -1.24,0.19c-0.32,0.03 -0.65,0.1 -0.95,0.22l-14.82,6.01c-0.64,0.26 -1.19,0.71 -1.58,1.28l-11.82,17.59c-0,0 -0.02,0.03 -0.03,0.04c-0.62,1.49 -1.14,2.51 -1.57,3.07c-3.67,4.81 -6.32,10.25 -7.97,16.3c-0.02,0.07 -0.03,0.14 -0.04,0.21l-0.74,8.91c-0.01,0.1 -0,0.2 0.02,0.3c0.36,1.49 0.48,3.66 0.36,6.51c-0.02,0.47 0.01,0.93 0.09,1.39c1.52,8.84 3.99,16.24 7.4,22.19c2.79,4.85 7.69,8.35 13.59,10.31c3.19,1.06 9.68,3.47 12.98,5.66c9.23,6.14 15.48,14.79 17.94,25.45c2.51,10.9 2.68,21.59 -2.43,31.69c-0.19,0.37 -0.04,0.82 0.33,1.01c0.07,0.03 0.14,0.06 0.21,0.07c2.41,0.43 4.76,0.72 7.05,0.87c8.44,0.55 14.94,1.06 19.49,1.51c8.95,0.9 18.53,1.15 28.23,2.44c1.43,0.19 3.36,-0.02 5.79,-0.64Zm-235.43,-1018.3l0.28,-1.34c-3.34,0.37 -6.56,0.69 -9.66,0.98c-3.82,0.35 -7.04,0.73 -9.65,1.12c-14.81,2.24 -23.16,3.23 -32.72,6.55c-2.97,1.03 -7.33,2.78 -13.09,5.25c-12.12,5.2 -22.33,12.22 -31.73,21.35c-2.09,2.02 -3.99,4.28 -5.72,6.78c-2.4,3.48 -4.01,5.96 -4.83,7.45c-5.65,10.29 -7.06,21.02 -4.22,32.19c1.61,6.36 5.43,11.72 10.35,15.61c6.91,5.48 15.15,8.83 24.74,10.04c9.35,1.19 19.43,0.6 30.24,-1.77c12.89,-2.83 25.74,-7.53 38.55,-14.12c10.7,-5.51 20.14,-10.49 28.33,-14.95c12.33,-6.71 21.85,-11.53 28.57,-14.48c15.05,-6.59 27.29,-11.41 36.7,-14.44c17.54,-5.65 35.66,-9.5 54.36,-11.56c13.07,-1.45 24.82,-1.75 35.24,-0.92c6.12,0.49 13.44,0.82 21.97,0.99c2.09,0.05 3.67,-0.2 4.74,-0.75c13.24,-6.74 25.61,-18.66 29.39,-33.51c3.12,-12.29 2.6,-24.21 -1.57,-35.76c-3.47,-9.62 -9.92,-18.05 -19.06,-23.41c-4.53,-2.65 -7.78,-4.34 -9.75,-5.07c-16.13,-5.95 -32.12,-5.7 -50.61,-3.64c-9.54,1.07 -19.83,3.86 -27.47,6.57c-13.63,4.83 -27.1,11.19 -40.43,19.08c-7.24,4.29 -16,9.99 -26.27,17.08c-16.71,11.55 -29.87,19.98 -44.68,28.18c-5.49,3.04 -11.68,5.17 -18.57,6.38c-2.32,0.41 -3.5,0.12 -5.85,-0.07c-0.3,-0.02 -0.53,-0.27 -0.51,-0.57c0.01,-0.18 0.11,-0.34 0.26,-0.43c2.37,-1.5 6.13,-3.72 11.28,-6.67c0.77,-0.44 1.39,-0.99 1.85,-1.64c0.09,-0.13 0.06,-0.31 -0.07,-0.4c-0.03,-0.02 -0.06,-0.04 -0.09,-0.05c-0.09,-0.02 -0.19,-0.04 -0.3,-0.05Zm300.592,761.646c-0.02,-0.131 -0.098,-0.217 -0.232,-0.256c-0.25,-0.09 -0.41,-0.03 -0.48,0.17c-0.28,-0.5 -0.58,-0.6 -0.9,-0.3c-0.3,0.28 -0.66,0.86 -1.07,1.73c-0.31,0.67 -0.76,1.28 -1.31,1.79c-1.55,1.41 -3.14,3.31 -4.77,5.71c-1.69,2.48 -3.18,4.45 -4.46,5.91c-6.28,7.15 -12.9,13.94 -19.85,20.37c-11.73,10.86 -24.19,20 -37.36,27.43c-8.98,5.07 -14.71,8.16 -17.2,9.27c-2.57,1.15 -3.74,3.16 -3.49,6.02c0.74,8.52 2.52,16.38 5.32,30.37c1.66,8.28 2.81,17.78 5.08,26.26c5.57,20.8 11.14,42.79 16.72,65.98c1.31,5.45 5.24,19.15 11.78,41.1c2.88,9.65 6.63,18.16 11.57,25.86c4.76,7.41 11.25,12.18 19.46,14.31c7.56,1.96 17.32,1.18 25.59,0.44c4.11,-0.37 4.11,-3.84 4.41,-6.98c0.98,-10.57 -1.17,-20.39 -6.45,-29.48c-0.24,-0.42 -0.1,-0.95 0.31,-1.19c0.12,-0.07 0.26,-0.11 0.41,-0.11c1.31,-0.05 2.52,0.32 3.65,1.11c10.39,7.24 13.54,20.64 11.36,32.6c-0.48,2.61 -0.17,4.09 2.79,3.95c4.57,-0.21 9.16,-0.46 13.76,-0.75c2.64,-0.17 8.68,-0.25 9.97,-2.44c0.63,-1.07 1,-2.29 1.11,-3.68c0.94,-11.75 -0.1,-22.34 -7.59,-31.8c-0.57,-0.71 -0.4,-1.77 0.37,-2.37c0.06,-0.05 0.12,-0.09 0.18,-0.13c0.63,-0.39 1.4,-0.36 2.31,0.07c10.05,4.81 14.83,17.55 14.5,27.87c-0.05,1.59 -0.12,4.52 -0.23,8.81c-0.02,0.89 0.68,1.64 1.58,1.66l0.07,0c12.02,-0.23 14.88,-11.46 13.33,-21.14c-0.75,-4.64 -1.47,-7.88 -2.17,-9.73c-4.11,-10.91 -11.26,-18.22 -21.43,-21.94c-4.49,-1.65 -7.33,-2.79 -8.53,-3.44c-7.78,-4.21 -13.52,-10.44 -17.22,-18.7c-1.84,-4.09 -2.97,-6.87 -3.4,-8.32c-1.69,-5.76 -3.58,-13.38 -5.69,-22.87c-0.17,-0.76 -0.34,-1.53 -0.52,-2.31c-4.66,-20.33 -7.99,-42.66 -9.99,-66.99c-1.08,-13.09 -1.71,-25.77 -1.9,-38.02c-0.37,-24.89 -0.03,-45.05 1.02,-60.49c0.05,-0.74 0.26,-2.47 0.61,-5.19c0.06,-0.43 -0.12,-0.68 -0.54,-0.77c-0.223,-0.04 -0.382,0.161 -0.478,0.606Zm-263.292,-791.646c-0.42,-9.06 -2.54,-17.49 -6.35,-25.3c-1.74,-3.56 -5.11,-8.63 -9.34,-7.57c-7.05,1.75 -9.81,6.04 -8.27,12.87c0.09,0.4 0.22,0.79 0.39,1.16c0.93,2.02 2.55,4.74 4.86,8.16c3.31,4.9 6.88,9.51 10.7,13.84c1.49,1.69 3.14,1.89 4.97,0.62c1.49,-1.03 3.11,-2.24 3.04,-3.78Zm238.51,412.1c3.46,-0.06 9.16,-1.02 18.05,-2.37c4.48,-0.68 8.35,-1.2 11.61,-1.57c5.46,-0.61 9.33,-1.13 11.6,-1.57c12.69,-2.47 24.6,-4.38 35.72,-5.72c7.97,-0.97 14.1,-1.86 18.41,-2.69c4.61,-0.88 8.2,-2.36 8.57,-7.4c0.43,-5.81 -1.52,-9.91 -5.83,-12.31c-3.35,-1.86 -7.07,-1.87 -10.75,-1.3c-9,1.41 -17.02,2.56 -24.06,3.45c-5.85,0.74 -13.24,2.38 -19.65,2.64c-0.29,0.01 -0.58,0.06 -0.87,0.14c-0.91,0.27 -1.87,0.47 -2.88,0.62c-3.53,0.53 -10.36,1.29 -20.51,2.27c-2.2,0.21 -4.36,0.24 -6.47,0.07c-1.24,-0.1 -2.38,0.69 -2.73,1.88c-2.33,7.93 -6.37,13.51 -11.63,21.22c-0.52,0.77 -0.32,1.82 0.45,2.35c0.29,0.19 0.63,0.3 0.97,0.29Zm-590.19,156.68c-0.33,-0.05 -0.64,0.19 -0.69,0.52c-0.01,0.09 -0,0.19 0.03,0.28c1.13,3.28 2.31,7.71 3.54,13.3c3.58,16.29 12.22,30.96 24,42.57c7.25,7.14 16.61,12.67 25.17,17.3c0.62,0.33 0.86,1.11 0.52,1.73c-0.11,0.2 -0.27,0.37 -0.46,0.49c-2.19,1.35 -4.53,2.27 -7.02,2.74c-5.79,1.1 -11.59,1.7 -17.4,1.8c-0.31,0 -0.57,0.26 -0.56,0.58c-0,0.14 0.06,0.28 0.15,0.38c3.73,4.07 8.29,7.22 13.68,9.43c9.04,3.71 14.91,5.8 22.6,6.55c12,1.17 24.84,0.86 35.87,-4.28c0.85,-0.39 1.57,-1 2.11,-1.75c1.55,-2.15 3.11,-4.66 4.68,-7.53c3.45,-6.31 6.8,-11.39 10.04,-15.24c1.12,-1.33 2.47,-2.4 4.06,-3.23c0.43,-0.22 0.59,-0.75 0.37,-1.17c-0.08,-0.15 -0.2,-0.27 -0.35,-0.36c-17.36,-9.87 -30.37,-23.9 -39.03,-42.08c-3.65,-7.68 -6.23,-13.95 -7.72,-18.8c-0.88,-2.86 -2.35,-8.85 -4.41,-17.96c-3.24,-14.3 -4.28,-27.99 -3.76,-41.81c0.21,-5.74 0.59,-11.27 1.12,-16.6c1.31,-13.04 4.78,-25.2 10.39,-36.47c0.12,-0.23 0.03,-0.51 -0.2,-0.63c-0.08,-0.04 -0.18,-0.06 -0.28,-0.05c-1.77,0.23 -3.74,0.95 -5.91,2.18c-18.29,10.34 -32.13,25.07 -41.52,44.2c-2.7,5.49 -5.2,13 -7.49,22.51c-0.61,2.55 -1.03,5.51 -1.25,8.89c-0.3,4.81 -0.48,7.8 -0.54,8.97c-0.36,7.15 0.24,15.74 2.21,23.19c1.08,4.09 2.15,7.87 3.21,11.32c0.18,0.59 -0.15,1.21 -0.73,1.39c-0.18,0.06 -0.37,0.06 -0.55,0.02c-7.55,-1.58 -12.35,-5.82 -18.73,-10.13c-1.86,-1.27 -3.58,-2.02 -5.15,-2.25Zm816.06,-296.25c-5.15,4.21 -10.43,8.09 -15.86,11.65c-8.94,5.86 -18.59,9.73 -27.53,14.13c-9.82,4.84 -18.44,11.47 -25.85,19.9c-8.43,9.59 -14.2,23.21 -12.83,36.15c0.07,0.71 0.47,2.05 1.18,4.04c0.05,0.13 0.2,0.2 0.34,0.15c0.07,-0.03 0.53,0.02 0.9,0.47c0.2,0.24 0.54,0.28 0.79,0.1c1.63,-1.18 2.92,-2.4 3.86,-3.67c2.63,-3.53 5.85,-7.47 9.66,-11.8c2,-2.27 4.04,-4.24 6.13,-5.93c3.87,-3.13 6.12,-4.88 6.74,-5.26c4.13,-2.5 8.17,-5.1 12.11,-7.79c0.24,-0.16 0.57,-0.09 0.73,0.15c0.11,0.16 0.12,0.37 0.03,0.54l-0.35,0.63c-10.85,12.43 -20.5,25.7 -28.94,39.83c-0.36,0.6 -0.66,1.38 -0.9,2.34c-0.11,0.42 0.14,0.85 0.56,0.96c0.06,0.02 0.12,0.02 0.19,0.03c2.27,0.05 4.72,-0.25 7.35,-0.88c15.83,-3.81 29.32,-12.62 39.83,-24.69l4.91,-8.03c-0,0 0.03,-0.03 0.06,-0.04c0.11,-0.02 0.21,0 0.32,0.05c0.13,0.07 0.2,0.22 0.16,0.36c-0.86,3.54 -2.37,9.08 -4.52,12.58c-5.08,8.31 -12.1,16.71 -20.74,21.27c-4.43,2.34 -9.29,4.49 -14.56,6.46c-2.29,0.86 -4.35,1.41 -6.18,1.65c-0.23,0.03 -0.39,0.24 -0.36,0.47c0.02,0.14 0.1,0.26 0.22,0.32c1.41,0.73 3.1,1.13 5.06,1.21c2.79,0.1 5.44,0.26 7.93,0.49c6.28,0.14 12.24,-1.55 17.88,-5.08c6.05,-3.77 10.64,-7.44 13.78,-11c4.93,-5.59 7.9,-9.29 8.91,-11.1c5.13,-9.22 8.47,-16.2 10,-20.95c6.23,-19.25 7.68,-38.82 4.36,-58.72c-0.32,-1.91 -0.87,-2.8 -1.65,-2.69c-0.13,-0.37 -0.3,-0.59 -0.51,-0.68c-0.2,-0.08 -0.44,0.02 -0.73,0.31c-0.85,0.83 -1.67,1.52 -2.48,2.07Zm-635.17,582.5c-6.29,7.62 -0.58,-0.94 0.42,-3c0.1,-0.2 0.16,-0.43 0.18,-0.65l0.25,-2.99l-0,-0.03c3.01,-10.76 5.16,-22.34 6.47,-34.73c0.79,-7.59 1.09,-13.55 0.89,-17.88c-0.56,-11.93 -1.83,-25.21 -3.81,-39.86c-0.38,-2.82 -0.78,-6.26 -1.2,-10.31c-1.04,-10.19 -0.59,-19.31 -1,-30.06c-0,-0.2 0.15,-0.38 0.35,-0.39c0.18,0 0.34,0.11 0.38,0.29c2.49,10.48 5.53,20.72 9.12,30.72c1.03,2.84 2.05,5.07 3.06,6.7c3.29,5.25 7.4,12.02 12.32,20.33c0.9,1.52 1.95,2.96 3.11,4.3c8.57,9.86 17.89,19.75 27.94,29.67c0.2,0.2 0.53,0.2 0.74,0c0.06,-0.06 0.1,-0.12 0.12,-0.2c2.17,-6.31 3.62,-12.23 4.35,-19.1c0.68,-6.43 1.88,-18.46 3.59,-36.1c0.1,-1.02 0.13,-2.29 0.1,-3.82c-0,-0.18 0.14,-0.33 0.32,-0.34c0.1,0 0.2,0.04 0.27,0.13c0.39,0.49 0.7,1.11 0.94,1.86c2.15,6.8 3.6,12.81 4.34,18.03c0.79,5.61 1.54,10.35 2.24,14.22c3.61,20.06 4.64,41.15 3.07,63.28c-0.07,0.93 -0.06,2.01 0.03,3.24c0.02,0.26 0.24,0.46 0.5,0.44c0.1,0 0.19,-0.04 0.26,-0.1c0.82,-0.63 1.45,-1.27 1.88,-1.92c1.73,-2.61 3.55,-5.11 5.45,-7.51c3.93,-4.97 8.24,-11.57 11.21,-16.31c0.09,-0.13 0.27,-0.17 0.4,-0.08c0.08,0.05 0.12,0.14 0.13,0.23c-0.04,9.1 0.56,18.95 -0.14,28.85c-0.59,8.55 -1.13,16.19 -1.6,22.93c-0.32,4.65 -0.45,8.03 -0.39,10.13c0.23,7.53 -0.77,14.18 -0.46,21.83c0.12,2.9 0.22,6.79 0.3,11.68c-0,0.17 -0.82,7.3 -0.82,7.3c-0,0 -0.01,0.08 -0.02,0.11c-0.3,5.03 -0.07,10.3 0.7,15.81c1.95,13.97 3.59,24.84 4.94,32.61c1.8,10.35 3.1,19.8 3.9,28.35c1.51,16.23 2.31,25.75 2.39,28.56c0.43,14.87 0.93,25.79 1.52,32.75c0.31,3.59 1.38,7.28 3.22,11.07c4.83,9.9 16.96,13.7 27.27,13.9c0.23,0 0.46,0.03 0.69,0.08c4.43,0.96 6.99,-0.93 7.66,-5.67c1.47,-10.45 0.81,-20.65 -1.97,-30.6c-0.33,-1.19 -0.34,-2.32 -0.04,-3.38c0.12,-0.41 0.55,-0.66 0.96,-0.54c0.09,0.03 0.18,0.07 0.26,0.13c3.73,2.79 6.41,6.25 8.02,10.36c3.69,9.42 3.61,18.4 2.47,28.15c-0.08,0.69 0.38,1.32 1.06,1.46c4.33,0.89 8.87,1.18 13.62,0.89c4.29,-0.27 9.04,-0.66 14.24,-1.18c3.41,-0.34 4.93,-3.54 5.56,-6.63c2.55,-12.47 -0.08,-24.75 -5.47,-36.12c-0.25,-0.54 -0.36,-0.91 -0.32,-1.12c0.12,-0.7 0.79,-1.16 1.48,-1.04c0.12,0.02 0.25,0.06 0.36,0.12c5.05,2.61 8.87,6.64 11.48,12.1c4.54,9.53 4.12,18.95 2.36,29.24c-0.22,1.25 0.63,2.44 1.88,2.66c0.05,0 0.09,0.01 0.14,0.02c4.22,0.46 9.19,-1.77 13.67,-3.78c7.41,-3.33 10.55,-10.89 10.01,-19.14c-0.57,-8.8 -3.2,-16.48 -7.88,-23.04c-0.21,-0.3 -2.34,-3.08 -6.38,-8.34c-5.05,-6.59 -8.39,-14.22 -10.02,-22.9c-1.69,-9.05 -2.57,-15.29 -2.62,-18.71c-0.21,-13.83 -0.32,-23.65 -0.32,-29.46c-0,-1.96 0.3,-5.26 0.17,-8.05c-0.11,-2.37 -0.06,-4.37 0.15,-6c0.5,-3.8 1.17,-12.96 2,-27.49c0.27,-4.54 1.67,-12.89 1.63,-17.6c-0.04,-4.32 0.8,-8.22 1.26,-13.62c0.56,-6.69 0.83,-12.2 1.63,-19.69c0.7,-6.48 1.19,-11.9 1.46,-16.26c0.13,-1.93 0.26,-3.87 0.41,-5.84c0.59,-7.88 1.04,-14.57 1.35,-20.08c0.43,-7.59 0.58,-13.53 0.44,-17.82c-0.2,-6.03 -0.49,-11.97 -0.88,-17.84c-0.03,-0.36 0.24,-0.68 0.6,-0.71c0.22,-0.02 0.43,0.07 0.57,0.24c0.44,0.51 0.78,1.01 1.03,1.52c4.64,9.39 8.24,20.09 10.79,32.09c0.94,4.39 0.81,8.3 1.42,12.08c0.42,2.61 0.61,5.64 0.58,9.09c-0.1,10.77 -0.83,21.18 -2.19,31.23c-0.11,0.75 0.42,1.45 1.17,1.56c0.09,0.01 0.19,0.02 0.29,0.01c1.05,-0.07 2.3,-0.26 3.76,-0.59c3.98,-0.89 8.41,-2.52 13.3,-4.89c9.89,-4.81 18.97,-10.5 27.24,-17.09c2.51,-2 4.34,-4.06 6.33,-5.44c1.13,-0.79 2.64,-2.22 4.53,-4.31c4.51,-4.97 8.77,-10.18 12.78,-15.61c0.13,-0.18 0.39,-0.21 0.56,-0.07c0.08,0.06 0.13,0.15 0.15,0.24c0.15,0.9 0.13,2.02 -0.06,3.35c-1.6,11.27 -5.15,22.19 -10.64,32.78c-0.45,0.86 -0.18,1.88 0.59,2.28c0.37,0.19 0.96,0.21 1.78,0.05c3.54,-0.7 7.18,-1.71 10.92,-3.03c17.46,-6.18 33.33,-15.01 47.6,-26.49c2.09,-1.68 3.33,-3.28 5.13,-4.46c3.49,-2.31 7.19,-6.29 10,-9.09c0.23,-0.23 0.43,-0.49 0.62,-0.77c2.11,-3.19 4.51,-5.54 6.79,-8.46c5.95,-7.6 11.04,-15.63 15.29,-24.09c0.08,-0.17 0.27,-0.24 0.44,-0.16c0.11,0.05 0.19,0.16 0.19,0.28c0.38,5.98 -0.12,11.96 -1.5,17.95c-0.13,0.56 -2.75,16.42 -2.75,16.42c-0.07,0.32 0.14,0.63 0.46,0.7c0.18,0.04 0.36,-0.01 0.5,-0.13c2.19,-1.88 4.57,-3.55 7.14,-5c2.62,-1.47 6.35,-4.58 11.19,-9.32c7.13,-6.99 13.34,-14.1 18.62,-21.34c4.03,-5.53 9.89,-14.93 17.56,-28.21c2.34,-4.05 4.36,-8.27 6.06,-12.68c3.9,-10.08 7.24,-19.78 10.03,-29.09c1.23,-4.12 2.07,-7.3 2.54,-9.55c1.77,-8.6 3.61,-15.4 4.71,-24.17c0.63,-4.99 1.28,-10.79 1.96,-17.39c0.69,-6.69 0.99,-14.51 0.91,-23.46c-0.01,-0.25 -0.23,-0.45 -0.48,-0.44c-0.21,0.01 -0.39,0.16 -0.43,0.37c-0.35,2.08 -1,3.91 -1.95,5.49c-4.27,7.12 -8.31,13.23 -12.12,18.32c-3.6,4.82 -8.67,9.69 -13.02,14.28c-4.83,5.09 -6.51,8.75 -8.08,15.39c-0.08,0.33 -0.59,1.42 -0.84,1.41l-0.02,0c-0.04,0 -0.12,0.06 -0.25,0.18c-0.12,-0.19 -0.19,-0.32 -0.21,-0.37c-0.1,-0.2 -0.34,-0.28 -0.53,-0.18c-0.06,0.03 -0.12,0.08 -0.16,0.13c-4.17,5.98 -9.06,12.49 -14.65,19.52c-4.23,5.33 -8.44,10.1 -12.61,14.31c-8.01,8.09 -12.55,12.55 -13.62,13.38c-13.63,10.61 -24.09,17.9 -37.57,23.92c-2.85,1.27 -5.49,2.21 -7.9,2.8c-0.18,0.04 -0.36,-0.06 -0.4,-0.23c-0.02,-0.06 -0.01,-0.12 -0,-0.17c0.17,-0.63 0.54,-1.23 1.12,-1.81c11.73,-11.64 21.94,-24.5 30.65,-38.58c4.39,-7.09 9.23,-16.96 14.52,-29.59c4.48,-10.7 6.37,-23.63 9.38,-33.2c0.05,-0.14 0.2,-0.22 0.34,-0.18c0.08,0.02 0.14,0.08 0.16,0.16c0.65,1.62 1.06,3.56 1.22,5.82c0.2,2.7 0.43,7.64 0.69,14.83c0.07,1.91 0.02,3.36 -0.13,4.33c-0.57,3.66 -0.1,7.16 -0.73,10.81c-0.59,3.43 -1.1,6.15 -1.53,8.15c-0.27,1.23 -0.06,2.22 0.61,2.97c0.46,0.52 1.34,0.52 2.02,0c1.59,-1.19 3.73,-3.07 4.92,-4.84c2.18,-3.25 5.75,-7.46 7.8,-10.91c4.75,-8.02 8.11,-15.43 10.06,-22.23c6.11,-21.19 6.53,-43.15 1.26,-65.88c-0.37,-1.56 -0.51,-2.69 -0.43,-3.38c0.03,-0.23 0.23,-0.4 0.47,-0.37c0.05,0 0.09,0.02 0.13,0.04c1.09,0.51 2.17,1.44 3.22,2.77c10.17,12.81 15.43,27.29 15.78,43.44c-0,0.33 0.21,0.62 0.51,0.74c1.31,0.54 2.27,0.25 2.88,-0.87c5.84,-10.7 9.73,-21.89 11.68,-33.58c0.47,-2.86 0.41,-5.48 0.74,-8.03c0.27,-2.06 0.41,-4.07 0.42,-6.02c0.08,-14.55 -2.88,-28.39 -8.87,-41.52c-0.14,-0.32 -0,-0.69 0.32,-0.83c0.17,-0.08 0.37,-0.07 0.54,0.01c11.44,5.77 24.14,8.09 38.1,6.96c0.86,-0.07 1.57,-0.74 1.69,-1.61c0.17,-1.2 -0.25,-2.26 -1.28,-3.18c-11.15,-10.03 -19.75,-21.33 -25.82,-33.92c-3.69,-7.65 -6.5,-14.01 -8.45,-19.08c-3.3,-8.61 -6.04,-18.25 -8.21,-28.94c-0.29,-1.44 0.1,-3.16 -0.59,-4.41c-0.55,-0.98 -1.78,-1.33 -2.76,-0.78c-0.04,0.02 -0.08,0.05 -0.12,0.07c-3.29,2.15 -6.17,5.2 -9.62,7.67c-4.75,3.41 -9.48,5.95 -14.19,7.62c-0.54,0.19 -1.14,-0.09 -1.33,-0.64c-0.05,-0.14 -0.07,-0.29 -0.05,-0.44c0.38,-3.81 1.57,-7.44 3.58,-10.9c0.19,-0.32 0.4,-0.62 0.65,-0.89c1.51,-1.66 4.02,-4.24 7.55,-7.73c1.02,-1.01 2.68,-2.9 4.97,-5.68c0.53,-0.64 2.2,-2.53 5.01,-5.66c5.78,-6.43 13.87,-16.84 24.28,-31.23c3.02,-4.17 6.25,-9.46 9.69,-15.87c0.17,-0.31 0.17,-0.69 -0,-1.01c-0.61,-1.17 -1.79,-1.66 -3.54,-1.45c-19.4,2.31 -29.73,3.56 -31,3.75c-6.67,0.99 -13.4,1.31 -19.62,2.24c-14.94,2.25 -29.28,5.55 -43.01,9.91c-1.75,0.56 -3.05,1.17 -3.88,1.83c-0.33,0.27 -0.58,0.63 -0.7,1.03c-0.83,2.82 -1.27,4.38 -1.32,4.67c-0.91,5.77 -2.45,11.37 -4.62,16.81c-2.21,5.52 -5.46,10.23 -9.76,14.13c-7.2,6.51 -15.99,10.42 -26.36,11.72c-27.45,3.42 -54.56,-7.56 -72.42,-28.36c-1.49,-1.73 -4.66,-6.32 -9.51,-13.75c-2.37,-3.63 -4.44,-2.85 -8.22,-1.76c-0.58,0.17 -1.73,0.35 -3.46,0.55c-11.67,1.35 -18.95,2.11 -21.84,2.29c-7.24,0.45 -16.48,0.7 -27.71,0.75c-9.84,0.04 -19.01,-1 -26.78,-4.34c-2.47,-1.06 -4.27,-2.82 -5.4,-5.28c-3.41,-7.42 2.94,-11.51 8.61,-14.21c2.69,-1.28 5.41,-2.25 8.18,-2.92c5.49,-1.33 10.32,-3.13 15.8,-4.21c7.13,-1.41 14.74,-2.63 22.83,-3.68c1.1,-0.14 1.88,-1.15 1.73,-2.26c-0.05,-0.36 -0.19,-0.7 -0.41,-0.98c-6.29,-8.03 -12.83,-16.94 -19.62,-26.75c-2.99,-4.3 -7.36,-0.91 -10.11,0.99c-6.41,4.42 -8.23,-1.45 -6.5,-6.68c2.78,-8.37 8.39,-13.2 16.82,-14.51c5.14,-0.8 9.75,0 13.83,2.39c3.7,2.17 -0.45,5.09 -2.67,6.81c-3.32,2.58 -1.75,4.98 0.36,7.8c1.72,2.31 4.69,5.74 8.92,10.31c7.69,8.31 16.6,15.45 26.71,21.41c20.08,11.84 42.75,16.43 65.67,13.59c9.29,-1.15 17.36,-4.59 24.19,-10.31c5.47,-4.57 9.1,-10.78 10.87,-18.62c1.03,-4.55 1.4,-7.47 1.1,-8.74c-0.08,-0.31 -0.28,-0.57 -0.56,-0.72c-1.25,-0.66 -2.21,-1 -2.88,-1.02c-8.04,-0.25 -15.35,-2.17 -21.93,-5.76c-2.12,-1.15 -5.05,-2.92 -8.78,-5.29c-4.47,-2.84 -9.54,-8.28 -12.12,-11.04c-4.3,-4.6 -8.2,-11.26 -9.1,-17.45c-0.75,-5.13 -0.24,-9.83 1.52,-14.08c3.43,-8.26 12.42,-14.81 20.93,-18.01c4.87,-1.83 9.52,-3.11 13.97,-3.84c10.07,-1.64 20.35,-2.1 30.84,-1.37c4.83,0.34 8.8,1.3 13.76,2.25c9.32,1.8 17.04,6.26 23.17,13.39c2.01,2.34 3.38,4.82 4.13,7.43c2.49,8.77 1.6,17.23 -2.65,25.38c-7.91,15.18 -21.37,24.6 -37.54,28.5c-0.44,0.1 -0.78,0.45 -0.87,0.89l-6.41,29.48c-0.05,0.2 -0.03,0.41 0.05,0.59c2.08,4.86 15.42,6.52 20.25,7.06c16.11,1.78 28.18,-7.14 37.91,-18.86c2.96,-3.58 5.52,-7.84 7.68,-12.77c6.03,-13.77 7.86,-27.67 5.5,-41.7c-1.05,-6.21 -3.37,-12.48 -6.97,-18.81c-1.09,-1.92 -3.14,-4.4 -4.27,-6.96c3.5,0.13 6.91,0.75 10.24,1.85c0.17,0.06 0.37,0.05 0.55,-0.02l0.99,0.85c0,0.1 0.04,0.19 0.09,0.26c8.47,11.2 12.62,24.15 12.45,38.86c-0.06,4.91 -0.13,8.4 -0.22,10.46c-0.02,0.61 0.45,1.13 1.06,1.15c0.08,0 0.15,0 0.23,-0.01c11.39,-1.93 21.46,-3.66 30.22,-5.17c6.79,-1.17 12.92,-2.2 18.4,-3.07c4.61,-0.74 2.43,-5.8 1.26,-8.72c-0.89,-2.23 -3.44,-8.31 -7.63,-18.24c-0.02,-0.06 -0.04,-0.12 -0.05,-0.19l-0.46,-2.52c-0.09,-0.48 0.23,-0.95 0.71,-1.04c0.16,-0.03 0.33,-0.01 0.49,0.05c5.1,2.03 9.78,5.15 14.03,9.36c0.25,0.25 2.02,2.23 5.31,5.95c0.14,0.16 0.33,0.28 0.54,0.33c0.43,0.12 0.76,0.09 0.97,-0.1c0,0 0.79,-0.24 1.26,-0.38c0.21,-0.06 0.35,-0.27 0.33,-0.49c-0.33,-2.99 -0.88,-5.57 -1.66,-7.75c-3.55,-9.94 -7.79,-18.98 -12.73,-27.11c-0.59,-0.97 -4.73,-7.09 -4.62,-7.22c0.04,-0.04 0.06,-0.1 0.07,-0.16c0.07,-0.55 -0.02,-1.14 -0.27,-1.77c-3.36,-8.77 -9.55,-16.39 -16.45,-25.02c-6.35,-7.95 -9.17,-16.01 -11.62,-25.89c-2.9,-11.65 -5.37,-21.58 -6.48,-31.88c-0.45,-4.14 -1.06,-7.65 -1.85,-10.52c-1.41,-5.14 -2.43,-8.56 -3.05,-10.25c-4.11,-11.28 -6.54,-18.12 -7.28,-20.53c-2.51,-8.18 -7.44,-17.54 -9.55,-25.67c-1.01,-3.9 -3,-6.77 -4.7,-10.82c-2.38,-5.72 -6.94,-11.45 -10.59,-16.13c-4.91,-6.3 -10.91,-11.44 -18,-15.43c-0.32,-0.18 -0.48,-0.55 -0.4,-0.91l1.56,-6.67c0.08,-0.35 0.21,-0.68 0.38,-1c3.89,-7.05 13.53,-19.37 22.39,-19.57c3.43,-0.07 6.09,1.72 7.98,5.38c3.17,6.15 7.57,13.88 10.06,21.77c3.01,9.56 4.79,17.91 8.31,27.92c2.81,7.99 5.59,16.47 8.33,25.43c1.75,5.74 5.97,13.89 8.56,20.39c4.09,10.27 9.36,20.44 15.81,30.49c5.59,8.71 14.09,17.23 21.83,23.69c7.95,6.65 16.89,11.12 26.81,13.42c4.64,1.07 9.39,1.35 14.25,0.82c0.54,-0.06 0.95,-0.52 0.93,-1.07c-0.16,-6.29 -0.21,-12.3 -0.15,-18.03c0.04,-4.2 1,-8.03 2.21,-11.57c2.81,-8.2 5.38,-15.08 7.71,-20.65c4.4,-10.49 7.08,-17.83 11.27,-28.13c2.15,-5.27 4.37,-13.13 6.65,-23.58c1.23,-5.66 1.49,-10.36 0.77,-14.1c-1.04,-5.43 -2.66,-9.95 -4.85,-13.56c-3.78,-6.21 -10.51,-10.14 -17.5,-12.44c-3.64,-1.2 -5.99,-2.02 -7.04,-2.46c-7.69,-3.21 -15.06,-5.78 -22.09,-7.71c-0.2,-0.06 -0.4,0.05 -0.46,0.25c-0.03,0.1 -0.02,0.21 0.04,0.3l11.61,18.58c0.13,0.2 0.08,0.46 -0.12,0.6c-0.14,0.09 -0.33,0.1 -0.47,0c-1.64,-0.96 -2.93,-2.79 -4.46,-3.8c-6.25,-4.13 -11.48,-8.91 -17.68,-13.27c-7.23,-5.09 -15.54,-11.43 -24.93,-19.02c-4.88,-3.95 -8.61,-7.29 -11.19,-10.02c-4.27,-4.53 -8.22,-8.69 -11.86,-12.48c-7.76,-8.08 -17.2,-13.87 -28.64,-12.74c-8.51,0.85 -16.58,7.98 -21.82,13.9c-6.24,7.06 -14.27,16.53 -24.1,28.41c-1.61,1.95 -3.99,3.5 -7.12,4.65c-5.25,1.92 -9.04,2.68 -14.23,4.53c-5.43,1.93 -11.03,3.08 -16.8,3.45c-8.888,0.56 -28.789,-0.98 -31.12,-0.99c-22.66,-0.09 -44.45,2.26 -65.36,7.06c-0.79,0.18 -1.39,0.37 -1.81,0.58c-0.96,0.46 -1.29,1.19 -2.1,1.36c-27.99,5.74 -55.46,14.78 -82.43,27.12c-10.87,4.97 -18.45,9.42 -22.75,13.34c-6.62,6.02 -11.68,13.19 -15.19,21.51c-3.78,8.97 -5.95,18.53 -8.43,27.42c-2.51,9.02 -3.5,17.86 -5.08,26.9c-0.64,3.67 -1.09,6.02 -1.34,7.05c-1.58,6.27 -2.27,11.38 -4.49,17.29c-2.61,6.93 -4.08,10.77 -4.42,11.52c-3.24,7.26 -6.09,13.84 -8.55,19.73c-0.92,2.21 -3.01,6.04 -6.27,11.47c-3.09,5.13 -4.81,10.78 -8.04,15.98c-5.55,8.91 -8.57,13.7 -9.06,14.39c-0.33,0.46 -0.57,0.98 -0.71,1.53c-0.53,2.11 -1.54,4.33 -3.03,6.66c-0.07,0.13 -0.03,0.29 0.1,0.37c0.1,0.06 0.23,0.05 0.31,-0.03c1.43,-1.34 2.83,-2.46 4.21,-3.35c0.96,-0.62 2.36,-1.74 4.19,-3.36c3.96,-3.49 8.37,-6.26 13.24,-8.29c-3.1,3.9 -6.18,7.66 -9.25,11.28c-4.22,4.97 -7.19,8.81 -8.91,11.5c-5.97,9.37 -10.72,19.33 -14.25,29.87c-2.97,8.89 -4.01,18.42 -4.3,27.86c0,0.3 1.39,1.68 1.44,1.77c0.1,0.2 0.34,0.27 0.54,0.17c0.06,-0.03 0.1,-0.07 0.14,-0.12c3.76,-5.1 7.18,-9.47 10.25,-13.1c4.45,-5.26 7.9,-8.74 10.33,-10.45c3.74,-2.63 6.58,-4.49 8.53,-5.59c0.31,-0.18 0.71,-0.07 0.89,0.24c0.09,0.16 0.11,0.35 0.05,0.53c-0.57,1.75 -1.3,3.61 -2.2,5.59c-5.24,11.53 -8.34,25.43 -8.57,38.93c-0.13,7.43 -0.11,12.21 0.05,14.34c0.9,12.07 4.26,23.28 10.09,33.63c0.49,0.88 1.61,1.2 2.49,0.7c0.24,-0.14 0.45,-0.32 0.61,-0.55c0.25,-0.35 0.4,-0.68 0.45,-0.97c1.53,-8.88 4.17,-17.48 7.92,-25.81c2.52,-5.59 5.13,-10.09 7.83,-13.48c0.69,-0.85 1.29,-1.52 1.82,-1.99c0.16,-0.14 0.4,-0.12 0.53,0.03c0.05,0.05 0.08,0.11 0.09,0.18c0.2,1.12 0.28,2.21 0.23,3.27c-0.29,6.97 -0.51,13.65 0.94,20.44c2.97,13.95 9.02,26.68 18.15,38.19c8.48,10.71 18.48,19.46 29.99,26.24c1.79,1.06 3.43,1.87 4.93,2.44c3.13,1.19 4.93,2.01 5.4,2.46c0.41,0.4 0.43,1.06 0.03,1.47c-0.17,0.18 -0.4,0.29 -0.65,0.31c-4.72,0.43 -11.52,-2 -15.33,-3.55c-13.61,-5.55 -25.69,-13.54 -36.24,-23.98c-1.33,-1.32 -2.57,-1.47 -3.71,-0.44c-0.24,0.22 -0.38,0.54 -0.39,0.87c-0.01,1.28 0.29,2.7 0.91,4.27c2.45,6.17 5.7,12.83 7.35,19.18l-3.39,0.22c-0.3,0.09 -0.63,0 -0.85,-0.21c-3.63,-3.5 -6.51,-6.74 -8.62,-9.72c-4.58,-6.46 -8.91,-12.21 -15.38,-15.96c-0.59,-0.34 -1.34,-0.14 -1.68,0.45c-0.04,0.07 -0.07,0.14 -0.1,0.22c-0.75,2.21 -2.56,6.73 -5.43,13.56c-3.68,8.79 -9.43,15.37 -16.19,23.29c-3.01,3.53 -7.02,6.15 -10.03,8.99c-1.07,1.01 -1.64,1.86 -1.73,2.56c-0.04,0.31 0.17,0.6 0.49,0.66c1.83,0.31 3.45,0.44 4.86,0.39c5.58,-0.19 11.21,-0.61 16.89,-1.26c0.37,-0.04 0.7,0.22 0.74,0.59c0.01,0.12 0,0.24 -0.05,0.35c-3.78,8.58 -4.84,15.71 -6.41,25.76c-0.59,3.76 -0.86,7.46 -0.81,11.09c0.09,6.95 0.15,10.66 0.2,11.12c0.67,6.81 2.33,13.55 4.98,20.21c0.08,0.21 0.32,0.32 0.53,0.23c0.1,-0.04 0.19,-0.12 0.23,-0.22c3.32,-8.26 7.82,-14.95 13.15,-24.22c2.42,-4.2 4.59,-6.92 5.91,-11c0.08,-0.25 0.34,-0.4 0.6,-0.32c0.21,0.06 0.35,0.26 0.34,0.47c-0.07,10.72 1.41,21.38 4.45,31.99c1.5,5.23 4.65,11.66 6.55,15.22c4.32,8.08 6.93,12.97 7.82,14.66c4.17,7.9 8.66,14.62 14.41,20.53c10.75,11.05 21.7,22.53 32.84,34.42c0.16,0.16 0.15,0.42 -0.01,0.58c-0.1,0.1 -0.25,0.14 -0.39,0.1c-7.07,-1.77 -14.91,-4.23 -23.52,-7.38c-3.55,-1.3 -7.81,-3.7 -12.76,-7.19c-12.85,-9.05 -22.96,-20.09 -30.33,-33.11c-2.39,-4.21 -3.31,-7.49 -5.34,-12.81c-0.52,-1.35 -1.21,-2.51 -2.06,-3.5c-0.32,-0.36 -0.87,-0.39 -1.23,-0.07c-0.1,0.09 -0.18,0.2 -0.23,0.33c-0.89,2.29 -2.14,6.09 -3.75,11.41c-0.49,1.63 -1.16,3.04 -1.99,4.25c-0.21,0.3 -0.62,0.39 -0.93,0.2c-7.05,-4.3 -12.48,-9.77 -16.29,-16.4c-2.73,-4.76 -5.51,-11.09 -8.34,-18.98c-2.23,-6.21 -3.18,-14.67 -5.01,-21.07c-0.76,-2.65 -0.89,-5.4 -1.36,-7.71c-0.08,-0.43 -0.5,-0.71 -0.93,-0.62c-0.15,0.03 -0.29,0.1 -0.4,0.21c-5.99,5.86 -12.61,10.23 -18.99,15.93c-7.43,6.64 -16.94,12.26 -25.42,17.74c-20.48,13.21 -37.02,30.61 -49.34,51.72c-1.57,2.69 -2.69,4.88 -3.34,6.56c-2.22,5.66 -5.01,11.53 -6.85,17.1c-3.47,10.57 -7.26,20.01 -10.27,30.71c-3.97,14.15 -6.72,28.79 -8.27,43.91c-0.25,2.47 -0.71,8.13 -1.37,16.97c-0.45,5.96 -1.25,9.03 -2.64,16.18c-0.06,0.29 0.13,0.58 0.43,0.63c0.23,0.05 0.46,-0.06 0.57,-0.26c0.85,-1.55 1.96,-2.93 3.31,-4.16c0.26,-0.23 0.49,-0.49 0.68,-0.78c3.47,-5.23 6.78,-10.45 9.93,-15.66c1.01,-1.68 2.5,-3.67 4.48,-5.96c0.13,-0.14 0.34,-0.15 0.48,-0.02c0.08,0.07 0.12,0.17 0.11,0.27c-1.33,18.68 -3.92,36.69 -7.79,54.02c-2.65,11.93 -5.09,20.73 -7.31,26.42c-2.41,6.21 -4.85,12.36 -7.31,18.45c0,0 -2.36,2.43 -2.57,2.45c-0.12,0.01 -0.24,0.08 -0.3,0.19c-5.33,9.19 -8.65,15.11 -9.94,17.78c-3.28,6.76 -4.46,11.42 -6.64,19.09c-0.73,2.55 -1.49,6.37 -2.28,11.48c-2.15,13.89 -3.35,28.03 -5.36,41.53c-2.46,16.45 -4.8,34.79 -7.03,55.02c-0.54,4.86 -0.84,8.67 -0.9,11.44c-0.12,5.81 -0.07,9.62 0.16,11.42c1.63,12.69 8.66,19.99 21.09,21.9c4.58,0.7 8.89,0.84 12.94,0.42c1,-0.1 1.84,-0.77 2.17,-1.71c1.99,-5.64 2.5,-11.48 1.53,-17.53c-0.79,-4.97 -1.57,-8.38 -2.32,-10.23c-0.63,-1.54 -1.03,-3.69 -1.21,-6.44c-0.05,-0.72 0.5,-1.34 1.23,-1.39c0.23,-0.01 0.45,0.03 0.65,0.13c2.23,1.08 4.02,2.8 5.39,5.15c5.75,9.87 5.89,19.45 4.92,30.56c-0.2,2.29 1.59,2.25 3.23,2.49c8.11,1.18 15.95,1.12 23.52,-0.19c0.92,-0.16 1.71,-0.77 2.09,-1.63c2.57,-5.74 2.35,-12.74 2.01,-18.59c-0.43,-7.41 -2.63,-14.19 -6.58,-20.33c-0.28,-0.44 -0.43,-1.4 -0.44,-2.87c0,-0.3 0.24,-0.54 0.54,-0.54l0.05,0c1.29,0.12 2.28,0.47 2.99,1.04c12.34,10.11 13.92,25.49 12.41,40.09c-0.08,0.82 0.51,1.55 1.33,1.63l0.27,0c9.44,-0.8 20.18,-4.18 22.97,-14.12c0.84,-2.98 0.82,-6.93 -0.06,-11.86c-0.9,-5.02 -1.98,-8.91 -3.24,-11.66c-3.09,-6.77 -8.35,-12.28 -15.78,-16.52c-2.09,-1.19 -4.99,-4.04 -8.7,-8.54c-0.47,-0.56 -0.82,-1.21 -1.04,-1.91c-1.53,-4.81 -2.42,-9.56 -2.66,-14.23c-0.56,-11.1 -0.46,-21.6 0.29,-31.49c0.11,-1.35 0.53,-4.38 1.28,-9.09c0.7,-4.35 2.27,-9.29 4.89,-12.56c4.72,-5.9 10.45,-10.84 17.18,-14.81c12.89,-7.62 24.77,-16.56 35.64,-26.81c11.81,-11.15 20.74,-25.21 26.79,-42.18c1.83,-5.15 2.95,-10.09 3.36,-14.83c0.39,-4.5 -0.75,-8.78 -3.44,-12.83c-2.67,-4.04 -5.43,-7.45 -8.28,-10.22c-0.21,-0.21 -0.41,-0.32 -0.6,-0.33c-0.26,-0.02 -0.43,0.12 -0.5,0.42l-0.39,-0.36c-0.19,-0.17 -0.48,-0.16 -0.65,0.02c-0.06,0.07 -0.11,0.16 -0.12,0.25c-2.03,14.64 -7.53,27.8 -16.51,39.47c-2.55,3.33 -4.9,6.29 -7.05,8.89Zm262.94,-413.93c-1.28,0.51 -1.89,1.97 -1.38,3.25c0.03,0.09 0.07,0.17 0.12,0.25c2.28,4.22 5.22,8 8.81,11.33c15.22,14.1 33.25,19.57 54.08,16.42c4.74,-0.71 8.99,-2.11 12.75,-4.19c8.11,-4.48 11.49,-11.29 10.12,-20.43c-1.74,-11.69 -20.32,-14.56 -29.3,-14.22c-2.68,0.1 -3.46,2.01 -2.38,4.46c0.93,2.11 1.82,4.07 2.69,5.86c0.3,0.62 0.04,1.36 -0.58,1.66c-0.26,0.13 -0.56,0.16 -0.84,0.09c-3.32,-0.82 -6.96,-6.01 -10.64,-7.65c-2.87,-1.29 -5.93,-2.03 -9.16,-2.22c-12.04,-0.75 -23.47,1.05 -34.29,5.39Zm110.56,-110.86c1.58,-8.34 -19.97,-11.52 -25.3,-11.93c-8.46,-0.66 -17.12,-0.74 -25.98,-0.24c-7.05,0.4 -13.82,2.05 -20.33,4.94c-3.36,1.5 -7.59,5.7 -6.22,9.81c1.39,4.15 4.97,4.43 8.95,3.43c4.84,-1.22 7.96,-1.37 12.41,-2.96c4.9,-1.75 9.8,-2.69 14.69,-2.84c9.43,-0.27 20.43,0.58 33,2.57c2.47,0.39 8.15,0.52 8.78,-2.78Zm-284.44,-171.41c0.03,-0.22 -0.12,-0.42 -0.34,-0.45l-0.13,0c-6.07,1.09 -11.1,2.03 -18.01,4.01c-3.97,1.13 -8.12,1.85 -12.46,2.14c-7.56,0.5 -14.14,0.69 -20.5,-1.19c-6.93,-2.05 -13.89,-5.5 -20.88,-10.34c-1.01,-0.7 -3.46,-3.01 -7.36,-6.92c-0.58,-0.58 -1.07,-1.23 -1.47,-1.95c-3.98,-7.23 -6.76,-11.21 -7.65,-17.38c-0.07,-0.51 -0.54,-0.86 -1.05,-0.79c-0.14,0.02 -0.27,0.07 -0.39,0.15c-3.51,2.4 -10.64,6.83 -21.39,13.3c-8.13,4.89 -15.44,9.07 -21.92,12.54c-9.23,4.94 -16.77,9.1 -22.62,12.49c-4.96,2.87 -8.11,6.63 -9.45,11.26c-2.31,8.01 -2.23,17.12 0.25,27.31c0.01,0.05 0.94,3 2.79,8.86c2.24,7.12 5.4,12.47 10.04,17.45c0.34,0.36 0.91,0.39 1.27,0.05c0.18,-0.17 0.28,-0.4 0.29,-0.64c0.15,-4.77 1.09,-9.21 2.84,-13.33c2.57,-6.05 3.99,-9.29 4.24,-9.72c0.81,-1.4 1.82,-2.37 3.01,-2.92c0.36,-0.17 0.8,-0.01 0.97,0.35c0.04,0.09 0.06,0.18 0.07,0.28c0.47,10.64 2.02,21.21 4.64,31.72c0.81,3.28 2.72,7.99 5.71,14.14c0.19,0.38 0.41,0.73 0.68,1.05c7.98,9.62 15.05,19.78 21.2,30.48c1.44,2.51 4.98,9.95 5.75,14.62c0.55,3.37 0.77,5.65 0.66,6.84c-0.71,7.95 -2.12,15.33 -4.21,22.12c-0.07,0.23 0.05,0.48 0.29,0.55l0.02,0c3.05,0.81 6.37,1.04 9.95,0.71c13.5,-1.25 25.65,-6.25 36.44,-15c5.93,-4.8 11.21,-9.68 15.84,-14.65c7.07,-7.57 13.21,-16.52 18.42,-26.85c1.61,-3.19 3.57,-7.97 5.88,-14.34c3.04,-8.41 4.74,-13.29 5.09,-14.66c1.28,-4.96 2.99,-12.69 5.14,-23.19c0.3,-1.47 0.52,-3.45 0.65,-5.94c0.23,-4.48 1.48,-8.79 2.22,-13.6c1.74,-11.36 3.57,-24.22 5.48,-38.57l0,0.01Z" style="fill:#111b2a;"/><path d="M698.622,995.656c0.016,0.103 -0.005,0.235 -0.062,0.394c0.016,-0.148 0.037,-0.279 0.062,-0.394Z" style="fill:#111b2a;"/><path d="M570.516,309.21l0.004,0.01l-0.01,-0.01l0.006,0Z" style="fill:#111b2a;"/><path d="M514.79,912.61c0,-0.08 0.06,-0.14 0.14,-0.14c0.05,0 0.09,0.03 0.12,0.07c5.07,7.65 9.4,14.7 12.99,21.17c4.77,8.59 8.13,16.14 10.07,22.65c1.79,5.97 2.75,11.45 2.9,16.44c0.04,1.25 0.02,2.27 -0.05,3.05c-0.04,0.38 -0.38,0.65 -0.76,0.61c-0.21,-0.02 -0.4,-0.14 -0.51,-0.32c-5.18,-8.43 -11.04,-16.16 -17.57,-23.2c-6.43,-6.94 -16.77,-14.58 -22.71,-20.04c-6.99,-6.44 -12.21,-12.3 -15.65,-17.59c-6.68,-10.28 -11.73,-22.66 -12.59,-35.05c0,-0.13 0.09,-0.24 0.21,-0.25c0.06,0 0.12,0.02 0.16,0.06c0.67,0.6 1.19,1.2 1.58,1.81c4.32,6.85 8.57,13.1 12.76,18.75c8.58,11.56 18.11,22.16 28.6,31.8c0.25,0.24 0.58,0.37 0.92,0.37c1.23,0.01 1.88,-0.62 1.95,-1.9c0.01,-0.19 0,-0.37 -0.04,-0.56c-1.32,-6.4 -2.91,-11.58 -2.52,-17.73Z" style="fill:#111b2a;"/><path d="M489.2,486.86c0.61,-1.33 1.42,-5.08 2.03,-6.45c2.99,-6.73 2.89,-15.89 1.53,-22.98c-0.8,-4.19 -3.09,-8.44 -5.62,-13.99c-0.21,-0.45 -0.54,-0.67 -1,-0.65c-0.22,-0 -0.89,-0.08 -1.16,-0.14c-0.19,-0.04 -1.13,1.64 -1.08,1.84c2.66,9.19 2.6,18.56 -0.19,28.09c-2.65,9.09 -8.14,14.92 -16.47,17.49c-8.21,2.53 -15.75,1.21 -22.62,-3.97c-3.3,-2.48 -5.76,-4.85 -7.39,-7.1c-4.01,-5.56 -5.68,-13.56 -6.18,-20.59c-0.18,-2.51 -0.06,-5.57 0.36,-9.16c0.05,-0.48 -0.21,-0.81 -0.78,-0.99c-0.08,-0.13 -0.16,-0.25 -0.23,-0.36c-0.08,-0.13 -0.25,-0.17 -0.38,-0.09c-0.02,-0 -0.03,0.02 -0.05,0.03c-0.05,0.05 -0.11,0.12 -0.18,0.2c-0.15,-0.13 -0.35,-0.21 -0.59,-0.22c-0.32,-0 -0.6,0.22 -0.66,0.53c0,0.05 -0.35,1.19 -1.02,3.44c-3.59,11.97 -2.14,23.27 4.33,33.9c3.29,5.41 7.75,9.51 13.38,12.3c2.27,1.12 4.67,2.33 7.2,3.64c-3.82,1.01 -8.01,0.86 -12.56,-0.46c-1.35,-0.39 -2.47,-0.83 -3.36,-1.32c-9.91,-5.55 -16.38,-13.57 -19.43,-24.06c-0.82,-2.83 -1.44,-7.76 -1.85,-14.78c-0.92,-15.55 5.92,-30.26 18.47,-39.52c5.49,-4.05 11.07,-6.82 16.75,-8.29c2.35,-0.61 5.78,-0.93 10.3,-0.94c9.89,-0.02 17.3,4.45 24.58,11.16c12.86,11.84 17.203,27.487 14.31,44.39c-1.96,11.45 -10.44,19.05 -10.44,19.05Zm-25.041,-54.954c-1.665,0.89 -2.911,2.158 -3.719,3.814c-0.34,0.09 -0.42,0.26 -0.24,0.51l-0.74,2.63c-0.41,0.75 -0.48,1.53 -0.21,2.35c0.08,0.33 0.1,0.66 0.06,1c-0.21,0.21 -0.27,0.47 -0.19,0.8c0.05,0.22 0.2,0.31 0.43,0.27l1.82,3.86c-0.32,0.27 -0.06,0.56 0.17,0.27l2.12,2.16c-0.1,0.19 -0.05,0.37 0.16,0.52c0.02,0.02 0.06,0.02 0.08,0l0.15,-0.22l0.92,0.5c-0.09,0.27 0.09,0.35 0.54,0.24c2.23,0.77 4.45,0.81 6.68,0.13c0.28,-0.07 0.56,-0.2 0.83,-0.39l1.93,-1.26c1.05,-0.55 1.65,-1.26 1.78,-2.12c0.05,-0.37 0.21,-0.77 0.47,-1.22c0.74,-0.39 0.94,-1.38 0.6,-2.97l0,-2.54c0.25,-1.25 0.07,-2.07 -0.54,-2.45c-1.27,-2.87 -3.28,-4.96 -6.05,-6.26c-0.25,-0.31 -0.5,-0.37 -0.76,-0.2c-1.61,-0.44 -3.25,-0.45 -4.92,-0.03c-0.29,-0.2 -0.63,-0.21 -1.04,-0.04c-0.319,0.139 -0.429,0.358 -0.331,0.646Z" style="fill:#111b2a;"/><path d="M464.159,431.906l0.011,-0.006l-0.01,0.01l-0.001,-0.004Z" style="fill:#111b2a;"/><path d="M641.58,652.91c0.39,-0.27 0.93,-0.16 1.19,0.23c0.04,0.06 0.07,0.12 0.1,0.19c3.59,9.55 2.26,19.4 -0.86,29.72c-2.13,7.05 -5.62,13.12 -10.49,18.21c-11.7,12.25 -25.56,19.95 -41.58,23.09c-16.42,3.23 -32.39,3.18 -47.92,-0.13c-17.94,-3.84 -36.43,-13.85 -50.53,-25.36c-3.65,-2.97 -6.75,-5.62 -9.3,-7.94c-4.17,-3.79 -8.68,-7.12 -13.51,-10c-2.46,-1.47 -5.4,-4.88 -1.95,-7.31c1.13,-0.79 3.71,-0.9 5.38,-0.46c3.05,0.8 6.55,1.11 9.81,2.36c4.66,1.78 9.37,4.56 14.14,8.33c5.03,3.98 8.61,6.81 10.73,8.49c6.11,4.86 14.02,9.39 23.71,13.59c16.81,7.29 34.93,9.18 53.27,6.72c2.51,-0.33 6.1,-1.25 10.77,-2.76c3.99,-1.27 7.42,-2.65 10.31,-4.13c13.74,-7.02 26.97,-19.76 31.14,-34.69c1.84,-6.59 3.11,-11.76 3.81,-15.49c0.21,-1.11 0.8,-2 1.78,-2.66Z" style="fill:#111b2a;"/><path d="M646.48,494.69c4.81,0 15.36,-1.3 25.66,-9.75c8.555,-7.019 10.76,-18.24 10.29,-29.86c-0.22,-5.35 -4.35,-14.7 -4.68,-14.68c-0.07,0 -1.36,-1.19 -1.35,-0.21c-0.43,-0.77 -0.73,-0.45 -0.92,0.98c-0.05,0.38 -0.04,0.76 0.02,1.14c1.76,10.29 0.86,21.11 -4.77,29.95c-0.11,0.18 -1.56,1.78 -4.34,4.8c-1.66,1.81 -3.34,3.15 -5.03,4.02c-3.57,1.85 -6.11,2.93 -7.64,3.24c-7.14,1.43 -13.46,0.28 -18.95,-3.45c-4.97,-3.37 -8.52,-8.76 -10.67,-16.17c-2.13,-7.37 -2.62,-14.89 -1.47,-22.58c0.27,-1.75 0.07,-2.99 -0.58,-3.72l-0.14,-0.36c-0.07,-0.17 -0.26,-0.25 -0.42,-0.19c-0.04,0.02 -0.08,0.04 -0.11,0.07l-0.36,0.36c-0.68,-0.33 -1.2,-0.11 -1.55,0.66c-3.09,6.69 -5.53,14.16 -5.47,21.38c0.06,7.33 1.834,14.814 5.904,21.024c-1.35,0.47 -2.044,-0.364 -2.654,-1.054c-9.73,-10.91 -10.98,-24.8 -8.79,-38.6c2.04,-12.79 10.89,-23.95 21.75,-31.05c2.53,-1.65 5.17,-2.81 7.91,-3.47c9,-2.14 17.45,-1.45 25.34,2.08c15.71,7.03 27.31,21.03 28.57,38.35c1.22,16.94 -1.14,30.68 -15.23,41.98c-4.14,3.31 -11.574,5.881 -18.443,6.256c-3.346,0.182 -9.217,1.024 -11.877,-1.146Zm-5.88,-69.37c-4.95,-1.23 -10.07,2.2 -11.44,7.67c-1.36,5.47 1.54,10.91 6.5,12.14c4.96,1.23 10.07,-2.2 11.44,-7.67c1.36,-5.47 -1.54,-10.91 -6.5,-12.14Z" style="fill:#111b2a;"/></g><path d="M629.164,432.991c1.363,-5.467 6.487,-8.905 11.435,-7.671c4.949,1.234 7.859,6.675 6.496,12.142c-1.363,5.468 -6.487,8.905 -11.436,7.672c-4.948,-1.234 -7.858,-6.675 -6.495,-12.143Z" style="fill:#fbf0d5;stroke:#fbf0d5;stroke-width:2px;"/><path d="M470.46,431.32l0.76,0.2c2.77,1.3 4.78,3.39 6.05,6.26l0.53,2.45l-0,2.54l-0.59,2.97c-0.26,0.45 -0.42,0.85 -0.47,1.22l-1.78,2.12l-1.93,1.26l-0.83,0.39c-2.23,0.68 -4.45,0.64 -6.68,-0.13l-0.54,-0.24l-0.92,-0.5l-0.4,-0.29l-2.12,-2.16c-0.07,-0.08 -0.13,-0.17 -0.17,-0.27l-1.82,-3.86l-0.24,-1.07c0.04,-0.34 0.02,-0.67 -0.06,-1l0.21,-2.35l0.74,-2.63l0.24,-0.51c0.81,-1.66 2.06,-2.93 3.73,-3.82l1.37,-0.61c1.67,-0.42 3.31,-0.41 4.92,0.03Z" style="fill:#fbf0d5;fill-rule:nonzero;stroke:#fbf0d5;stroke-width:2px;"/></svg>